<?xml version="1.0" standalone="no"?>
 <!DOCTYPE svg PUBLIC "-//W3C//DTD SVG 1.1//EN" 
 "http://www.w3.org/Graphics/SVG/1.1/DTD/svg11.dtd"> 
<svg xmlns="http://www.w3.org/2000/svg" version="1.1" 
    width="29.7002cm" height="21.0007cm" viewBox="0 0 116930 82680 ">
<title>SVG Picture created as TDR_5351_core-F_CrtYd.svg date 2019/12/13 14:36:40 </title>
  <desc>Picture generated by PCBNEW </desc>
<g style="fill:#000000; fill-opacity:1;stroke:#000000; stroke-opacity:1;
stroke-linecap:round; stroke-linejoin:round; "
 transform="translate(0 0) scale(1 1)">
</g>
<g style="fill:#000000; fill-opacity:0.0; 
stroke:#000000; stroke-width:-0.000393701; stroke-opacity:1; 
stroke-linecap:round; stroke-linejoin:round;">
</g>
<g style="fill:#000000; fill-opacity:0.0; 
stroke:#000000; stroke-width:39.3701; stroke-opacity:1; 
stroke-linecap:round; stroke-linejoin:round;">
</g>
<g style="fill:#000000; fill-opacity:0.0; 
stroke:#000000; stroke-width:59.0551; stroke-opacity:1; 
stroke-linecap:round; stroke-linejoin:round;">
<rect x="69685.9" y="65357.2" width="42519.7" height="12598.4" rx="0" />
</g>
<g style="fill:#000000; fill-opacity:0.0; 
stroke:#000000; stroke-width:39.3701; stroke-opacity:1; 
stroke-linecap:round; stroke-linejoin:round;">
</g>
<g style="fill:#000000; fill-opacity:0.0; 
stroke:#000000; stroke-width:59.0551; stroke-opacity:1; 
stroke-linecap:round; stroke-linejoin:round;">
<rect x="3937.01" y="3937.01" width="109056" height="74806" rx="0" />
</g>
<g style="fill:#000000; fill-opacity:0.0; 
stroke:#000000; stroke-width:39.3701; stroke-opacity:1; 
stroke-linecap:round; stroke-linejoin:round;">
</g>
<g style="fill:#000000; fill-opacity:0.0; 
stroke:#000000; stroke-width:59.0551; stroke-opacity:1; 
stroke-linecap:round; stroke-linejoin:round;">
<rect x="4724.41" y="4724.41" width="107481" height="73231.2" rx="0" />
</g>
<g style="fill:#000000; fill-opacity:0.0; 
stroke:#000000; stroke-width:39.3701; stroke-opacity:1; 
stroke-linecap:round; stroke-linejoin:round;">
</g>
<g style="fill:#000000; fill-opacity:0.0; 
stroke:#000000; stroke-width:59.0551; stroke-opacity:1; 
stroke-linecap:round; stroke-linejoin:round;">
<path d="M23622 4724
L23622 3937
" />
</g>
<g style="fill:#000000; fill-opacity:0.0; 
stroke:#000000; stroke-width:39.3701; stroke-opacity:1; 
stroke-linecap:round; stroke-linejoin:round;">
</g>
<g style="fill:#000000; fill-opacity:0.0; 
stroke:#000000; stroke-width:59.0551; stroke-opacity:1; 
stroke-linecap:round; stroke-linejoin:round;">
<path d="M43307 4724
L43307 3937
" />
</g>
<g style="fill:#000000; fill-opacity:0.0; 
stroke:#000000; stroke-width:39.3701; stroke-opacity:1; 
stroke-linecap:round; stroke-linejoin:round;">
</g>
<g style="fill:#000000; fill-opacity:0.0; 
stroke:#000000; stroke-width:59.0551; stroke-opacity:1; 
stroke-linecap:round; stroke-linejoin:round;">
<path d="M62992 4724
L62992 3937
" />
</g>
<g style="fill:#000000; fill-opacity:0.0; 
stroke:#000000; stroke-width:39.3701; stroke-opacity:1; 
stroke-linecap:round; stroke-linejoin:round;">
</g>
<g style="fill:#000000; fill-opacity:0.0; 
stroke:#000000; stroke-width:59.0551; stroke-opacity:1; 
stroke-linecap:round; stroke-linejoin:round;">
<path d="M82677 4724
L82677 3937
" />
</g>
<g style="fill:#000000; fill-opacity:0.0; 
stroke:#000000; stroke-width:39.3701; stroke-opacity:1; 
stroke-linecap:round; stroke-linejoin:round;">
</g>
<g style="fill:#000000; fill-opacity:0.0; 
stroke:#000000; stroke-width:59.0551; stroke-opacity:1; 
stroke-linecap:round; stroke-linejoin:round;">
<path d="M102362 4724
L102362 3937
" />
</g>
<g style="fill:#000000; fill-opacity:0.0; 
stroke:#000000; stroke-width:39.3701; stroke-opacity:1; 
stroke-linecap:round; stroke-linejoin:round;">
</g>
<g style="fill:#000000; fill-opacity:0.0; 
stroke:#000000; stroke-width:59.0551; stroke-opacity:1; 
stroke-linecap:round; stroke-linejoin:round;">
<text x="13779.5" y="4586.61"
textLength="546.494" font-size="682.415" lengthAdjust="spacingAndGlyphs"
text-anchor="start" opacity="0">1</text>
<g class="stroked-text"><desc>1</desc>
<path d="M14199 4562
L13906 4562
" />
<path d="M14052 4562
L14052 4050
L14004 4123
L13955 4172
L13906 4196
" />
</g></g>
<g style="fill:#000000; fill-opacity:0.0; 
stroke:#000000; stroke-width:39.3701; stroke-opacity:1; 
stroke-linecap:round; stroke-linejoin:round;">
</g>
<g style="fill:#000000; fill-opacity:0.0; 
stroke:#000000; stroke-width:59.0551; stroke-opacity:1; 
stroke-linecap:round; stroke-linejoin:round;">
<text x="33464.6" y="4586.61"
textLength="546.494" font-size="682.415" lengthAdjust="spacingAndGlyphs"
text-anchor="start" opacity="0">2</text>
<g class="stroked-text"><desc>2</desc>
<path d="M33591 4099
L33615 4074
L33664 4050
L33786 4050
L33835 4074
L33859 4099
L33884 4147
L33884 4196
L33859 4269
L33567 4562
L33884 4562
" />
</g></g>
<g style="fill:#000000; fill-opacity:0.0; 
stroke:#000000; stroke-width:39.3701; stroke-opacity:1; 
stroke-linecap:round; stroke-linejoin:round;">
</g>
<g style="fill:#000000; fill-opacity:0.0; 
stroke:#000000; stroke-width:59.0551; stroke-opacity:1; 
stroke-linecap:round; stroke-linejoin:round;">
<text x="53149.6" y="4586.61"
textLength="546.494" font-size="682.415" lengthAdjust="spacingAndGlyphs"
text-anchor="start" opacity="0">3</text>
<g class="stroked-text"><desc>3</desc>
<path d="M53252 4050
L53569 4050
L53398 4245
L53471 4245
L53520 4269
L53544 4294
L53569 4342
L53569 4464
L53544 4513
L53520 4537
L53471 4562
L53325 4562
L53276 4537
L53252 4513
" />
</g></g>
<g style="fill:#000000; fill-opacity:0.0; 
stroke:#000000; stroke-width:39.3701; stroke-opacity:1; 
stroke-linecap:round; stroke-linejoin:round;">
</g>
<g style="fill:#000000; fill-opacity:0.0; 
stroke:#000000; stroke-width:59.0551; stroke-opacity:1; 
stroke-linecap:round; stroke-linejoin:round;">
<text x="72834.6" y="4586.61"
textLength="546.494" font-size="682.415" lengthAdjust="spacingAndGlyphs"
text-anchor="start" opacity="0">4</text>
<g class="stroked-text"><desc>4</desc>
<path d="M73205 4221
L73205 4562
" />
<path d="M73083 4026
L72961 4391
L73278 4391
" />
</g></g>
<g style="fill:#000000; fill-opacity:0.0; 
stroke:#000000; stroke-width:39.3701; stroke-opacity:1; 
stroke-linecap:round; stroke-linejoin:round;">
</g>
<g style="fill:#000000; fill-opacity:0.0; 
stroke:#000000; stroke-width:59.0551; stroke-opacity:1; 
stroke-linecap:round; stroke-linejoin:round;">
<text x="92519.7" y="4586.61"
textLength="546.494" font-size="682.415" lengthAdjust="spacingAndGlyphs"
text-anchor="start" opacity="0">5</text>
<g class="stroked-text"><desc>5</desc>
<path d="M92914 4050
L92671 4050
L92646 4294
L92671 4269
L92719 4245
L92841 4245
L92890 4269
L92914 4294
L92939 4342
L92939 4464
L92914 4513
L92890 4537
L92841 4562
L92719 4562
L92671 4537
L92646 4513
" />
</g></g>
<g style="fill:#000000; fill-opacity:0.0; 
stroke:#000000; stroke-width:39.3701; stroke-opacity:1; 
stroke-linecap:round; stroke-linejoin:round;">
</g>
<g style="fill:#000000; fill-opacity:0.0; 
stroke:#000000; stroke-width:59.0551; stroke-opacity:1; 
stroke-linecap:round; stroke-linejoin:round;">
<text x="112205" y="4586.61"
textLength="546.494" font-size="682.415" lengthAdjust="spacingAndGlyphs"
text-anchor="start" opacity="0">6</text>
<g class="stroked-text"><desc>6</desc>
<path d="M112575 4050
L112477 4050
L112429 4074
L112404 4099
L112356 4172
L112331 4269
L112331 4464
L112356 4513
L112380 4537
L112429 4562
L112526 4562
L112575 4537
L112599 4513
L112624 4464
L112624 4342
L112599 4294
L112575 4269
L112526 4245
L112429 4245
L112380 4269
L112356 4294
L112331 4342
" />
</g></g>
<g style="fill:#000000; fill-opacity:0.0; 
stroke:#000000; stroke-width:39.3701; stroke-opacity:1; 
stroke-linecap:round; stroke-linejoin:round;">
</g>
<g style="fill:#000000; fill-opacity:0.0; 
stroke:#000000; stroke-width:59.0551; stroke-opacity:1; 
stroke-linecap:round; stroke-linejoin:round;">
<path d="M23622 77955
L23622 78742
" />
</g>
<g style="fill:#000000; fill-opacity:0.0; 
stroke:#000000; stroke-width:39.3701; stroke-opacity:1; 
stroke-linecap:round; stroke-linejoin:round;">
</g>
<g style="fill:#000000; fill-opacity:0.0; 
stroke:#000000; stroke-width:59.0551; stroke-opacity:1; 
stroke-linecap:round; stroke-linejoin:round;">
<path d="M43307 77955
L43307 78742
" />
</g>
<g style="fill:#000000; fill-opacity:0.0; 
stroke:#000000; stroke-width:39.3701; stroke-opacity:1; 
stroke-linecap:round; stroke-linejoin:round;">
</g>
<g style="fill:#000000; fill-opacity:0.0; 
stroke:#000000; stroke-width:59.0551; stroke-opacity:1; 
stroke-linecap:round; stroke-linejoin:round;">
<path d="M62992 77955
L62992 78742
" />
</g>
<g style="fill:#000000; fill-opacity:0.0; 
stroke:#000000; stroke-width:39.3701; stroke-opacity:1; 
stroke-linecap:round; stroke-linejoin:round;">
</g>
<g style="fill:#000000; fill-opacity:0.0; 
stroke:#000000; stroke-width:59.0551; stroke-opacity:1; 
stroke-linecap:round; stroke-linejoin:round;">
<path d="M82677 77955
L82677 78742
" />
</g>
<g style="fill:#000000; fill-opacity:0.0; 
stroke:#000000; stroke-width:39.3701; stroke-opacity:1; 
stroke-linecap:round; stroke-linejoin:round;">
</g>
<g style="fill:#000000; fill-opacity:0.0; 
stroke:#000000; stroke-width:59.0551; stroke-opacity:1; 
stroke-linecap:round; stroke-linejoin:round;">
<path d="M102362 77955
L102362 78742
" />
</g>
<g style="fill:#000000; fill-opacity:0.0; 
stroke:#000000; stroke-width:39.3701; stroke-opacity:1; 
stroke-linecap:round; stroke-linejoin:round;">
</g>
<g style="fill:#000000; fill-opacity:0.0; 
stroke:#000000; stroke-width:59.0551; stroke-opacity:1; 
stroke-linecap:round; stroke-linejoin:round;">
<text x="13779.5" y="78605.2"
textLength="546.494" font-size="682.415" lengthAdjust="spacingAndGlyphs"
text-anchor="start" opacity="0">1</text>
<g class="stroked-text"><desc>1</desc>
<path d="M14199 78580
L13906 78580
" />
<path d="M14052 78580
L14052 78069
L14004 78142
L13955 78190
L13906 78215
" />
</g></g>
<g style="fill:#000000; fill-opacity:0.0; 
stroke:#000000; stroke-width:39.3701; stroke-opacity:1; 
stroke-linecap:round; stroke-linejoin:round;">
</g>
<g style="fill:#000000; fill-opacity:0.0; 
stroke:#000000; stroke-width:59.0551; stroke-opacity:1; 
stroke-linecap:round; stroke-linejoin:round;">
<text x="33464.6" y="78605.2"
textLength="546.494" font-size="682.415" lengthAdjust="spacingAndGlyphs"
text-anchor="start" opacity="0">2</text>
<g class="stroked-text"><desc>2</desc>
<path d="M33591 78117
L33615 78093
L33664 78069
L33786 78069
L33835 78093
L33859 78117
L33884 78166
L33884 78215
L33859 78288
L33567 78580
L33884 78580
" />
</g></g>
<g style="fill:#000000; fill-opacity:0.0; 
stroke:#000000; stroke-width:39.3701; stroke-opacity:1; 
stroke-linecap:round; stroke-linejoin:round;">
</g>
<g style="fill:#000000; fill-opacity:0.0; 
stroke:#000000; stroke-width:59.0551; stroke-opacity:1; 
stroke-linecap:round; stroke-linejoin:round;">
<text x="53149.6" y="78605.2"
textLength="546.494" font-size="682.415" lengthAdjust="spacingAndGlyphs"
text-anchor="start" opacity="0">3</text>
<g class="stroked-text"><desc>3</desc>
<path d="M53252 78069
L53569 78069
L53398 78263
L53471 78263
L53520 78288
L53544 78312
L53569 78361
L53569 78483
L53544 78532
L53520 78556
L53471 78580
L53325 78580
L53276 78556
L53252 78532
" />
</g></g>
<g style="fill:#000000; fill-opacity:0.0; 
stroke:#000000; stroke-width:39.3701; stroke-opacity:1; 
stroke-linecap:round; stroke-linejoin:round;">
</g>
<g style="fill:#000000; fill-opacity:0.0; 
stroke:#000000; stroke-width:59.0551; stroke-opacity:1; 
stroke-linecap:round; stroke-linejoin:round;">
<text x="72834.6" y="78605.2"
textLength="546.494" font-size="682.415" lengthAdjust="spacingAndGlyphs"
text-anchor="start" opacity="0">4</text>
<g class="stroked-text"><desc>4</desc>
<path d="M73205 78239
L73205 78580
" />
<path d="M73083 78044
L72961 78410
L73278 78410
" />
</g></g>
<g style="fill:#000000; fill-opacity:0.0; 
stroke:#000000; stroke-width:39.3701; stroke-opacity:1; 
stroke-linecap:round; stroke-linejoin:round;">
</g>
<g style="fill:#000000; fill-opacity:0.0; 
stroke:#000000; stroke-width:59.0551; stroke-opacity:1; 
stroke-linecap:round; stroke-linejoin:round;">
<text x="92519.7" y="78605.2"
textLength="546.494" font-size="682.415" lengthAdjust="spacingAndGlyphs"
text-anchor="start" opacity="0">5</text>
<g class="stroked-text"><desc>5</desc>
<path d="M92914 78069
L92671 78069
L92646 78312
L92671 78288
L92719 78263
L92841 78263
L92890 78288
L92914 78312
L92939 78361
L92939 78483
L92914 78532
L92890 78556
L92841 78580
L92719 78580
L92671 78556
L92646 78532
" />
</g></g>
<g style="fill:#000000; fill-opacity:0.0; 
stroke:#000000; stroke-width:39.3701; stroke-opacity:1; 
stroke-linecap:round; stroke-linejoin:round;">
</g>
<g style="fill:#000000; fill-opacity:0.0; 
stroke:#000000; stroke-width:59.0551; stroke-opacity:1; 
stroke-linecap:round; stroke-linejoin:round;">
<text x="112205" y="78605.2"
textLength="546.494" font-size="682.415" lengthAdjust="spacingAndGlyphs"
text-anchor="start" opacity="0">6</text>
<g class="stroked-text"><desc>6</desc>
<path d="M112575 78069
L112477 78069
L112429 78093
L112404 78117
L112356 78190
L112331 78288
L112331 78483
L112356 78532
L112380 78556
L112429 78580
L112526 78580
L112575 78556
L112599 78532
L112624 78483
L112624 78361
L112599 78312
L112575 78288
L112526 78263
L112429 78263
L112380 78288
L112356 78312
L112331 78361
" />
</g></g>
<g style="fill:#000000; fill-opacity:0.0; 
stroke:#000000; stroke-width:39.3701; stroke-opacity:1; 
stroke-linecap:round; stroke-linejoin:round;">
</g>
<g style="fill:#000000; fill-opacity:0.0; 
stroke:#000000; stroke-width:59.0551; stroke-opacity:1; 
stroke-linecap:round; stroke-linejoin:round;">
<path d="M3937 23622
L4724 23622
" />
</g>
<g style="fill:#000000; fill-opacity:0.0; 
stroke:#000000; stroke-width:39.3701; stroke-opacity:1; 
stroke-linecap:round; stroke-linejoin:round;">
</g>
<g style="fill:#000000; fill-opacity:0.0; 
stroke:#000000; stroke-width:59.0551; stroke-opacity:1; 
stroke-linecap:round; stroke-linejoin:round;">
<path d="M3937 43307
L4724 43307
" />
</g>
<g style="fill:#000000; fill-opacity:0.0; 
stroke:#000000; stroke-width:39.3701; stroke-opacity:1; 
stroke-linecap:round; stroke-linejoin:round;">
</g>
<g style="fill:#000000; fill-opacity:0.0; 
stroke:#000000; stroke-width:59.0551; stroke-opacity:1; 
stroke-linecap:round; stroke-linejoin:round;">
<path d="M3937 62992
L4724 62992
" />
</g>
<g style="fill:#000000; fill-opacity:0.0; 
stroke:#000000; stroke-width:39.3701; stroke-opacity:1; 
stroke-linecap:round; stroke-linejoin:round;">
</g>
<g style="fill:#000000; fill-opacity:0.0; 
stroke:#000000; stroke-width:59.0551; stroke-opacity:1; 
stroke-linecap:round; stroke-linejoin:round;">
<text x="4330.71" y="14035.4"
textLength="497.75" font-size="682.415" lengthAdjust="spacingAndGlyphs"
text-anchor="middle" opacity="0">A</text>
<g class="stroked-text"><desc>A</desc>
<path d="M4208 13864
L4452 13864
" />
<path d="M4160 14011
L4330 13499
L4501 14011
" />
</g></g>
<g style="fill:#000000; fill-opacity:0.0; 
stroke:#000000; stroke-width:39.3701; stroke-opacity:1; 
stroke-linecap:round; stroke-linejoin:round;">
</g>
<g style="fill:#000000; fill-opacity:0.0; 
stroke:#000000; stroke-width:59.0551; stroke-opacity:1; 
stroke-linecap:round; stroke-linejoin:round;">
<text x="4330.71" y="33720.5"
textLength="570.866" font-size="682.415" lengthAdjust="spacingAndGlyphs"
text-anchor="middle" opacity="0">B</text>
<g class="stroked-text"><desc>B</desc>
<path d="M4367 33428
L4440 33452
L4464 33476
L4489 33525
L4489 33598
L4464 33647
L4440 33671
L4391 33696
L4196 33696
L4196 33184
L4367 33184
L4416 33208
L4440 33233
L4464 33281
L4464 33330
L4440 33379
L4416 33403
L4367 33428
L4196 33428
" />
</g></g>
<g style="fill:#000000; fill-opacity:0.0; 
stroke:#000000; stroke-width:39.3701; stroke-opacity:1; 
stroke-linecap:round; stroke-linejoin:round;">
</g>
<g style="fill:#000000; fill-opacity:0.0; 
stroke:#000000; stroke-width:59.0551; stroke-opacity:1; 
stroke-linecap:round; stroke-linejoin:round;">
<text x="4330.71" y="53405.5"
textLength="570.866" font-size="682.415" lengthAdjust="spacingAndGlyphs"
text-anchor="middle" opacity="0">C</text>
<g class="stroked-text"><desc>C</desc>
<path d="M4489 53332
L4464 53356
L4391 53381
L4342 53381
L4269 53356
L4221 53308
L4196 53259
L4172 53161
L4172 53088
L4196 52991
L4221 52942
L4269 52893
L4342 52869
L4391 52869
L4464 52893
L4489 52918
" />
</g></g>
<g style="fill:#000000; fill-opacity:0.0; 
stroke:#000000; stroke-width:39.3701; stroke-opacity:1; 
stroke-linecap:round; stroke-linejoin:round;">
</g>
<g style="fill:#000000; fill-opacity:0.0; 
stroke:#000000; stroke-width:59.0551; stroke-opacity:1; 
stroke-linecap:round; stroke-linejoin:round;">
<text x="4330.71" y="73090.6"
textLength="570.866" font-size="682.415" lengthAdjust="spacingAndGlyphs"
text-anchor="middle" opacity="0">D</text>
<g class="stroked-text"><desc>D</desc>
<path d="M4196 73066
L4196 72554
L4318 72554
L4391 72578
L4440 72627
L4464 72676
L4489 72773
L4489 72846
L4464 72944
L4440 72993
L4391 73041
L4318 73066
L4196 73066
" />
</g></g>
<g style="fill:#000000; fill-opacity:0.0; 
stroke:#000000; stroke-width:39.3701; stroke-opacity:1; 
stroke-linecap:round; stroke-linejoin:round;">
</g>
<g style="fill:#000000; fill-opacity:0.0; 
stroke:#000000; stroke-width:59.0551; stroke-opacity:1; 
stroke-linecap:round; stroke-linejoin:round;">
<path d="M112992 23622
L112205 23622
" />
</g>
<g style="fill:#000000; fill-opacity:0.0; 
stroke:#000000; stroke-width:39.3701; stroke-opacity:1; 
stroke-linecap:round; stroke-linejoin:round;">
</g>
<g style="fill:#000000; fill-opacity:0.0; 
stroke:#000000; stroke-width:59.0551; stroke-opacity:1; 
stroke-linecap:round; stroke-linejoin:round;">
<path d="M112992 43307
L112205 43307
" />
</g>
<g style="fill:#000000; fill-opacity:0.0; 
stroke:#000000; stroke-width:39.3701; stroke-opacity:1; 
stroke-linecap:round; stroke-linejoin:round;">
</g>
<g style="fill:#000000; fill-opacity:0.0; 
stroke:#000000; stroke-width:59.0551; stroke-opacity:1; 
stroke-linecap:round; stroke-linejoin:round;">
<path d="M112992 62992
L112205 62992
" />
</g>
<g style="fill:#000000; fill-opacity:0.0; 
stroke:#000000; stroke-width:39.3701; stroke-opacity:1; 
stroke-linecap:round; stroke-linejoin:round;">
</g>
<g style="fill:#000000; fill-opacity:0.0; 
stroke:#000000; stroke-width:59.0551; stroke-opacity:1; 
stroke-linecap:round; stroke-linejoin:round;">
<text x="112599" y="14035.4"
textLength="497.75" font-size="682.415" lengthAdjust="spacingAndGlyphs"
text-anchor="middle" opacity="0">A</text>
<g class="stroked-text"><desc>A</desc>
<path d="M112477 13864
L112721 13864
" />
<path d="M112428 14011
L112599 13499
L112769 14011
" />
</g></g>
<g style="fill:#000000; fill-opacity:0.0; 
stroke:#000000; stroke-width:39.3701; stroke-opacity:1; 
stroke-linecap:round; stroke-linejoin:round;">
</g>
<g style="fill:#000000; fill-opacity:0.0; 
stroke:#000000; stroke-width:59.0551; stroke-opacity:1; 
stroke-linecap:round; stroke-linejoin:round;">
<text x="112599" y="33720.5"
textLength="570.866" font-size="682.415" lengthAdjust="spacingAndGlyphs"
text-anchor="middle" opacity="0">B</text>
<g class="stroked-text"><desc>B</desc>
<path d="M112635 33428
L112708 33452
L112733 33476
L112757 33525
L112757 33598
L112733 33647
L112708 33671
L112660 33696
L112465 33696
L112465 33184
L112635 33184
L112684 33208
L112708 33233
L112733 33281
L112733 33330
L112708 33379
L112684 33403
L112635 33428
L112465 33428
" />
</g></g>
<g style="fill:#000000; fill-opacity:0.0; 
stroke:#000000; stroke-width:39.3701; stroke-opacity:1; 
stroke-linecap:round; stroke-linejoin:round;">
</g>
<g style="fill:#000000; fill-opacity:0.0; 
stroke:#000000; stroke-width:59.0551; stroke-opacity:1; 
stroke-linecap:round; stroke-linejoin:round;">
<text x="112599" y="53405.5"
textLength="570.866" font-size="682.415" lengthAdjust="spacingAndGlyphs"
text-anchor="middle" opacity="0">C</text>
<g class="stroked-text"><desc>C</desc>
<path d="M112757 53332
L112733 53356
L112660 53381
L112611 53381
L112538 53356
L112489 53308
L112465 53259
L112440 53161
L112440 53088
L112465 52991
L112489 52942
L112538 52893
L112611 52869
L112660 52869
L112733 52893
L112757 52918
" />
</g></g>
<g style="fill:#000000; fill-opacity:0.0; 
stroke:#000000; stroke-width:39.3701; stroke-opacity:1; 
stroke-linecap:round; stroke-linejoin:round;">
</g>
<g style="fill:#000000; fill-opacity:0.0; 
stroke:#000000; stroke-width:59.0551; stroke-opacity:1; 
stroke-linecap:round; stroke-linejoin:round;">
<text x="112599" y="73090.6"
textLength="570.866" font-size="682.415" lengthAdjust="spacingAndGlyphs"
text-anchor="middle" opacity="0">D</text>
<g class="stroked-text"><desc>D</desc>
<path d="M112465 73066
L112465 72554
L112587 72554
L112660 72578
L112708 72627
L112733 72676
L112757 72773
L112757 72846
L112733 72944
L112708 72993
L112660 73041
L112587 73066
L112465 73066
" />
</g></g>
<g style="fill:#000000; fill-opacity:0.0; 
stroke:#000000; stroke-width:39.3701; stroke-opacity:1; 
stroke-linecap:round; stroke-linejoin:round;">
</g>
<g style="fill:#000000; fill-opacity:0.0; 
stroke:#000000; stroke-width:59.0551; stroke-opacity:1; 
stroke-linecap:round; stroke-linejoin:round;">
<text x="78741" y="76321.7"
textLength="2758.72" font-size="787.402" lengthAdjust="spacingAndGlyphs"
text-anchor="start" opacity="0">Date: </text>
<g class="stroked-text"><desc>Date: </desc>
<path d="M78911 76293
L78911 75703
L79051 75703
L79136 75731
L79192 75787
L79220 75843
L79248 75956
L79248 76040
L79220 76153
L79192 76209
L79136 76265
L79051 76293
L78911 76293
" />
<path d="M79754 76293
L79754 75984
L79726 75928
L79670 75899
L79557 75899
L79501 75928
" />
<path d="M79754 76265
L79698 76293
L79557 76293
L79501 76265
L79473 76209
L79473 76153
L79501 76096
L79557 76068
L79698 76068
L79754 76040
" />
<path d="M79951 75899
L80176 75899
" />
<path d="M80036 75703
L80036 76209
L80064 76265
L80120 76293
L80176 76293
" />
<path d="M80598 76265
L80542 76293
L80429 76293
L80373 76265
L80345 76209
L80345 75984
L80373 75928
L80429 75899
L80542 75899
L80598 75928
L80626 75984
L80626 76040
L80345 76096
" />
<path d="M80879 76237
L80907 76265
L80879 76293
L80851 76265
L80879 76237
L80879 76293
" />
<path d="M80879 75928
L80907 75956
L80879 75984
L80851 75956
L80879 75928
L80879 75984
" />
</g></g>
<g style="fill:#000000; fill-opacity:0.0; 
stroke:#000000; stroke-width:39.3701; stroke-opacity:1; 
stroke-linecap:round; stroke-linejoin:round;">
</g>
<g style="fill:#000000; fill-opacity:0.0; 
stroke:#000000; stroke-width:59.0551; stroke-opacity:1; 
stroke-linecap:round; stroke-linejoin:round;">
<path d="M69685 76577
L112205 76577
" />
</g>
<g style="fill:#000000; fill-opacity:0.0; 
stroke:#000000; stroke-width:39.3701; stroke-opacity:1; 
stroke-linecap:round; stroke-linejoin:round;">
</g>
<g style="fill:#000000; fill-opacity:0.0; 
stroke:#000000; stroke-width:59.0551; stroke-opacity:1; 
stroke-linecap:round; stroke-linejoin:round;">
<text x="70079.6" y="77424.1"
textLength="29192.9" font-size="787.402" lengthAdjust="spacingAndGlyphs"
text-anchor="start" opacity="0">KiCad E.D.A.  kicad 5.99.0-unknown-d20d310~100~ubuntu19.10.1</text>
<g class="stroked-text"><desc>KiCad E.D.A.  kicad 5.99.0-unknown-d20d310~100~ubuntu19.10.1</desc>
<path d="M70249 77395
L70249 76805
" />
<path d="M70587 77395
L70334 77058
" />
<path d="M70587 76805
L70249 77142
" />
<path d="M70840 77395
L70840 77002
" />
<path d="M70840 76805
L70812 76833
L70840 76861
L70868 76833
L70840 76805
L70840 76861
" />
<path d="M71458 77339
L71430 77367
L71346 77395
L71290 77395
L71205 77367
L71149 77311
L71121 77255
L71093 77142
L71093 77058
L71121 76946
L71149 76889
L71205 76833
L71290 76805
L71346 76805
L71430 76833
L71458 76861
" />
<path d="M71965 77395
L71965 77086
L71937 77030
L71880 77002
L71768 77002
L71712 77030
" />
<path d="M71965 77367
L71908 77395
L71768 77395
L71712 77367
L71683 77311
L71683 77255
L71712 77199
L71768 77171
L71908 77171
L71965 77142
" />
<path d="M72499 77395
L72499 76805
" />
<path d="M72499 77367
L72443 77395
L72330 77395
L72274 77367
L72246 77339
L72218 77283
L72218 77114
L72246 77058
L72274 77030
L72330 77002
L72443 77002
L72499 77030
" />
<path d="M73230 77086
L73427 77086
" />
<path d="M73511 77395
L73230 77395
L73230 76805
L73511 76805
" />
<path d="M73764 77339
L73793 77367
L73764 77395
L73736 77367
L73764 77339
L73764 77395
" />
<path d="M74046 77395
L74046 76805
L74186 76805
L74271 76833
L74327 76889
L74355 76946
L74383 77058
L74383 77142
L74355 77255
L74327 77311
L74271 77367
L74186 77395
L74046 77395
" />
<path d="M74636 77339
L74664 77367
L74636 77395
L74608 77367
L74636 77339
L74636 77395
" />
<path d="M74889 77227
L75171 77227
" />
<path d="M74833 77395
L75030 76805
L75227 77395
" />
<path d="M75424 77339
L75452 77367
L75424 77395
L75395 77367
L75424 77339
L75424 77395
" />
<path d="M76605 77395
L76605 76805
" />
<path d="M76661 77171
L76830 77395
" />
<path d="M76830 77002
L76605 77227
" />
<path d="M77083 77395
L77083 77002
" />
<path d="M77083 76805
L77055 76833
L77083 76861
L77111 76833
L77083 76805
L77083 76861
" />
<path d="M77617 77367
L77561 77395
L77448 77395
L77392 77367
L77364 77339
L77336 77283
L77336 77114
L77364 77058
L77392 77030
L77448 77002
L77561 77002
L77617 77030
" />
<path d="M78123 77395
L78123 77086
L78095 77030
L78039 77002
L77926 77002
L77870 77030
" />
<path d="M78123 77367
L78067 77395
L77926 77395
L77870 77367
L77842 77311
L77842 77255
L77870 77199
L77926 77171
L78067 77171
L78123 77142
" />
<path d="M78658 77395
L78658 76805
" />
<path d="M78658 77367
L78601 77395
L78489 77395
L78433 77367
L78404 77339
L78376 77283
L78376 77114
L78404 77058
L78433 77030
L78489 77002
L78601 77002
L78658 77030
" />
<path d="M79670 76805
L79389 76805
L79361 77086
L79389 77058
L79445 77030
L79586 77030
L79642 77058
L79670 77086
L79698 77142
L79698 77283
L79670 77339
L79642 77367
L79586 77395
L79445 77395
L79389 77367
L79361 77339
" />
<path d="M79951 77339
L79979 77367
L79951 77395
L79923 77367
L79951 77339
L79951 77395
" />
<path d="M80260 77395
L80373 77395
L80429 77367
L80457 77339
L80514 77255
L80542 77142
L80542 76917
L80514 76861
L80485 76833
L80429 76805
L80317 76805
L80260 76833
L80232 76861
L80204 76917
L80204 77058
L80232 77114
L80260 77142
L80317 77171
L80429 77171
L80485 77142
L80514 77114
L80542 77058
" />
<path d="M80823 77395
L80935 77395
L80992 77367
L81020 77339
L81076 77255
L81104 77142
L81104 76917
L81076 76861
L81048 76833
L80992 76805
L80879 76805
L80823 76833
L80795 76861
L80767 76917
L80767 77058
L80795 77114
L80823 77142
L80879 77171
L80992 77171
L81048 77142
L81076 77114
L81104 77058
" />
<path d="M81357 77339
L81385 77367
L81357 77395
L81329 77367
L81357 77339
L81357 77395
" />
<path d="M81751 76805
L81807 76805
L81863 76833
L81892 76861
L81920 76917
L81948 77030
L81948 77171
L81920 77283
L81892 77339
L81863 77367
L81807 77395
L81751 77395
L81695 77367
L81667 77339
L81638 77283
L81610 77171
L81610 77030
L81638 76917
L81667 76861
L81695 76833
L81751 76805
" />
<path d="M82201 77171
L82651 77171
" />
<path d="M83185 77002
L83185 77395
" />
<path d="M82932 77002
L82932 77311
L82960 77367
L83016 77395
L83101 77395
L83157 77367
L83185 77339
" />
<path d="M83466 77002
L83466 77395
" />
<path d="M83466 77058
L83494 77030
L83551 77002
L83635 77002
L83691 77030
L83719 77086
L83719 77395
" />
<path d="M84001 77395
L84001 76805
" />
<path d="M84057 77171
L84226 77395
" />
<path d="M84226 77002
L84001 77227
" />
<path d="M84479 77002
L84479 77395
" />
<path d="M84479 77058
L84507 77030
L84563 77002
L84647 77002
L84704 77030
L84732 77086
L84732 77395
" />
<path d="M85097 77395
L85041 77367
L85013 77339
L84985 77283
L84985 77114
L85013 77058
L85041 77030
L85097 77002
L85182 77002
L85238 77030
L85266 77058
L85294 77114
L85294 77283
L85266 77339
L85238 77367
L85182 77395
L85097 77395
" />
<path d="M85491 77002
L85604 77395
L85716 77114
L85829 77395
L85941 77002
" />
<path d="M86166 77002
L86166 77395
" />
<path d="M86166 77058
L86194 77030
L86250 77002
L86335 77002
L86391 77030
L86419 77086
L86419 77395
" />
<path d="M86700 77171
L87150 77171
" />
<path d="M87685 77395
L87685 76805
" />
<path d="M87685 77367
L87628 77395
L87516 77395
L87460 77367
L87431 77339
L87403 77283
L87403 77114
L87431 77058
L87460 77030
L87516 77002
L87628 77002
L87685 77030
" />
<path d="M87938 76861
L87966 76833
L88022 76805
L88163 76805
L88219 76833
L88247 76861
L88275 76917
L88275 76974
L88247 77058
L87910 77395
L88275 77395
" />
<path d="M88641 76805
L88697 76805
L88753 76833
L88781 76861
L88809 76917
L88838 77030
L88838 77171
L88809 77283
L88781 77339
L88753 77367
L88697 77395
L88641 77395
L88584 77367
L88556 77339
L88528 77283
L88500 77171
L88500 77030
L88528 76917
L88556 76861
L88584 76833
L88641 76805
" />
<path d="M89344 77395
L89344 76805
" />
<path d="M89344 77367
L89287 77395
L89175 77395
L89119 77367
L89091 77339
L89063 77283
L89063 77114
L89091 77058
L89119 77030
L89175 77002
L89287 77002
L89344 77030
" />
<path d="M89569 76805
L89934 76805
L89737 77030
L89822 77030
L89878 77058
L89906 77086
L89934 77142
L89934 77283
L89906 77339
L89878 77367
L89822 77395
L89653 77395
L89597 77367
L89569 77339
" />
<path d="M90497 77395
L90159 77395
" />
<path d="M90328 77395
L90328 76805
L90272 76889
L90215 76946
L90159 76974
" />
<path d="M90862 76805
L90919 76805
L90975 76833
L91003 76861
L91031 76917
L91059 77030
L91059 77171
L91031 77283
L91003 77339
L90975 77367
L90919 77395
L90862 77395
L90806 77367
L90778 77339
L90750 77283
L90722 77171
L90722 77030
L90750 76917
L90778 76861
L90806 76833
L90862 76805
" />
<path d="M91172 76644
L91734 76644
" />
<path d="M91622 77395
L91284 77395
" />
<path d="M91453 77395
L91453 76805
L91397 76889
L91340 76946
L91284 76974
" />
<path d="M91734 76644
L92296 76644
" />
<path d="M91987 76805
L92043 76805
L92100 76833
L92128 76861
L92156 76917
L92184 77030
L92184 77171
L92156 77283
L92128 77339
L92100 77367
L92043 77395
L91987 77395
L91931 77367
L91903 77339
L91875 77283
L91847 77171
L91847 77030
L91875 76917
L91903 76861
L91931 76833
L91987 76805
" />
<path d="M92296 76644
L92859 76644
" />
<path d="M92550 76805
L92606 76805
L92662 76833
L92690 76861
L92718 76917
L92746 77030
L92746 77171
L92718 77283
L92690 77339
L92662 77367
L92606 77395
L92550 77395
L92493 77367
L92465 77339
L92437 77283
L92409 77171
L92409 77030
L92437 76917
L92465 76861
L92493 76833
L92550 76805
" />
<path d="M93253 77002
L93253 77395
" />
<path d="M93000 77002
L93000 77311
L93028 77367
L93084 77395
L93168 77395
L93224 77367
L93253 77339
" />
<path d="M93534 77395
L93534 76805
" />
<path d="M93534 77030
L93590 77002
L93703 77002
L93759 77030
L93787 77058
L93815 77114
L93815 77283
L93787 77339
L93759 77367
L93703 77395
L93590 77395
L93534 77367
" />
<path d="M94321 77002
L94321 77395
" />
<path d="M94068 77002
L94068 77311
L94096 77367
L94153 77395
L94237 77395
L94293 77367
L94321 77339
" />
<path d="M94602 77002
L94602 77395
" />
<path d="M94602 77058
L94631 77030
L94687 77002
L94771 77002
L94827 77030
L94856 77086
L94856 77395
" />
<path d="M95052 77002
L95277 77002
" />
<path d="M95137 76805
L95137 77311
L95165 77367
L95221 77395
L95277 77395
" />
<path d="M95727 77002
L95727 77395
" />
<path d="M95474 77002
L95474 77311
L95502 77367
L95559 77395
L95643 77395
L95699 77367
L95727 77339
" />
<path d="M96318 77395
L95980 77395
" />
<path d="M96149 77395
L96149 76805
L96093 76889
L96037 76946
L95980 76974
" />
<path d="M96599 77395
L96712 77395
L96768 77367
L96796 77339
L96852 77255
L96880 77142
L96880 76917
L96852 76861
L96824 76833
L96768 76805
L96655 76805
L96599 76833
L96571 76861
L96543 76917
L96543 77058
L96571 77114
L96599 77142
L96655 77171
L96768 77171
L96824 77142
L96852 77114
L96880 77058
" />
<path d="M97133 77339
L97162 77367
L97133 77395
L97105 77367
L97133 77339
L97133 77395
" />
<path d="M97724 77395
L97386 77395
" />
<path d="M97555 77395
L97555 76805
L97499 76889
L97443 76946
L97386 76974
" />
<path d="M98090 76805
L98146 76805
L98202 76833
L98230 76861
L98258 76917
L98286 77030
L98286 77171
L98258 77283
L98230 77339
L98202 77367
L98146 77395
L98090 77395
L98033 77367
L98005 77339
L97977 77283
L97949 77171
L97949 77030
L97977 76917
L98005 76861
L98033 76833
L98090 76805
" />
<path d="M98539 77339
L98568 77367
L98539 77395
L98511 77367
L98539 77339
L98539 77395
" />
<path d="M99130 77395
L98793 77395
" />
<path d="M98961 77395
L98961 76805
L98905 76889
L98849 76946
L98793 76974
" />
</g></g>
<g style="fill:#000000; fill-opacity:0.0; 
stroke:#000000; stroke-width:39.3701; stroke-opacity:1; 
stroke-linecap:round; stroke-linejoin:round;">
</g>
<g style="fill:#000000; fill-opacity:0.0; 
stroke:#000000; stroke-width:59.0551; stroke-opacity:1; 
stroke-linecap:round; stroke-linejoin:round;">
<path d="M69685 75396
L112205 75396
" />
</g>
<g style="fill:#000000; fill-opacity:0.0; 
stroke:#000000; stroke-width:39.3701; stroke-opacity:1; 
stroke-linecap:round; stroke-linejoin:round;">
</g>
<g style="fill:#000000; fill-opacity:0.0; 
stroke:#000000; stroke-width:118.11; stroke-opacity:1; 
stroke-linecap:round; stroke-linejoin:round;">
<text x="103544" y="76321.7"
textLength="2336.9" font-size="787.402" lengthAdjust="spacingAndGlyphs"
text-anchor="start" opacity="0">Rev: </text>
<g class="stroked-text"><desc>Rev: </desc>
<path d="M104099 76293
L103902 76012
" />
<path d="M103761 76293
L103761 75703
L103986 75703
L104042 75731
L104070 75759
L104099 75815
L104099 75899
L104070 75956
L104042 75984
L103986 76012
L103761 76012
" />
<path d="M104577 76265
L104520 76293
L104408 76293
L104352 76265
L104323 76209
L104323 75984
L104352 75928
L104408 75899
L104520 75899
L104577 75928
L104605 75984
L104605 76040
L104323 76096
" />
<path d="M104802 75899
L104942 76293
L105083 75899
" />
<path d="M105308 76237
L105336 76265
L105308 76293
L105280 76265
L105308 76237
L105308 76293
" />
<path d="M105308 75928
L105336 75956
L105308 75984
L105280 75956
L105308 75928
L105308 75984
" />
</g></g>
<g style="fill:#000000; fill-opacity:0.0; 
stroke:#000000; stroke-width:39.3701; stroke-opacity:1; 
stroke-linecap:round; stroke-linejoin:round;">
</g>
<g style="fill:#000000; fill-opacity:0.0; 
stroke:#000000; stroke-width:59.0551; stroke-opacity:1; 
stroke-linecap:round; stroke-linejoin:round;">
<text x="70079.6" y="76321.7"
textLength="3781.21" font-size="787.402" lengthAdjust="spacingAndGlyphs"
text-anchor="start" opacity="0">Size: A4</text>
<g class="stroked-text"><desc>Size: A4</desc>
<path d="M70221 76265
L70305 76293
L70446 76293
L70502 76265
L70530 76237
L70559 76181
L70559 76124
L70530 76068
L70502 76040
L70446 76012
L70334 75984
L70277 75956
L70249 75928
L70221 75871
L70221 75815
L70249 75759
L70277 75731
L70334 75703
L70474 75703
L70559 75731
" />
<path d="M70812 76293
L70812 75899
" />
<path d="M70812 75703
L70784 75731
L70812 75759
L70840 75731
L70812 75703
L70812 75759
" />
<path d="M71037 75899
L71346 75899
L71037 76293
L71346 76293
" />
<path d="M71796 76265
L71740 76293
L71627 76293
L71571 76265
L71543 76209
L71543 75984
L71571 75928
L71627 75899
L71740 75899
L71796 75928
L71824 75984
L71824 76040
L71543 76096
" />
<path d="M72077 76237
L72105 76265
L72077 76293
L72049 76265
L72077 76237
L72077 76293
" />
<path d="M72077 75928
L72105 75956
L72077 75984
L72049 75956
L72077 75928
L72077 75984
" />
<path d="M72780 76124
L73061 76124
" />
<path d="M72724 76293
L72921 75703
L73118 76293
" />
<path d="M73568 75899
L73568 76293
" />
<path d="M73427 75674
L73286 76096
L73652 76096
" />
</g></g>
<g style="fill:#000000; fill-opacity:0.0; 
stroke:#000000; stroke-width:39.3701; stroke-opacity:1; 
stroke-linecap:round; stroke-linejoin:round;">
</g>
<g style="fill:#000000; fill-opacity:0.0; 
stroke:#000000; stroke-width:59.0551; stroke-opacity:1; 
stroke-linecap:round; stroke-linejoin:round;">
<text x="103544" y="77424.1"
textLength="3349.27" font-size="787.402" lengthAdjust="spacingAndGlyphs"
text-anchor="start" opacity="0">Id: 1/1</text>
<g class="stroked-text"><desc>Id: 1/1</desc>
<path d="M103714 77395
L103714 76805
" />
<path d="M104248 77395
L104248 76805
" />
<path d="M104248 77367
L104192 77395
L104079 77395
L104023 77367
L103995 77339
L103967 77283
L103967 77114
L103995 77058
L104023 77030
L104079 77002
L104192 77002
L104248 77030
" />
<path d="M104529 77339
L104557 77367
L104529 77395
L104501 77367
L104529 77339
L104529 77395
" />
<path d="M104529 77030
L104557 77058
L104529 77086
L104501 77058
L104529 77030
L104529 77086
" />
<path d="M105570 77395
L105232 77395
" />
<path d="M105401 77395
L105401 76805
L105345 76889
L105289 76946
L105232 76974
" />
<path d="M106245 76777
L105739 77536
" />
<path d="M106751 77395
L106413 77395
" />
<path d="M106582 77395
L106582 76805
L106526 76889
L106470 76946
L106413 76974
" />
</g></g>
<g style="fill:#000000; fill-opacity:0.0; 
stroke:#000000; stroke-width:39.3701; stroke-opacity:1; 
stroke-linecap:round; stroke-linejoin:round;">
</g>
<g style="fill:#000000; fill-opacity:0.0; 
stroke:#000000; stroke-width:59.0551; stroke-opacity:1; 
stroke-linecap:round; stroke-linejoin:round;">
<path d="M69685 73821
L112205 73821
" />
</g>
<g style="fill:#000000; fill-opacity:0.0; 
stroke:#000000; stroke-width:39.3701; stroke-opacity:1; 
stroke-linecap:round; stroke-linejoin:round;">
</g>
<g style="fill:#000000; fill-opacity:0.0; 
stroke:#000000; stroke-width:157.48; stroke-opacity:1; 
stroke-linecap:round; stroke-linejoin:round;">
<text x="70079.6" y="74924.1"
textLength="3704.58" font-size="1049.87" lengthAdjust="spacingAndGlyphs"
text-anchor="start" opacity="0">Title: </text>
<g class="stroked-text"><desc>Title: </desc>
<path d="M70360 74099
L70810 74099
" />
<path d="M70486 74886
L70585 74099
" />
<path d="M70974 74886
L71039 74361
" />
<path d="M71072 74099
L71030 74136
L71063 74174
L71105 74136
L71072 74099
L71063 74174
" />
<path d="M71302 74361
L71602 74361
" />
<path d="M71447 74099
L71363 74774
L71391 74849
L71461 74886
L71536 74886
" />
<path d="M71911 74886
L71841 74849
L71813 74774
L71897 74099
" />
<path d="M72516 74849
L72436 74886
L72286 74886
L72216 74849
L72187 74774
L72225 74474
L72272 74399
L72352 74361
L72501 74361
L72572 74399
L72600 74474
L72591 74549
L72206 74624
" />
<path d="M72895 74811
L72928 74849
L72886 74886
L72853 74849
L72895 74811
L72886 74886
" />
<path d="M72947 74399
L72980 74436
L72937 74474
L72905 74436
L72947 74399
L72937 74474
" />
</g></g>
<g style="fill:#000000; fill-opacity:0.0; 
stroke:#000000; stroke-width:39.3701; stroke-opacity:1; 
stroke-linecap:round; stroke-linejoin:round;">
</g>
<g style="fill:#000000; fill-opacity:0.0; 
stroke:#000000; stroke-width:59.0551; stroke-opacity:1; 
stroke-linecap:round; stroke-linejoin:round;">
<text x="70079.6" y="73408.3"
textLength="13871.8" font-size="787.402" lengthAdjust="spacingAndGlyphs"
text-anchor="start" opacity="0">File: TDR_5351_core.kicad_pcb</text>
<g class="stroked-text"><desc>File: TDR_5351_core.kicad_pcb</desc>
<path d="M70446 73070
L70249 73070
" />
<path d="M70249 73380
L70249 72789
L70530 72789
" />
<path d="M70755 73380
L70755 72986
" />
<path d="M70755 72789
L70727 72817
L70755 72845
L70784 72817
L70755 72789
L70755 72845
" />
<path d="M71121 73380
L71065 73352
L71037 73295
L71037 72789
" />
<path d="M71571 73352
L71515 73380
L71402 73380
L71346 73352
L71318 73295
L71318 73070
L71346 73014
L71402 72986
L71515 72986
L71571 73014
L71599 73070
L71599 73127
L71318 73183
" />
<path d="M71852 73323
L71880 73352
L71852 73380
L71824 73352
L71852 73323
L71852 73380
" />
<path d="M71852 73014
L71880 73042
L71852 73070
L71824 73042
L71852 73014
L71852 73070
" />
<path d="M72499 72789
L72836 72789
" />
<path d="M72668 73380
L72668 72789
" />
<path d="M73033 73380
L73033 72789
L73174 72789
L73258 72817
L73314 72874
L73343 72930
L73371 73042
L73371 73127
L73343 73239
L73314 73295
L73258 73352
L73174 73380
L73033 73380
" />
<path d="M73961 73380
L73764 73099
" />
<path d="M73624 73380
L73624 72789
L73849 72789
L73905 72817
L73933 72845
L73961 72902
L73961 72986
L73933 73042
L73905 73070
L73849 73099
L73624 73099
" />
<path d="M74074 73436
L74524 73436
" />
<path d="M74946 72789
L74664 72789
L74636 73070
L74664 73042
L74721 73014
L74861 73014
L74917 73042
L74946 73070
L74974 73127
L74974 73267
L74946 73323
L74917 73352
L74861 73380
L74721 73380
L74664 73352
L74636 73323
" />
<path d="M75171 72789
L75536 72789
L75339 73014
L75424 73014
L75480 73042
L75508 73070
L75536 73127
L75536 73267
L75508 73323
L75480 73352
L75424 73380
L75255 73380
L75199 73352
L75171 73323
" />
<path d="M76070 72789
L75789 72789
L75761 73070
L75789 73042
L75845 73014
L75986 73014
L76042 73042
L76070 73070
L76099 73127
L76099 73267
L76070 73323
L76042 73352
L75986 73380
L75845 73380
L75789 73352
L75761 73323
" />
<path d="M76661 73380
L76323 73380
" />
<path d="M76492 73380
L76492 72789
L76436 72874
L76380 72930
L76323 72958
" />
<path d="M76773 73436
L77223 73436
" />
<path d="M77617 73352
L77561 73380
L77448 73380
L77392 73352
L77364 73323
L77336 73267
L77336 73099
L77364 73042
L77392 73014
L77448 72986
L77561 72986
L77617 73014
" />
<path d="M77955 73380
L77898 73352
L77870 73323
L77842 73267
L77842 73099
L77870 73042
L77898 73014
L77955 72986
L78039 72986
L78095 73014
L78123 73042
L78151 73099
L78151 73267
L78123 73323
L78095 73352
L78039 73380
L77955 73380
" />
<path d="M78404 73380
L78404 72986
" />
<path d="M78404 73099
L78433 73042
L78461 73014
L78517 72986
L78573 72986
" />
<path d="M78995 73352
L78939 73380
L78826 73380
L78770 73352
L78742 73295
L78742 73070
L78770 73014
L78826 72986
L78939 72986
L78995 73014
L79023 73070
L79023 73127
L78742 73183
" />
<path d="M79276 73323
L79304 73352
L79276 73380
L79248 73352
L79276 73323
L79276 73380
" />
<path d="M79557 73380
L79557 72789
" />
<path d="M79614 73155
L79782 73380
" />
<path d="M79782 72986
L79557 73211
" />
<path d="M80036 73380
L80036 72986
" />
<path d="M80036 72789
L80007 72817
L80036 72845
L80064 72817
L80036 72789
L80036 72845
" />
<path d="M80570 73352
L80514 73380
L80401 73380
L80345 73352
L80317 73323
L80289 73267
L80289 73099
L80317 73042
L80345 73014
L80401 72986
L80514 72986
L80570 73014
" />
<path d="M81076 73380
L81076 73070
L81048 73014
L80992 72986
L80879 72986
L80823 73014
" />
<path d="M81076 73352
L81020 73380
L80879 73380
L80823 73352
L80795 73295
L80795 73239
L80823 73183
L80879 73155
L81020 73155
L81076 73127
" />
<path d="M81610 73380
L81610 72789
" />
<path d="M81610 73352
L81554 73380
L81442 73380
L81385 73352
L81357 73323
L81329 73267
L81329 73099
L81357 73042
L81385 73014
L81442 72986
L81554 72986
L81610 73014
" />
<path d="M81751 73436
L82201 73436
" />
<path d="M82341 72986
L82341 73577
" />
<path d="M82341 73014
L82398 72986
L82510 72986
L82566 73014
L82595 73042
L82623 73099
L82623 73267
L82595 73323
L82566 73352
L82510 73380
L82398 73380
L82341 73352
" />
<path d="M83129 73352
L83073 73380
L82960 73380
L82904 73352
L82876 73323
L82848 73267
L82848 73099
L82876 73042
L82904 73014
L82960 72986
L83073 72986
L83129 73014
" />
<path d="M83382 73380
L83382 72789
" />
<path d="M83382 73014
L83438 72986
L83551 72986
L83607 73014
L83635 73042
L83663 73099
L83663 73267
L83635 73323
L83607 73352
L83551 73380
L83438 73380
L83382 73352
" />
</g></g>
<g style="fill:#000000; fill-opacity:0.0; 
stroke:#000000; stroke-width:39.3701; stroke-opacity:1; 
stroke-linecap:round; stroke-linejoin:round;">
</g>
<g style="fill:#000000; fill-opacity:0.0; 
stroke:#000000; stroke-width:59.0551; stroke-opacity:1; 
stroke-linecap:round; stroke-linejoin:round;">
<path d="M69685 71459
L112205 71459
" />
</g>
<g style="fill:#000000; fill-opacity:0.0; 
stroke:#000000; stroke-width:39.3701; stroke-opacity:1; 
stroke-linecap:round; stroke-linejoin:round;">
</g>
<g style="fill:#000000; fill-opacity:0.0; 
stroke:#000000; stroke-width:59.0551; stroke-opacity:1; 
stroke-linecap:round; stroke-linejoin:round;">
<text x="70079.6" y="72345.4"
textLength="3236.78" font-size="787.402" lengthAdjust="spacingAndGlyphs"
text-anchor="start" opacity="0">Sheet: </text>
<g class="stroked-text"><desc>Sheet: </desc>
<path d="M70221 72289
L70305 72317
L70446 72317
L70502 72289
L70530 72260
L70559 72204
L70559 72148
L70530 72092
L70502 72064
L70446 72036
L70334 72007
L70277 71979
L70249 71951
L70221 71895
L70221 71839
L70249 71782
L70277 71754
L70334 71726
L70474 71726
L70559 71754
" />
<path d="M70812 72317
L70812 71726
" />
<path d="M71065 72317
L71065 72007
L71037 71951
L70980 71923
L70896 71923
L70840 71951
L70812 71979
" />
<path d="M71571 72289
L71515 72317
L71402 72317
L71346 72289
L71318 72232
L71318 72007
L71346 71951
L71402 71923
L71515 71923
L71571 71951
L71599 72007
L71599 72064
L71318 72120
" />
<path d="M72077 72289
L72021 72317
L71908 72317
L71852 72289
L71824 72232
L71824 72007
L71852 71951
L71908 71923
L72021 71923
L72077 71951
L72105 72007
L72105 72064
L71824 72120
" />
<path d="M72274 71923
L72499 71923
" />
<path d="M72358 71726
L72358 72232
L72386 72289
L72443 72317
L72499 72317
" />
<path d="M72696 72260
L72724 72289
L72696 72317
L72668 72289
L72696 72260
L72696 72317
" />
<path d="M72696 71951
L72724 71979
L72696 72007
L72668 71979
L72696 71951
L72696 72007
" />
</g></g>
<g style="fill:#000000; fill-opacity:0.0; 
stroke:#000000; stroke-width:39.3701; stroke-opacity:1; 
stroke-linecap:round; stroke-linejoin:round;">
</g>
<g style="fill:#000000; fill-opacity:0.0; 
stroke:#000000; stroke-width:118.11; stroke-opacity:1; 
stroke-linecap:round; stroke-linejoin:round;">
<text x="70079.6" y="71164.3"
textLength="59.0551" font-size="787.402" lengthAdjust="spacingAndGlyphs"
text-anchor="start" opacity="0"></text>
<g class="stroked-text"><desc></desc>
</g></g>
<g style="fill:#000000; fill-opacity:0.0; 
stroke:#000000; stroke-width:39.3701; stroke-opacity:1; 
stroke-linecap:round; stroke-linejoin:round;">
</g>
<g style="fill:#000000; fill-opacity:0.0; 
stroke:#000000; stroke-width:59.0551; stroke-opacity:1; 
stroke-linecap:round; stroke-linejoin:round;">
<text x="70079.6" y="69983.1"
textLength="118.11" font-size="787.402" lengthAdjust="spacingAndGlyphs"
text-anchor="start" opacity="0"></text>
<g class="stroked-text"><desc></desc>
</g></g>
<g style="fill:#000000; fill-opacity:0.0; 
stroke:#000000; stroke-width:39.3701; stroke-opacity:1; 
stroke-linecap:round; stroke-linejoin:round;">
</g>
<g style="fill:#000000; fill-opacity:0.0; 
stroke:#000000; stroke-width:59.0551; stroke-opacity:1; 
stroke-linecap:round; stroke-linejoin:round;">
<text x="70079.6" y="68802"
textLength="59.0551" font-size="787.402" lengthAdjust="spacingAndGlyphs"
text-anchor="start" opacity="0"></text>
<g class="stroked-text"><desc></desc>
</g></g>
<g style="fill:#000000; fill-opacity:0.0; 
stroke:#000000; stroke-width:39.3701; stroke-opacity:1; 
stroke-linecap:round; stroke-linejoin:round;">
</g>
<g style="fill:#000000; fill-opacity:0.0; 
stroke:#000000; stroke-width:59.0551; stroke-opacity:1; 
stroke-linecap:round; stroke-linejoin:round;">
<text x="70079.6" y="67620.9"
textLength="59.0551" font-size="787.402" lengthAdjust="spacingAndGlyphs"
text-anchor="start" opacity="0"></text>
<g class="stroked-text"><desc></desc>
</g></g>
<g style="fill:#000000; fill-opacity:0.0; 
stroke:#000000; stroke-width:39.3701; stroke-opacity:1; 
stroke-linecap:round; stroke-linejoin:round;">
</g>
<g style="fill:#000000; fill-opacity:0.0; 
stroke:#000000; stroke-width:59.0551; stroke-opacity:1; 
stroke-linecap:round; stroke-linejoin:round;">
<text x="70079.6" y="66439.8"
textLength="59.0551" font-size="787.402" lengthAdjust="spacingAndGlyphs"
text-anchor="start" opacity="0"></text>
<g class="stroked-text"><desc></desc>
</g></g>
<g style="fill:#000000; fill-opacity:0.0; 
stroke:#000000; stroke-width:39.3701; stroke-opacity:1; 
stroke-linecap:round; stroke-linejoin:round;">
</g>
<g style="fill:#000000; fill-opacity:0.0; 
stroke:#000000; stroke-width:59.0551; stroke-opacity:1; 
stroke-linecap:round; stroke-linejoin:round;">
<path d="M77559 75396
L77559 76577
" />
</g>
<g style="fill:#000000; fill-opacity:0.0; 
stroke:#000000; stroke-width:39.3701; stroke-opacity:1; 
stroke-linecap:round; stroke-linejoin:round;">
</g>
<g style="fill:#000000; fill-opacity:0.0; 
stroke:#000000; stroke-width:59.0551; stroke-opacity:1; 
stroke-linecap:round; stroke-linejoin:round;">
<path d="M102756 75396
L102756 77955
" />
</g>
<g style="fill:#C2C2C2; fill-opacity:0.0; 
stroke:#C2C2C2; stroke-width:59.0551; stroke-opacity:1; 
stroke-linecap:round; stroke-linejoin:round;">
</g>
<g style="fill:#C2C2C2; fill-opacity:0.0; 
stroke:#C2C2C2; stroke-width:19.685; stroke-opacity:1; 
stroke-linecap:round; stroke-linejoin:round;">
<path d="M80551 26409
L80551 25834
" />
<path d="M80551 25834
L81850 25834
" />
<path d="M81850 25834
L81850 26409
" />
<path d="M81850 26409
L80551 26409
" />
<path d="M80039 35814
L80039 36389
" />
<path d="M80039 36389
L78740 36389
" />
<path d="M78740 36389
L78740 35814
" />
<path d="M78740 35814
L80039 35814
" />
<path d="M92647 24043
L92647 24618
" />
<path d="M92647 24618
L91348 24618
" />
<path d="M91348 24618
L91348 24043
" />
<path d="M91348 24043
L92647 24043
" />
<path d="M91366 25423
L91940 25423
" />
<path d="M91940 25423
L91940 26722
" />
<path d="M91940 26722
L91366 26722
" />
<path d="M91366 26722
L91366 25423
" />
<path d="M95913 17076
L96488 17076
" />
<path d="M96488 17076
L96488 18375
" />
<path d="M96488 18375
L95913 18375
" />
<path d="M95913 18375
L95913 17076
" />
<path d="M95807 16417
L95807 18543
" />
<path d="M95807 18543
L94429 18543
" />
<path d="M94429 18543
L94429 16417
" />
<path d="M94429 16417
L95807 16417
" />
<path d="M91259 24763
L91259 26889
" />
<path d="M91259 26889
L89881 26889
" />
<path d="M89881 26889
L89881 24763
" />
<path d="M89881 24763
L91259 24763
" />
<path d="M97937 25216
L97460 25692
" />
<path d="M97460 25692
L96043 25692
" />
<path d="M96043 25692
L95566 25216
" />
<path d="M95566 25216
L95566 23799
" />
<path d="M95566 23799
L96043 23322
" />
<path d="M96043 23322
L97460 23322
" />
<path d="M97460 23322
L97937 23799
" />
<path d="M97937 23799
L97937 25216
" />
<path d="M94291 30905
L94291 29921
" />
<path d="M94291 29921
L93838 29921
" />
<path d="M93838 29921
L93838 29094
" />
<path d="M93838 29094
L94291 29094
" />
<path d="M94291 29094
L94291 28110
" />
<path d="M96633 28110
L94291 28110
" />
<path d="M96633 30905
L94291 30905
" />
<path d="M97086 28562
L96633 28110
" />
<path d="M97086 30452
L96633 30905
" />
<path d="M97086 30452
L97086 29921
" />
<path d="M97086 29094
L97086 28562
" />
<path d="M97086 29921
L97539 29921
" />
<path d="M97539 29921
L97539 29094
" />
<path d="M97539 29094
L97086 29094
" />
<path d="M89901 23838
L89901 22854
" />
<path d="M89901 22854
L89448 22854
" />
<path d="M89448 22854
L89448 22027
" />
<path d="M89448 22027
L89901 22027
" />
<path d="M89901 22027
L89901 21043
" />
<path d="M92244 21043
L89901 21043
" />
<path d="M92244 23838
L89901 23838
" />
<path d="M92696 21496
L92244 21043
" />
<path d="M92696 23385
L92244 23838
" />
<path d="M92696 23385
L92696 22854
" />
<path d="M92696 22027
L92696 21496
" />
<path d="M92696 22854
L93149 22854
" />
<path d="M93149 22854
L93149 22027
" />
<path d="M93149 22027
L92696 22027
" />
<path d="M97204 12814
L97204 13799
" />
<path d="M97204 13799
L97657 13799
" />
<path d="M97657 13799
L97657 14625
" />
<path d="M97657 14625
L97204 14625
" />
<path d="M97204 14625
L97204 15610
" />
<path d="M94862 15610
L97204 15610
" />
<path d="M94862 12814
L97204 12814
" />
<path d="M94409 15157
L94862 15610
" />
<path d="M94409 13267
L94862 12814
" />
<path d="M94409 13267
L94409 13799
" />
<path d="M94409 14625
L94409 15157
" />
<path d="M94409 13799
L93956 13799
" />
<path d="M93956 13799
L93956 14625
" />
<path d="M93956 14625
L94409 14625
" />
<path d="M90255 29822
L90255 28838
" />
<path d="M90255 28838
L89803 28838
" />
<path d="M89803 28838
L89803 28011
" />
<path d="M89803 28011
L90255 28011
" />
<path d="M90255 28011
L90255 27027
" />
<path d="M92598 27027
L90255 27027
" />
<path d="M92598 29822
L90255 29822
" />
<path d="M93051 27480
L92598 27027
" />
<path d="M93051 29370
L92598 29822
" />
<path d="M93051 29370
L93051 28838
" />
<path d="M93051 28011
L93051 27480
" />
<path d="M93051 28838
L93503 28838
" />
<path d="M93503 28838
L93503 28011
" />
<path d="M93503 28011
L93051 28011
" />
<path d="M96633 19685
L96633 20669
" />
<path d="M96633 20669
L97086 20669
" />
<path d="M97086 20669
L97086 21496
" />
<path d="M97086 21496
L96633 21496
" />
<path d="M96633 21496
L96633 22480
" />
<path d="M94291 22480
L96633 22480
" />
<path d="M94291 19685
L96633 19685
" />
<path d="M93838 22027
L94291 22480
" />
<path d="M93838 20137
L94291 19685
" />
<path d="M93838 20137
L93838 20669
" />
<path d="M93838 21496
L93838 22027
" />
<path d="M93838 20669
L93385 20669
" />
<path d="M93385 20669
L93385 21496
" />
<path d="M93385 21496
L93838 21496
" />
<path d="M94793 28011
L94793 27263
" />
<path d="M94793 27263
L96250 27263
" />
<path d="M96250 27263
L96250 28011
" />
<path d="M96250 28011
L94793 28011
" />
<path d="M96687 18692
L96687 19574
" />
<path d="M96687 19574
L94758 19574
" />
<path d="M94758 19574
L94758 18692
" />
<path d="M94758 18692
L96687 18692
" />
<path d="M94744 25738
L95492 25738
" />
<path d="M95492 25738
L95492 27194
" />
<path d="M95492 27194
L94744 27194
" />
<path d="M94744 27194
L94744 25738
" />
<path d="M94606 24192
L93346 24192
" />
<path d="M93346 24192
L93346 23444
" />
<path d="M94606 23444
L93346 23444
" />
<path d="M94606 24192
L94606 23444
" />
<path d="M93346 22618
L94606 22618
" />
<path d="M94606 22618
L94606 23366
" />
<path d="M93346 23366
L94606 23366
" />
<path d="M93346 22618
L93346 23366
" />
<path d="M94744 24842
L94744 23582
" />
<path d="M94744 23582
L95492 23582
" />
<path d="M95492 24842
L95492 23582
" />
<path d="M94744 24842
L95492 24842
" />
<path d="M89891 24618
L89891 24043
" />
<path d="M89891 24043
L91190 24043
" />
<path d="M91190 24043
L91190 24618
" />
<path d="M91190 24618
L89891 24618
" />
<path d="M91348 25366
L91348 24791
" />
<path d="M91348 24791
L92647 24791
" />
<path d="M92647 24791
L92647 25366
" />
<path d="M92647 25366
L91348 25366
" />
<path d="M94557 24299
L94557 24874
" />
<path d="M94557 24874
L93257 24874
" />
<path d="M93257 24874
L93257 24299
" />
<path d="M93257 24299
L94557 24299
" />
<path d="M94675 23279
L94675 22704
" />
<path d="M94675 22704
L95974 22704
" />
<path d="M95974 22704
L95974 23279
" />
<path d="M95974 23279
L94675 23279
" />
<path d="M94438 16311
L94438 15736
" />
<path d="M94438 15736
L95738 15736
" />
<path d="M95738 15736
L95738 16311
" />
<path d="M95738 16311
L94438 16311
" />
<path d="M95895 16980
L95895 16405
" />
<path d="M95895 16405
L97194 16405
" />
<path d="M97194 16405
L97194 16980
" />
<path d="M97194 16980
L95895 16980
" />
<path d="M95423 24988
L95423 25562
" />
<path d="M95423 25562
L94124 25562
" />
<path d="M94124 25562
L94124 24988
" />
<path d="M94124 24988
L95423 24988
" />
<path d="M96437 27925
L96437 27350
" />
<path d="M96437 27350
L97736 27350
" />
<path d="M97736 27350
L97736 27925
" />
<path d="M97736 27925
L96437 27925
" />
<path d="M69409 38700
L71456 38700
" />
<path d="M71456 38700
L71456 33346
" />
<path d="M71456 33346
L69409 33346
" />
<path d="M69409 33346
L69409 38700
" />
<path d="M88366 36358
L86318 36358
" />
<path d="M86318 36358
L86318 41712
" />
<path d="M86318 41712
L88366 41712
" />
<path d="M88366 41712
L88366 36358
" />
<path d="M89881 35155
L89881 39289
" />
<path d="M92795 35155
L92795 39289
" />
<path d="M89881 35155
L92795 35155
" />
<path d="M89881 39289
L92795 39289
" />
<path d="M89393 39944
L89393 43169
" />
<path d="M89393 43169
L93287 43169
" />
<path d="M93287 43169
L93287 39944
" />
<path d="M93287 39944
L89393 39944
" />
<path d="M88728 38887
L89303 38887
" />
<path d="M89303 38887
L89303 40187
" />
<path d="M89303 40187
L88728 40187
" />
<path d="M88728 40187
L88728 38887
" />
<path d="M89303 38838
L88728 38838
" />
<path d="M88728 38838
L88728 37539
" />
<path d="M88728 37539
L89303 37539
" />
<path d="M89303 37539
L89303 38838
" />
<path d="M89822 36681
L89822 37255
" />
<path d="M89822 37255
L88523 37255
" />
<path d="M88523 37255
L88523 36681
" />
<path d="M88523 36681
L89822 36681
" />
<path d="M94153 35185
L94153 35759
" />
<path d="M94153 35759
L92854 35759
" />
<path d="M92854 35759
L92854 35185
" />
<path d="M92854 35185
L94153 35185
" />
<path d="M89311 21562
L89311 22137
" />
<path d="M89311 22137
L88011 22137
" />
<path d="M88011 22137
L88011 21562
" />
<path d="M88011 21562
L89311 21562
" />
<path d="M87846 29478
L87271 29478
" />
<path d="M87271 29478
L87271 28179
" />
<path d="M87271 28179
L87846 28179
" />
<path d="M87846 28179
L87846 29478
" />
<path d="M88572 27547
L88572 28122
" />
<path d="M88572 28122
L87273 28122
" />
<path d="M87273 28122
L87273 27547
" />
<path d="M87273 27547
L88572 27547
" />
<path d="M88728 28179
L89303 28179
" />
<path d="M89303 28179
L89303 29478
" />
<path d="M89303 29478
L88728 29478
" />
<path d="M88728 29478
L88728 28179
" />
<path d="M83003 25620
L82429 25620
" />
<path d="M82429 25620
L82429 24320
" />
<path d="M82429 24320
L83003 24320
" />
<path d="M83003 24320
L83003 25620
" />
<path d="M83732 19330
L83157 19330
" />
<path d="M83157 19330
L83157 18031
" />
<path d="M83157 18031
L83732 18031
" />
<path d="M83732 18031
L83732 19330
" />
<path d="M84094 19192
L84094 18169
" />
<path d="M84094 19192
L85551 19192
" />
<path d="M85551 18169
L84094 18169
" />
<path d="M85551 18169
L85551 19192
" />
<path d="M91082 14015
L91082 15039
" />
<path d="M91082 14015
L89625 14015
" />
<path d="M89625 15039
L91082 15039
" />
<path d="M89625 15039
L89625 14015
" />
<path d="M88031 14015
L88031 15039
" />
<path d="M88031 14015
L86574 14015
" />
<path d="M86574 15039
L88031 15039
" />
<path d="M86574 15039
L86574 14015
" />
<path d="M80255 19173
L80255 18149
" />
<path d="M80255 19173
L81712 19173
" />
<path d="M81712 18149
L80255 18149
" />
<path d="M81712 18149
L81712 19173
" />
<path d="M82913 13444
L81889 13444
" />
<path d="M82913 13444
L82913 11988
" />
<path d="M81889 11988
L81889 13444
" />
<path d="M81889 11988
L82913 11988
" />
<path d="M76358 15826
L77381 15826
" />
<path d="M76358 15826
L76358 17283
" />
<path d="M77381 17283
L77381 15826
" />
<path d="M77381 17283
L76358 17283
" />
<path d="M76358 13543
L77381 13543
" />
<path d="M76358 13543
L76358 15000
" />
<path d="M77381 15000
L77381 13543
" />
<path d="M77381 15000
L76358 15000
" />
<path d="M76358 11988
L77381 11988
" />
<path d="M76358 11988
L76358 13444
" />
<path d="M77381 13444
L77381 11988
" />
<path d="M77381 13444
L76358 13444
" />
<path d="M85917 24911
L85342 24911
" />
<path d="M85342 24911
L85342 23612
" />
<path d="M85342 23612
L85917 23612
" />
<path d="M85917 23612
L85917 24911
" />
<path d="M83600 15484
L83600 15854
" />
<path d="M83600 15854
L82868 15854
" />
<path d="M82868 15854
L82868 15484
" />
<path d="M82868 15484
L83600 15484
" />
<path d="M85500 15854
L85500 15484
" />
<path d="M85500 15484
L86232 15484
" />
<path d="M86232 15484
L86232 15854
" />
<path d="M86232 15854
L85500 15854
" />
<path d="M77964 17907
L78334 17907
" />
<path d="M78334 17907
L78334 18639
" />
<path d="M78334 18639
L77964 18639
" />
<path d="M77964 18639
L77964 17907
" />
<path d="M83051 13492
L83051 14066
" />
<path d="M83051 14066
L81751 14066
" />
<path d="M81751 14066
L81751 13492
" />
<path d="M81751 13492
L83051 13492
" />
<path d="M89696 15657
L88964 15657
" />
<path d="M89696 15287
L89696 15657
" />
<path d="M88964 15287
L89696 15287
" />
<path d="M88964 15657
L88964 15287
" />
<path d="M87137 18116
L87137 17383
" />
<path d="M87507 18116
L87137 18116
" />
<path d="M87507 17383
L87507 18116
" />
<path d="M87137 17383
L87507 17383
" />
<path d="M87498 16976
L86765 16976
" />
<path d="M87498 16606
L87498 16976
" />
<path d="M86765 16606
L87498 16606
" />
<path d="M86765 16976
L86765 16606
" />
<path d="M81484 16435
L81114 16435
" />
<path d="M81114 16435
L81114 15702
" />
<path d="M81114 15702
L81484 15702
" />
<path d="M81484 15702
L81484 16435
" />
<path d="M81090 16435
L80720 16435
" />
<path d="M80720 16435
L80720 15702
" />
<path d="M80720 15702
L81090 15702
" />
<path d="M81090 15702
L81090 16435
" />
<path d="M86299 20137
L86299 20767
" />
<path d="M86299 20767
L85118 20767
" />
<path d="M85118 20767
L85118 20137
" />
<path d="M85118 20137
L86299 20137
" />
<path d="M81968 19311
L82598 19311
" />
<path d="M82598 19311
L82598 20492
" />
<path d="M82598 20492
L81968 20492
" />
<path d="M81968 20492
L81968 19311
" />
<circle cx="99448.8" cy="40925.2" r="1358.27" /> 
<circle cx="99448.8" cy="13779.5" r="1358.27" /> 
<circle cx="68110.2" cy="40925.2" r="1358.27" /> 
<circle cx="68110.2" cy="13779.5" r="1358.27" /> 
<path d="M92080 19066
L94206 19066
" />
<path d="M92080 16129
L94206 16129
" />
<path d="M92080 19066
L92080 16129
" />
<path d="M94206 19066
L94206 16129
" />
<path d="M91562 17958
L91192 17958
" />
<path d="M91192 17958
L91192 17226
" />
<path d="M91192 17226
L91562 17226
" />
<path d="M91562 17226
L91562 17958
" />
<path d="M91192 16360
L91562 16360
" />
<path d="M91562 16360
L91562 17092
" />
<path d="M91562 17092
L91192 17092
" />
<path d="M91192 17092
L91192 16360
" />
<path d="M86824 15795
L86824 15425
" />
<path d="M86824 15425
L87557 15425
" />
<path d="M87557 15425
L87557 15795
" />
<path d="M87557 15795
L86824 15795
" />
<path d="M87938 15858
L87938 16228
" />
<path d="M87938 16228
L87206 16228
" />
<path d="M87206 16228
L87206 15858
" />
<path d="M87206 15858
L87938 15858
" />
<path d="M87498 17350
L86765 17350
" />
<path d="M87498 16980
L87498 17350
" />
<path d="M86765 16980
L87498 16980
" />
<path d="M86765 17350
L86765 16980
" />
<path d="M85702 17232
L85702 16862
" />
<path d="M85702 16862
L86435 16862
" />
<path d="M86435 16862
L86435 17232
" />
<path d="M86435 17232
L85702 17232
" />
<path d="M95586 25826
L97917 25826
" />
<path d="M95586 25826
L95586 27165
" />
<path d="M97917 27165
L97917 25826
" />
<path d="M97917 27165
L95586 27165
" />
<path d="M86226 14854
L86226 15224
" />
<path d="M86226 15224
L85494 15224
" />
<path d="M85494 15224
L85494 14854
" />
<path d="M85494 14854
L86226 14854
" />
<path d="M69261 18287
L69261 19035
" />
<path d="M69261 19035
L67805 19035
" />
<path d="M67805 19035
L67805 18287
" />
<path d="M67805 18287
L69261 18287
" />
<path d="M69261 15492
L69261 16240
" />
<path d="M69261 16240
L67805 16240
" />
<path d="M67805 16240
L67805 15492
" />
<path d="M67805 15492
L69261 15492
" />
<path d="M70098 19812
L69350 19812
" />
<path d="M69350 19812
L69350 18356
" />
<path d="M69350 18356
L70098 18356
" />
<path d="M70098 18356
L70098 19812
" />
<path d="M70098 17017
L69350 17017
" />
<path d="M69350 17017
L69350 15561
" />
<path d="M69350 15561
L70098 15561
" />
<path d="M70098 15561
L70098 17017
" />
<path d="M88019 17856
L90956 17856
" />
<path d="M88019 15730
L90956 15730
" />
<path d="M90956 15730
L90956 17856
" />
<path d="M88019 15730
L88019 17856
" />
<path d="M88712 23828
L88137 23828
" />
<path d="M88137 23828
L88137 22529
" />
<path d="M88137 22529
L88712 22529
" />
<path d="M88712 22529
L88712 23828
" />
<path d="M88712 25246
L88137 25246
" />
<path d="M88137 25246
L88137 23946
" />
<path d="M88137 23946
L88712 23946
" />
<path d="M88712 23946
L88712 25246
" />
<path d="M88712 26702
L88137 26702
" />
<path d="M88137 26702
L88137 25403
" />
<path d="M88137 25403
L88712 25403
" />
<path d="M88712 25403
L88712 26702
" />
<path d="M81783 35177
L81208 35177
" />
<path d="M81208 35177
L81208 33877
" />
<path d="M81208 33877
L81783 33877
" />
<path d="M81783 33877
L81783 35177
" />
<path d="M92606 14084
L93181 14084
" />
<path d="M93181 14084
L93181 15383
" />
<path d="M93181 15383
L92606 15383
" />
<path d="M92606 15383
L92606 14084
" />
<path d="M86547 18631
L85972 18631
" />
<path d="M85972 18631
L85972 17332
" />
<path d="M85972 17332
L86547 17332
" />
<path d="M86547 17332
L86547 18631
" />
<path d="M80106 20169
L79736 20169
" />
<path d="M79736 20169
L79736 19437
" />
<path d="M79736 19437
L80106 19437
" />
<path d="M80106 19437
L80106 20169
" />
<path d="M81287 17222
L80917 17222
" />
<path d="M80917 17222
L80917 16490
" />
<path d="M80917 16490
L81287 16490
" />
<path d="M81287 16490
L81287 17222
" />
<path d="M81917 33877
L82492 33877
" />
<path d="M82492 33877
L82492 35177
" />
<path d="M82492 35177
L81917 35177
" />
<path d="M81917 35177
L81917 33877
" />
<path d="M83919 15224
L83919 14854
" />
<path d="M83919 14854
L84651 14854
" />
<path d="M84651 14854
L84651 15224
" />
<path d="M84651 15224
L83919 15224
" />
<path d="M78324 19460
L78324 19830
" />
<path d="M78324 19830
L77592 19830
" />
<path d="M77592 19830
L77592 19460
" />
<path d="M77592 19460
L78324 19460
" />
<path d="M80517 16862
L80517 17232
" />
<path d="M80517 17232
L79785 17232
" />
<path d="M79785 17232
L79785 16862
" />
<path d="M79785 16862
L80517 16862
" />
<path d="M79342 16872
L79712 16872
" />
<path d="M79712 16872
L79712 17604
" />
<path d="M79712 17604
L79342 17604
" />
<path d="M79342 17604
L79342 16872
" />
<path d="M82868 15224
L82868 14854
" />
<path d="M82868 14854
L83600 14854
" />
<path d="M83600 14854
L83600 15224
" />
<path d="M83600 15224
L82868 15224
" />
<path d="M73169 40366
L73169 39791
" />
<path d="M73169 39791
L74468 39791
" />
<path d="M74468 39791
L74468 40366
" />
<path d="M74468 40366
L73169 40366
" />
<path d="M77964 18683
L78334 18683
" />
<path d="M78334 18683
L78334 19415
" />
<path d="M78334 19415
L77964 19415
" />
<path d="M77964 19415
L77964 18683
" />
<path d="M86931 20464
L87663 20464
" />
<path d="M86931 20834
L86931 20464
" />
<path d="M87663 20834
L86931 20834
" />
<path d="M87663 20464
L87663 20834
" />
<path d="M86931 20070
L87663 20070
" />
<path d="M86931 20440
L86931 20070
" />
<path d="M87663 20440
L86931 20440
" />
<path d="M87663 20070
L87663 20440
" />
<path d="M81862 17816
L82232 17816
" />
<path d="M82232 17816
L82232 18549
" />
<path d="M82232 18549
L81862 18549
" />
<path d="M81862 18549
L81862 17816
" />
<path d="M82374 17822
L82744 17822
" />
<path d="M82744 17822
L82744 18555
" />
<path d="M82744 18555
L82374 18555
" />
<path d="M82374 18555
L82374 17822
" />
<path d="M86409 20818
L86409 20086
" />
<path d="M86779 20818
L86409 20818
" />
<path d="M86779 20086
L86779 20818
" />
<path d="M86409 20086
L86779 20086
" />
<path d="M82655 18870
L82655 19240
" />
<path d="M82655 19240
L81923 19240
" />
<path d="M81923 19240
L81923 18870
" />
<path d="M81923 18870
L82655 18870
" />
<path d="M80657 31043
L81232 31043
" />
<path d="M81232 31043
L81232 32342
" />
<path d="M81232 32342
L80657 32342
" />
<path d="M80657 32342
L80657 31043
" />
<path d="M88730 18807
L88730 19381
" />
<path d="M88730 19381
L87431 19381
" />
<path d="M87431 19381
L87431 18807
" />
<path d="M87431 18807
L88730 18807
" />
<path d="M91976 14084
L92551 14084
" />
<path d="M92551 14084
L92551 15383
" />
<path d="M92551 15383
L91976 15383
" />
<path d="M91976 15383
L91976 14084
" />
<path d="M73791 36417
L73216 36417
" />
<path d="M73216 36417
L73216 35118
" />
<path d="M73216 35118
L73791 35118
" />
<path d="M73791 35118
L73791 36417
" />
<path d="M78956 24303
L78956 23728
" />
<path d="M78956 23728
L80255 23728
" />
<path d="M80255 23728
L80255 24303
" />
<path d="M80255 24303
L78956 24303
" />
<path d="M78956 24933
L78956 24358
" />
<path d="M78956 24358
L80255 24358
" />
<path d="M80255 24358
L80255 24933
" />
<path d="M80255 24933
L78956 24933
" />
<path d="M77992 31385
L77992 31960
" />
<path d="M77992 31960
L76692 31960
" />
<path d="M76692 31960
L76692 31385
" />
<path d="M76692 31385
L77992 31385
" />
<path d="M88110 23897
L85984 23897
" />
<path d="M85984 23897
L85984 22519
" />
<path d="M85984 22519
L88110 22519
" />
<path d="M88110 22519
L88110 23897
" />
<path d="M88110 25314
L85984 25314
" />
<path d="M85984 25314
L85984 23937
" />
<path d="M85984 23937
L88110 23937
" />
<path d="M88110 23937
L88110 25314
" />
<path d="M88110 26771
L85984 26771
" />
<path d="M85984 26771
L85984 25393
" />
<path d="M85984 25393
L88110 25393
" />
<path d="M88110 25393
L88110 26771
" />
<path d="M84881 27145
L87007 27145
" />
<path d="M87007 27145
L87007 28523
" />
<path d="M87007 28523
L84881 28523
" />
<path d="M84881 28523
L84881 27145
" />
<path d="M84783 25826
L84783 27952
" />
<path d="M84783 27952
L83405 27952
" />
<path d="M83405 27952
L83405 25826
" />
<path d="M83405 25826
L84783 25826
" />
<path d="M85295 24980
L83090 24980
" />
<path d="M85295 24980
L85295 23562
" />
<path d="M83090 23562
L83090 24980
" />
<path d="M83090 23562
L85295 23562
" />
<path d="M83720 16732
L83720 15354
" />
<path d="M83720 16732
L85334 16732
" />
<path d="M85334 15354
L83720 15354
" />
<path d="M85334 15354
L85334 16732
" />
<path d="M85177 27047
L85177 25787
" />
<path d="M85177 25787
L85925 25787
" />
<path d="M85925 27047
L85925 25787
" />
<path d="M85177 27047
L85925 27047
" />
<path d="M85767 25728
L84507 25728
" />
<path d="M84507 25728
L84507 24980
" />
<path d="M85767 24980
L84507 24980
" />
<path d="M85767 25728
L85767 24980
" />
<path d="M81673 23484
L82933 23484
" />
<path d="M82933 23484
L82933 24232
" />
<path d="M81673 24232
L82933 24232
" />
<path d="M81673 23484
L81673 24232
" />
<path d="M85135 16862
L85135 17232
" />
<path d="M85135 17232
L84403 17232
" />
<path d="M84403 17232
L84403 16862
" />
<path d="M84403 16862
L85135 16862
" />
<path d="M83090 25602
L83090 25027
" />
<path d="M83090 25027
L84389 25027
" />
<path d="M84389 25027
L84389 25602
" />
<path d="M84389 25602
L83090 25602
" />
<path d="M85208 16872
L85578 16872
" />
<path d="M85578 16872
L85578 17604
" />
<path d="M85578 17604
L85208 17604
" />
<path d="M85208 17604
L85208 16872
" />
<path d="M83909 16872
L84279 16872
" />
<path d="M84279 16872
L84279 17604
" />
<path d="M84279 17604
L83909 17604
" />
<path d="M83909 17604
L83909 16872
" />
<path d="M76220 15700
L76220 15125
" />
<path d="M76220 15125
L77519 15125
" />
<path d="M77519 15125
L77519 15700
" />
<path d="M77519 15700
L76220 15700
" />
<path d="M92588 16015
L92588 15440
" />
<path d="M92588 15440
L93887 15440
" />
<path d="M93887 15440
L93887 16015
" />
<path d="M93887 16015
L92588 16015
" />
<path d="M90246 18771
L90246 18196
" />
<path d="M90246 18196
L91545 18196
" />
<path d="M91545 18196
L91545 18771
" />
<path d="M91545 18771
L90246 18771
" />
<path d="M77862 17984
L77492 17984
" />
<path d="M77492 17984
L77492 17251
" />
<path d="M77492 17251
L77862 17251
" />
<path d="M77862 17251
L77862 17984
" />
<path d="M88730 18177
L88730 18751
" />
<path d="M88730 18751
L87431 18751
" />
<path d="M87431 18751
L87431 18177
" />
<path d="M87431 18177
L88730 18177
" />
<path d="M91188 14625
L91763 14625
" />
<path d="M91763 14625
L91763 15925
" />
<path d="M91763 15925
L91188 15925
" />
<path d="M91188 15925
L91188 14625
" />
<path d="M72157 35826
L71582 35826
" />
<path d="M71582 35826
L71582 34527
" />
<path d="M71582 34527
L72157 34527
" />
<path d="M72157 34527
L72157 35826
" />
<path d="M71582 35866
L72157 35866
" />
<path d="M72157 35866
L72157 37165
" />
<path d="M72157 37165
L71582 37165
" />
<path d="M71582 37165
L71582 35866
" />
<path d="M72925 38671
L72350 38671
" />
<path d="M72350 38671
L72350 37372
" />
<path d="M72350 37372
L72925 37372
" />
<path d="M72925 37372
L72925 38671
" />
<path d="M77354 40826
L76779 40826
" />
<path d="M76779 40826
L76779 39527
" />
<path d="M76779 39527
L77354 39527
" />
<path d="M77354 39527
L77354 40826
" />
<path d="M73366 34893
L73366 34318
" />
<path d="M73366 34318
L74665 34318
" />
<path d="M74665 34318
L74665 34893
" />
<path d="M74665 34893
L73366 34893
" />
<path d="M79862 31385
L79862 31960
" />
<path d="M79862 31960
L78562 31960
" />
<path d="M78562 31960
L78562 31385
" />
<path d="M78562 31385
L79862 31385
" />
<path d="M77913 20354
L77913 22401
" />
<path d="M77913 22401
L79960 22401
" />
<path d="M79960 22401
L79960 20354
" />
<path d="M79960 20354
L77913 20354
" />
<path d="M74547 20551
L74547 22283
" />
<path d="M74547 22283
L76673 22283
" />
<path d="M76673 22283
L76673 20551
" />
<path d="M76673 20551
L74547 20551
" />
<path d="M80216 25039
L80216 26456
" />
<path d="M78326 25039
L80216 25039
" />
<path d="M78326 26456
L78326 25039
" />
<path d="M80216 26456
L78326 26456
" />
<path d="M78405 19389
L80059 19389
" />
<path d="M80059 19389
L80059 17736
" />
<path d="M80059 17736
L78405 17736
" />
<path d="M78405 17736
L78405 19389
" />
<path d="M88976 18003
L88976 19893
" />
<path d="M88976 19893
L90078 19893
" />
<path d="M90078 18003
L88976 18003
" />
<path d="M90078 18003
L90078 19893
" />
<path d="M81614 16496
L83503 16496
" />
<path d="M81614 16496
L81614 17598
" />
<path d="M83503 17598
L83503 16496
" />
<path d="M81614 17598
L83503 17598
" />
<path d="M73661 23818
L70196 23818
" />
<path d="M73661 26653
L73661 23818
" />
<path d="M70196 26653
L73661 26653
" />
<path d="M70196 23818
L70196 26653
" />
<path d="M73661 18149
L70196 18149
" />
<path d="M73661 20984
L73661 18149
" />
<path d="M70196 20984
L73661 20984
" />
<path d="M70196 18149
L70196 20984
" />
<path d="M73661 15314
L70196 15314
" />
<path d="M73661 18149
L73661 15314
" />
<path d="M70196 18149
L73661 18149
" />
<path d="M70196 15314
L70196 18149
" />
<path d="M73661 20984
L70196 20984
" />
<path d="M73661 23818
L73661 20984
" />
<path d="M70196 23818
L73661 23818
" />
<path d="M70196 20984
L70196 23818
" />
<path d="M73917 35118
L73917 39251
" />
<path d="M78051 35118
L78051 39251
" />
<path d="M73917 35118
L78051 35118
" />
<path d="M73917 39251
L78051 39251
" />
<path d="M90216 32066
L86751 32066
" />
<path d="M90216 34901
L90216 32066
" />
<path d="M86751 34901
L90216 34901
" />
<path d="M86751 32066
L86751 34901
" />
<path d="M76574 28897
L79921 28897
" />
<path d="M79921 28897
L79921 31259
" />
<path d="M79921 31259
L76574 31259
" />
<path d="M76574 31259
L76574 28897
" />
<path d="M81925 14657
L81925 7964
" />
<path d="M81925 14657
L77129 14657
" />
<path d="M77129 7964
L77129 14657
" />
<path d="M81925 7964
L77129 7964
" />
<path d="M80767 34980
L80767 32066
" />
<path d="M80767 32066
L77381 32066
" />
<path d="M77381 32066
L77381 34980
" />
<path d="M77381 34980
L80767 34980
" />
<path d="M69350 24104
L70098 24104
" />
<path d="M70098 24104
L70098 25561
" />
<path d="M70098 25561
L69350 25561
" />
<path d="M69350 25561
L69350 24104
" />
<path d="M67805 26515
L67805 25767
" />
<path d="M67805 25767
L69261 25767
" />
<path d="M69261 25767
L69261 26515
" />
<path d="M69261 26515
L67805 26515
" />
<path d="M67805 19940
L67805 19192
" />
<path d="M67805 19192
L69261 19192
" />
<path d="M69261 19192
L69261 19940
" />
<path d="M69261 19940
L67805 19940
" />
<path d="M67805 20846
L67805 20098
" />
<path d="M67805 20098
L69261 20098
" />
<path d="M69261 20098
L69261 20846
" />
<path d="M69261 20846
L67805 20846
" />
<path d="M67805 17106
L67805 16358
" />
<path d="M67805 16358
L69261 16358
" />
<path d="M69261 16358
L69261 17106
" />
<path d="M69261 17106
L67805 17106
" />
<path d="M67805 18011
L67805 17263
" />
<path d="M67805 17263
L69261 17263
" />
<path d="M69261 17263
L69261 18011
" />
<path d="M69261 18011
L67805 18011
" />
<path d="M69350 21269
L70098 21269
" />
<path d="M70098 21269
L70098 22726
" />
<path d="M70098 22726
L69350 22726
" />
<path d="M69350 22726
L69350 21269
" />
<path d="M67805 23681
L67805 22933
" />
<path d="M67805 22933
L69261 22933
" />
<path d="M69261 22933
L69261 23681
" />
<path d="M69261 23681
L67805 23681
" />
<path d="M85206 33858
L85206 33110
" />
<path d="M85206 33110
L86663 33110
" />
<path d="M86663 33110
L86663 33858
" />
<path d="M86663 33858
L85206 33858
" />
<path d="M85206 34763
L85206 34015
" />
<path d="M85206 34015
L86663 34015
" />
<path d="M86663 34015
L86663 34763
" />
<path d="M86663 34763
L85206 34763
" />
<g >
</g>
<g >
</g>
<g >
</g>
<g >
</g>
<g >
</g>
<g >
</g>
<g >
</g>
<g >
</g>
<g >
</g>
<g >
</g>
<g >
</g>
<g >
</g>
<g >
</g>
<g >
</g>
<g >
</g>
<g >
</g>
<g >
</g>
<g >
</g>
<g >
</g>
<g >
</g>
<g >
</g>
<g >
</g>
<g >
</g>
<g >
</g>
<g >
</g>
<g >
</g>
<g >
</g>
<g >
</g>
<g >
</g>
<g >
</g>
<g >
</g>
<g >
</g>
<g >
</g>
<g >
</g>
<g >
</g>
<g >
</g>
<g >
</g>
<g >
</g>
<g >
</g>
<g >
</g>
<g >
</g>
<g >
</g>
<g >
</g>
<g >
</g>
<g >
</g>
<g >
</g>
<g >
</g>
<g >
</g>
<g >
</g>
<g >
</g>
<g >
</g>
<g >
</g>
<g >
</g>
<g >
</g>
<g >
</g>
<g >
</g>
<g >
</g>
<g >
</g>
<g >
</g>
<g >
</g>
<g >
</g>
<g >
</g>
<g >
</g>
<g >
</g>
<g >
</g>
<g >
</g>
<g >
</g>
<g >
</g>
<g >
</g>
<g >
</g>
<g >
</g>
<g >
</g>
<g >
</g>
<g >
</g>
<g >
</g>
<g >
</g>
<g >
</g>
<g >
</g>
<g >
</g>
<g >
</g>
<g >
</g>
<g >
</g>
<g >
</g>
<g >
</g>
<g >
</g>
<g >
</g>
<g >
</g>
<g >
</g>
<g >
</g>
<g >
</g>
<g >
</g>
<g >
</g>
<g >
</g>
<g >
</g>
<g >
</g>
<g >
</g>
<g >
</g>
<g >
</g>
<g >
</g>
<g >
</g>
<g >
</g>
<g >
</g>
<g >
</g>
<g >
</g>
<g >
</g>
<g >
</g>
<g >
</g>
<g >
</g>
<g >
</g>
<g >
</g>
<g >
</g>
<g >
</g>
<g >
</g>
<g >
</g>
<g >
</g>
<g >
</g>
<g >
</g>
<g >
</g>
<g >
</g>
<g >
</g>
<g >
</g>
<g >
</g>
<g >
</g>
<g >
</g>
<g >
</g>
<g >
</g>
<g >
</g>
<g >
</g>
<g >
</g>
<g >
</g>
<g >
</g>
<g >
</g>
<g >
</g>
<g >
</g>
<g >
</g>
<g >
</g>
<g >
</g>
<g >
</g>
<g >
</g>
<g >
</g>
<g >
</g>
<g >
</g>
<g >
</g>
<g >
</g>
<g >
</g>
<g >
</g>
<g >
</g>
<g >
</g>
<g >
</g>
<g >
</g>
<g >
</g>
<g >
</g>
<g >
</g>
<g >
</g>
<g >
</g>
<g >
</g>
<g >
</g>
<g >
</g>
<g >
</g>
<g >
</g>
<g >
</g>
<g >
</g>
<g >
</g>
<g >
</g>
<g >
</g>
<g >
</g>
<g >
</g>
<g >
</g>
<g >
</g>
<g >
</g>
<g >
</g>
<g >
</g>
<g >
</g>
<g >
</g>
<g >
</g>
<g >
</g>
<g >
</g>
<g >
</g>
<g >
</g>
<g >
</g>
<g >
</g>
<g >
</g>
<g >
</g>
<g >
</g>
<g >
</g>
<g >
</g>
<g >
</g>
<g >
</g>
<g >
</g>
<g >
</g>
<g >
</g>
<g >
</g>
<g >
</g>
<g >
</g>
<g >
</g>
<g >
</g>
<g >
</g>
<g >
</g>
<g >
</g>
<g >
</g>
</g>
<g style="fill:#000000; fill-opacity:0.0; 
stroke:#000000; stroke-width:19.685; stroke-opacity:1; 
stroke-linecap:round; stroke-linejoin:round;">
</g>
<g style="fill:#C2C200; fill-opacity:0.0; 
stroke:#C2C200; stroke-width:19.685; stroke-opacity:1; 
stroke-linecap:round; stroke-linejoin:round;">
<path d="M66141 42893
L66141 11811
" />
<path d="M101417 42893
L66141 42893
" />
<path d="M101417 11811
L101417 42893
" />
<path d="M66141 11811
L101417 11811
" />
<g >
</g>
<g >
</g>
<g >
</g>
<g >
</g>
<g >
</g>
<g >
</g>
<g >
</g>
<g >
</g>
<g >
</g>
<g >
</g>
<g >
</g>
<g >
</g>
<g >
</g>
<g >
</g>
<g >
</g>
<g >
</g>
<g >
</g>
<g >
</g>
<g >
</g>
<g >
</g>
<g >
</g>
<g >
</g>
<g >
</g>
<g >
</g>
<g >
</g>
<g >
</g>
<g >
</g>
<g >
</g>
<g >
</g>
<g >
</g>
<g >
</g>
<g >
</g>
<g >
</g>
<g >
</g>
<g >
</g>
<g >
</g>
<g >
</g>
<g >
</g>
<g >
</g>
<g >
</g>
<g >
</g>
<g >
</g>
<g >
</g>
<g >
</g>
<g >
</g>
<g >
</g>
<g >
</g>
<g >
</g>
<g >
</g>
<g >
</g>
<g >
</g>
<g >
</g>
<g >
</g>
<g >
</g>
<g >
</g>
<g >
</g>
<g >
</g>
<g >
</g>
<g >
</g>
<g >
</g>
<g >
</g>
<g >
</g>
<g >
</g>
<g >
</g>
<g >
</g>
<g >
</g>
<g >
</g>
<g >
</g>
<g >
</g>
<g >
</g>
<g >
</g>
<g >
</g>
<g >
</g>
<g >
</g>
<g >
</g>
<g >
</g>
<g >
</g>
<g >
</g>
<g >
</g>
<g >
</g>
<g >
</g>
<g >
</g>
<g >
</g>
<g >
</g>
<g >
</g>
<g >
</g>
<g >
</g>
<g >
</g>
<g >
</g>
<g >
</g>
<g >
</g>
<g >
</g>
<g >
</g>
<g >
</g>
<g >
</g>
<g >
</g>
<g >
</g>
<g >
</g>
<g >
</g>
<g >
</g>
<g >
</g>
<g >
</g>
<g >
</g>
<g >
</g>
<g >
</g>
<g >
</g>
<g >
</g>
<g >
</g>
<g >
</g>
<g >
</g>
<g >
</g>
<g >
</g>
<g >
</g>
<g >
</g>
<g >
</g>
<g >
</g>
<g >
</g>
<g >
</g>
<g >
</g>
<g >
</g>
<g >
</g>
<g >
</g>
<g >
</g>
<g >
</g>
<g >
</g>
<g >
</g>
<g >
</g>
<g >
</g>
<g >
</g>
<g >
</g>
<g >
</g>
<g >
</g>
<g >
</g>
<g >
</g>
<g >
</g>
<g >
</g>
<g >
</g>
<g >
</g>
<g >
</g>
<g >
</g>
<g >
</g>
<g >
</g>
<g >
</g>
<g >
</g>
<g >
</g>
<g >
</g>
<g >
</g>
<g >
</g>
<g >
</g>
<g >
</g>
<g >
</g>
<g >
</g>
<g >
</g>
<g >
</g>
<g >
</g>
<g >
</g>
<g >
</g>
<g >
</g>
<g >
</g>
<g >
</g>
<g >
</g>
<g >
</g>
<g >
</g>
<g >
</g>
<g >
</g>
<g >
</g>
<g >
</g>
<g >
</g>
<g >
</g>
<g >
</g>
<g >
</g>
<g >
</g>
<g >
</g>
<g >
</g>
<g >
</g>
<g >
</g>
<g >
</g>
<g >
</g>
<g >
</g>
<g >
</g>
<g >
</g>
<g >
</g>
<g >
</g>
<g >
</g>
<g >
</g>
<g >
</g>
<g >
</g>
<g >
</g>
<g >
</g>
<g >
</g>
<g >
</g>
<g >
</g>
<g >
</g>
<g >
</g>
<g >
</g>
<g >
</g>
<g >
</g>
<g >
</g>
<g >
</g>
<g >
</g>
</g> 
</svg>
