M48
; DRILL file {KiCad 5.1.0-unknown-c1c4a09~82~ubuntu18.04.1} date St 27. března 2019, 22:18:52 CET
; FORMAT={-:-/ absolute / inch / decimal}
; #@! TF.CreationDate,2019-03-27T22:18:52+01:00
; #@! TF.GenerationSoftware,Kicad,Pcbnew,5.1.0-unknown-c1c4a09~82~ubuntu18.04.1
; #@! TF.FileFunction,Plated,1,2,PTH
FMAT,2
INCH
T1C0.0079
T2C0.0118
T3C0.0197
T4C0.0217
T5C0.0335
T6C0.0630
T7C0.1260
%
G90
G05
T1
X7.8524Y-2.0965
X7.8524Y-2.1791
X7.935Y-2.0965
X7.935Y-2.1791
T2
X6.7638Y-1.5866
X6.7638Y-1.6732
X6.7638Y-1.7638
X6.7638Y-1.8661
X6.7638Y-1.9567
X6.7638Y-2.0472
X6.7638Y-2.3307
X6.7638Y-2.6142
X6.7972Y-2.7283
X6.9173Y-2.1575
X6.9173Y-2.4409
X6.9724Y-1.7638
X6.9724Y-2.0472
X6.9724Y-2.3307
X6.9724Y-2.6142
X7.1339Y-2.1496
X7.1339Y-2.4331
X7.2362Y-3.5846
X7.313Y-3.8386
X7.3189Y-3.4606
X7.3504Y-3.6555
X7.3504Y-3.7677
X7.4311Y-3.5728
X7.439Y-2.0906
X7.439Y-2.1417
X7.439Y-2.1929
X7.439Y-2.2441
X7.4902Y-2.0394
X7.4902Y-2.2441
X7.5Y-3.7598
X7.5256Y-3.6043
X7.5335Y-3.7283
X7.5413Y-2.0394
X7.5413Y-2.2441
X7.5925Y-2.0394
X7.5925Y-2.2441
X7.6004Y-3.8307
X7.6024Y-1.2087
X7.6024Y-1.2677
X7.6024Y-1.3268
X7.6024Y-1.3858
X7.6024Y-1.4449
X7.6024Y-1.5039
X7.6024Y-1.563
X7.6024Y-1.622
X7.6024Y-1.6811
X7.6024Y-1.7402
X7.6083Y-3.9882
X7.6417Y-3.6555
X7.6437Y-2.0394
X7.6437Y-2.2441
X7.6437Y-3.9429
X7.6555Y-3.435
X7.6673Y-3.6299
X7.6811Y-2.4921
X7.6909Y-2.4311
X7.6949Y-2.0394
X7.6949Y-2.1496
X7.6949Y-2.1929
X7.6949Y-2.2441
X7.6949Y-2.2795
X7.7008Y-2.811
X7.7185Y-3.6535
X7.7303Y-2.063
X7.7362Y-1.9646
X7.7579Y-4.0531
X7.7717Y-1.2087
X7.7717Y-1.2677
X7.7717Y-1.3268
X7.7717Y-1.3858
X7.7717Y-1.4449
X7.7717Y-1.5039
X7.7717Y-1.563
X7.7717Y-1.622
X7.7717Y-1.6811
X7.7756Y-1.9291
X7.7874Y-1.8858
X7.7992Y-3.9429
X7.8189Y-2.2126
X7.8248Y-2.9331
X7.8307Y-3.2028
X7.8307Y-3.5197
X7.8307Y-3.6447
X7.8376Y-2.0217
X7.8484Y-3.8268
X7.8583Y-1.7598
X7.8622Y-2.002
X7.872Y-2.4016
X7.874Y-2.3209
X7.874Y-2.6654
X7.8887Y-2.0198
X7.8888Y-1.9646
X7.8937Y-1.4291
X7.8937Y-1.4685
X7.8937Y-1.5079
X7.8937Y-1.5472
X7.8937Y-1.5866
X7.8937Y-1.626
X7.8937Y-1.6654
X7.8937Y-1.7047
X7.9055Y-3.5177
X7.9075Y-3.3543
X7.9075Y-3.4213
X7.9173Y-2.313
X7.9587Y-1.9941
X7.9665Y-2.0512
X7.9783Y-2.9941
X7.9803Y-2.2165
X7.9941Y-3.7657
X8.0059Y-3.1634
X8.0079Y-2.0906
X8.0079Y-2.2047
X8.0118Y-1.4291
X8.0118Y-1.4685
X8.0118Y-1.5079
X8.0118Y-1.5472
X8.0118Y-1.5866
X8.0118Y-1.626
X8.0118Y-1.6654
X8.0173Y-2.313
X8.0295Y-3.6102
X8.0394Y-2.5748
X8.0433Y-2.1043
X8.0512Y-1.7972
X8.0512Y-1.935
X8.065Y-2.313
X8.0679Y-2.2047
X8.0747Y-2.1064
X8.0787Y-2.5394
X8.0906Y-1.5492
X8.0945Y-3.5256
X8.0984Y-1.7972
X8.0984Y-1.935
X8.1161Y-2.9941
X8.1173Y-2.313
X8.124Y-2.0728
X8.1299Y-1.5492
X8.1339Y-1.2087
X8.1339Y-1.2677
X8.1339Y-1.3268
X8.1339Y-1.3858
X8.1339Y-1.4449
X8.1339Y-1.5039
X8.1437Y-2.2047
X8.1457Y-1.7972
X8.1457Y-1.935
X8.1654Y-2.0177
X8.1772Y-3.1693
X8.1949Y-2.8386
X8.1988Y-2.1752
X8.2173Y-2.313
X8.2244Y-2.4626
X8.2264Y-2.9941
X8.2283Y-2.9311
X8.2421Y-2.1339
X8.2559Y-1.6811
X8.2559Y-1.7677
X8.2638Y-1.5039
X8.2638Y-1.5669
X8.2913Y-2.2441
X8.2933Y-2.0807
X8.3248Y-1.2087
X8.3248Y-1.2677
X8.3248Y-1.3268
X8.3248Y-1.3858
X8.3366Y-2.9941
X8.3425Y-2.0315
X8.3484Y-2.187
X8.374Y-1.7441
X8.378Y-3.1693
X8.3917Y-3.6496
X8.3957Y-2.1339
X8.4173Y-2.0059
X8.435Y-1.7972
X8.435Y-1.935
X8.4409Y-2.0886
X8.4469Y-2.9941
X8.4803Y-2.0079
X8.4823Y-1.7972
X8.4823Y-1.935
X8.4882Y-3.1693
X8.4961Y-3.3465
X8.4961Y-3.4331
X8.5295Y-1.7972
X8.5295Y-1.935
X8.5354Y-2.8661
X8.5591Y-4.1201
X8.5768Y-1.7441
X8.6024Y-3.1673
X8.626Y-1.9488
X8.626Y-2.1575
X8.6417Y-1.5669
X8.6831Y-1.378
X8.6831Y-1.5217
X8.6929Y-1.7953
X8.7264Y-1.8465
X8.7303Y-1.378
X8.7303Y-1.5217
X8.7323Y-2.1575
X8.7717Y-1.9606
X8.7776Y-1.378
X8.7776Y-1.5217
X8.7776Y-2.185
X8.7795Y-2.9941
X8.7953Y-2.0906
X8.7992Y-1.7992
X8.8012Y-2.9173
X8.8051Y-3.1673
X8.811Y-2.0079
X8.815Y-1.9567
X8.8248Y-3.2677
X8.8248Y-3.6949
X8.8504Y-1.9567
X8.8524Y-3.8858
X8.8543Y-2.9173
X8.876Y-2.0079
X8.8858Y-1.9567
X8.8937Y-1.7992
X8.9193Y-2.0886
X8.9528Y-1.8957
X8.9665Y-3.5472
X8.9882Y-1.378
X8.9882Y-1.5217
X8.9921Y-2.0236
X9.0354Y-1.378
X9.0354Y-1.5217
X9.0551Y-1.8957
X9.0827Y-1.378
X9.0827Y-1.5217
X9.0827Y-3.9626
X9.0886Y-2.376
X9.1752Y-1.7795
X9.1752Y-1.8445
X9.185Y-3.9882
X9.2343Y-2.372
X9.2343Y-2.5591
X9.2717Y-2.7776
X9.2894Y-1.8051
X9.3406Y-2.2421
X9.3504Y-1.439
X9.3878Y-2.5295
X9.3898Y-1.7264
X9.3898Y-1.7618
X9.4114Y-1.5748
X9.4409Y-3.5453
X9.4606Y-2.8858
X9.6004Y-1.6024
X9.6319Y-2.1772
X9.6378Y-2.8248
X9.6752Y-2.6496
X9.6772Y-3.0453
X9.6772Y-3.2008
X9.7067Y-1.9134
X9.7441Y-1.6693
X9.7736Y-1.6142
X9.7953Y-1.4193
X9.8445Y-1.7618
X9.876Y-1.7264
X7.9016Y-1.8346
X7.9016Y-1.8563
X7.9016Y-1.878
X7.9232Y-1.8346
X7.9232Y-1.8563
X7.9232Y-1.878
X7.9449Y-1.8346
X7.9449Y-1.8563
X7.9449Y-1.878
T3
X6.7165Y-4.0925
X6.7442Y-4.0257
X6.7442Y-4.1593
X6.811Y-3.998
X6.811Y-4.187
X6.8778Y-4.0257
X6.8778Y-4.1593
X6.9055Y-4.0925
X9.8504Y-1.378
X9.8781Y-1.3111
X9.8781Y-1.4448
X9.9449Y-1.2835
X9.9449Y-1.4724
X10.0117Y-1.3111
X10.0117Y-1.4448
X10.0394Y-1.378
X6.7165Y-1.378
X6.7442Y-1.3111
X6.7442Y-1.4448
X6.811Y-1.2835
X6.811Y-1.4724
X6.8778Y-1.3111
X6.8778Y-1.4448
X6.9055Y-1.378
X9.8504Y-4.0925
X9.8781Y-4.0257
X9.8781Y-4.1593
X9.9449Y-3.998
X9.9449Y-4.187
X10.0117Y-4.0257
X10.0117Y-4.1593
X10.0394Y-4.0925
T6
X9.1358Y-3.4409
X9.4358Y-3.9606
T7
X6.811Y-4.0925
X9.9449Y-1.378
X6.811Y-1.378
X9.9449Y-4.0925
T4
G00X8.9813Y-4.19
M15
G01X8.9813Y-4.2156
M16
G05
G00X9.2864Y-4.19
M15
G01X9.2864Y-4.2156
M16
G05
T5
G00X8.9872Y-4.0423
M15
G01X8.9872Y-4.064
M16
G05
G00X9.2805Y-4.0423
M15
G01X9.2805Y-4.064
M16
G05
T0
M30
