<?xml version="1.0" encoding="UTF-8" standalone="no"?>
<!-- Created with Inkscape (http://www.inkscape.org/) -->

<svg
   xmlns:dc="http://purl.org/dc/elements/1.1/"
   xmlns:cc="http://creativecommons.org/ns#"
   xmlns:rdf="http://www.w3.org/1999/02/22-rdf-syntax-ns#"
   xmlns:svg="http://www.w3.org/2000/svg"
   xmlns="http://www.w3.org/2000/svg"
   xmlns:sodipodi="http://sodipodi.sourceforge.net/DTD/sodipodi-0.dtd"
   xmlns:inkscape="http://www.inkscape.org/namespaces/inkscape"
   version="1.1"
   id="svg2"
   xml:space="preserve"
   width="880"
   height="472"
   viewBox="0 0 880 472"
   sodipodi:docname="block_diagram.svg"
   inkscape:version="0.92.4 (5da689c313, 2019-01-14)"><metadata
     id="metadata8"><rdf:RDF><cc:Work
         rdf:about=""><dc:format>image/svg+xml</dc:format><dc:type
           rdf:resource="http://purl.org/dc/dcmitype/StillImage" /><dc:title></dc:title></cc:Work></rdf:RDF></metadata><defs
     id="defs6"><clipPath
       clipPathUnits="userSpaceOnUse"
       id="clipPath18"><path
         d="M 0,0 H 2750 V 1473.8562 H 0 Z"
         id="path16"
         inkscape:connector-curvature="0"
         style="clip-rule:evenodd" /></clipPath><clipPath
       clipPathUnits="userSpaceOnUse"
       id="clipPath30"><path
         d="M 0,0 H 2750 V 1467.8649 H 0 Z"
         id="path28"
         inkscape:connector-curvature="0"
         style="clip-rule:evenodd" /></clipPath></defs><sodipodi:namedview
     pagecolor="#ffffff"
     bordercolor="#666666"
     borderopacity="1"
     objecttolerance="10"
     gridtolerance="10"
     guidetolerance="10"
     inkscape:pageopacity="0"
     inkscape:pageshadow="2"
     inkscape:window-width="1280"
     inkscape:window-height="973"
     id="namedview4"
     showgrid="false"
     inkscape:zoom="1.0478037"
     inkscape:cx="199.03954"
     inkscape:cy="176.99976"
     inkscape:window-x="0"
     inkscape:window-y="25"
     inkscape:window-maximized="1"
     inkscape:current-layer="g10"
     inkscape:pagecheckerboard="true" /><g
     id="g10"
     inkscape:groupmode="layer"
     inkscape:label="Untitled Diagram"
     transform="matrix(0.31999998,0,0,0.31999998,0,1.18e-5)"><g
       id="g24"><g
         id="g26"
         clip-path="url(#clipPath30)"><g
           id="g32"
           transform="matrix(2.9956427,0,0,2.9956427,1.4978213,1.4978213)"><path
             d="m 416,61 v 70 h 213.63"
             style="fill:none;stroke:#000000;stroke-width:1;stroke-linecap:butt;stroke-linejoin:miter;stroke-miterlimit:10;stroke-dasharray:none;stroke-opacity:1"
             id="path34"
             inkscape:connector-curvature="0" /><path
             d="m 634.88,131 -7,3.5 1.75,-3.5 -1.75,-3.5 z"
             style="fill:#000000;fill-opacity:1;fill-rule:nonzero;stroke:none"
             id="path36"
             inkscape:connector-curvature="0" /><path
             d="m 634.88,131 -7,3.5 1.75,-3.5 -1.75,-3.5 z"
             style="fill:none;stroke:#000000;stroke-width:1;stroke-linecap:butt;stroke-linejoin:miter;stroke-miterlimit:10;stroke-dasharray:none;stroke-opacity:1"
             id="path38"
             inkscape:connector-curvature="0" /><path
             d="M 386,61 V 331 H 629.63"
             style="fill:none;stroke:#000000;stroke-width:1;stroke-linecap:butt;stroke-linejoin:miter;stroke-miterlimit:10;stroke-dasharray:none;stroke-opacity:1"
             id="path40"
             inkscape:connector-curvature="0" /><path
             d="m 634.88,331 -7,3.5 1.75,-3.5 -1.75,-3.5 z"
             style="fill:#000000;fill-opacity:1;fill-rule:nonzero;stroke:none"
             id="path42"
             inkscape:connector-curvature="0" /><path
             d="m 634.88,331 -7,3.5 1.75,-3.5 -1.75,-3.5 z"
             style="fill:none;stroke:#000000;stroke-width:1;stroke-linecap:butt;stroke-linejoin:miter;stroke-miterlimit:10;stroke-dasharray:none;stroke-opacity:1"
             id="path44"
             inkscape:connector-curvature="0" /><path
             d="m 356,61 v 50 H 256 V 67.370003"
             style="fill:none;stroke:#000000;stroke-width:1;stroke-linecap:butt;stroke-linejoin:miter;stroke-miterlimit:10;stroke-dasharray:none;stroke-opacity:1"
             id="path46"
             inkscape:connector-curvature="0" /><path
             d="m 256,62.119999 3.5,7.000004 -3.5,-1.75 -3.5,1.75 z"
             style="fill:#000000;fill-opacity:1;fill-rule:nonzero;stroke:none"
             id="path48"
             inkscape:connector-curvature="0" /><path
             d="m 256,62.119999 3.5,7.000004 -3.5,-1.75 -3.5,1.75 z"
             style="fill:none;stroke:#000000;stroke-width:1;stroke-linecap:butt;stroke-linejoin:miter;stroke-miterlimit:10;stroke-dasharray:none;stroke-opacity:1"
             id="path50"
             inkscape:connector-curvature="0" /><path
             d="m 446,31 h 28.63"
             style="fill:none;stroke:#000000;stroke-width:1;stroke-linecap:butt;stroke-linejoin:miter;stroke-miterlimit:10;stroke-dasharray:none;stroke-opacity:1"
             id="path52"
             inkscape:connector-curvature="0" /><path
             d="m 479.88,31 -7,3.5 1.75,-3.5 -1.75,-3.5 z"
             style="fill:#000000;fill-opacity:1;fill-rule:nonzero;stroke:none"
             id="path54"
             inkscape:connector-curvature="0" /><path
             d="m 479.88,31 -7,3.5 1.75,-3.5 -1.75,-3.5 z"
             style="fill:none;stroke:#000000;stroke-width:1;stroke-linecap:butt;stroke-linejoin:miter;stroke-miterlimit:10;stroke-dasharray:none;stroke-opacity:1"
             id="path56"
             inkscape:connector-curvature="0" /><path
             d="m 335,1 h 102 c 0.59091,0 1.17618,0.057644 1.75577,0.1729325 0.57959,0.1152883 1.14236,0.2860055 1.68832,0.5121516 0.54596,0.2261462 1.06464,0.503376 1.556,0.8316891 0.49137,0.3283134 0.94595,0.7014017 1.36383,1.1192653 0.41785,0.4178636 0.79093,0.8724735 1.11926,1.3638289 0.32831,0.4913555 0.60553,1.0100155 0.8317,1.5559807 0.22617,0.5459657 0.39688,1.1087451 0.51215,1.6883383 C 445.94232,8.8237801 445.99997,9.4090509 446,10 v 42 c -3e-5,0.590946 -0.0577,1.176216 -0.17297,1.755806 -0.11527,0.579594 -0.28598,1.142376 -0.51215,1.688339 -0.22617,0.545963 -0.50339,1.064621 -0.83173,1.555977 -0.3283,0.491356 -0.70138,0.945969 -1.11923,1.363834 -0.41788,0.417866 -0.87246,0.790955 -1.36383,1.119267 -0.49136,0.328312 -1.01004,0.605537 -1.556,0.831684 -0.54596,0.226147 -1.10873,0.396866 -1.68832,0.512154 C 438.17618,60.942352 437.59091,60.999996 437,61 H 335 c -0.59097,-4e-6 -1.17627,-0.05765 -1.75586,-0.172939 -0.57962,-0.115288 -1.14239,-0.286007 -1.68835,-0.512154 -0.54599,-0.226147 -1.06464,-0.503376 -1.55597,-0.831688 -0.49137,-0.328312 -0.94596,-0.701397 -1.3638,-1.119263 -0.41788,-0.417865 -0.79096,-0.872478 -1.11927,-1.36383 -0.3283,-0.49136 -0.60553,-1.010018 -0.83169,-1.555981 -0.22617,-0.545963 -0.39688,-1.108745 -0.51215,-1.688339 C 326.05762,53.176216 325.99997,52.590946 326,52 V 10 c -3e-5,-0.5909491 0.0576,-1.1762199 0.17291,-1.7558136 0.11527,-0.5795932 0.28598,-1.1423726 0.51215,-1.6883383 0.22616,-0.5459652 0.50339,-1.0646257 0.83169,-1.5559811 0.32831,-0.4913555 0.70139,-0.9459649 1.11927,-1.3638285 0.41784,-0.4178636 0.87243,-0.7909519 1.3638,-1.1192653 0.49133,-0.3283133 1.00998,-0.6055431 1.55597,-0.8316892 0.54596,-0.2261461 1.10873,-0.3968634 1.68835,-0.5121516 C 333.82373,1.0576441 334.40903,1 335,1 Z"
             style="fill:#ffffff;fill-opacity:1;fill-rule:nonzero;stroke:none"
             id="path58"
             inkscape:connector-curvature="0" /><path
             d="m 335,1 h 102 c 0.59091,0 1.17618,0.057644 1.75577,0.1729325 0.57959,0.1152883 1.14236,0.2860055 1.68832,0.5121516 0.54596,0.2261462 1.06464,0.503376 1.556,0.8316891 0.49137,0.3283134 0.94595,0.7014017 1.36383,1.1192653 0.41785,0.4178636 0.79093,0.8724735 1.11926,1.3638289 0.32831,0.4913555 0.60553,1.0100155 0.8317,1.5559807 0.22617,0.5459657 0.39688,1.1087451 0.51215,1.6883383 C 445.94232,8.8237801 445.99997,9.4090509 446,10 v 42 c -3e-5,0.590946 -0.0577,1.176216 -0.17297,1.755806 -0.11527,0.579594 -0.28598,1.142376 -0.51215,1.688339 -0.22617,0.545963 -0.50339,1.064621 -0.83173,1.555977 -0.3283,0.491356 -0.70138,0.945969 -1.11923,1.363834 -0.41788,0.417866 -0.87246,0.790955 -1.36383,1.119267 -0.49136,0.328312 -1.01004,0.605537 -1.556,0.831684 -0.54596,0.226147 -1.10873,0.396866 -1.68832,0.512154 C 438.17618,60.942352 437.59091,60.999996 437,61 H 335 c -0.59097,-4e-6 -1.17627,-0.05765 -1.75586,-0.172939 -0.57962,-0.115288 -1.14239,-0.286007 -1.68835,-0.512154 -0.54599,-0.226147 -1.06464,-0.503376 -1.55597,-0.831688 -0.49137,-0.328312 -0.94596,-0.701397 -1.3638,-1.119263 -0.41788,-0.417865 -0.79096,-0.872478 -1.11927,-1.36383 -0.3283,-0.49136 -0.60553,-1.010018 -0.83169,-1.555981 -0.22617,-0.545963 -0.39688,-1.108745 -0.51215,-1.688339 C 326.05762,53.176216 325.99997,52.590946 326,52 V 10 c -3e-5,-0.5909491 0.0576,-1.1762199 0.17291,-1.7558136 0.11527,-0.5795932 0.28598,-1.1423726 0.51215,-1.6883383 0.22616,-0.5459652 0.50339,-1.0646257 0.83169,-1.5559811 0.32831,-0.4913555 0.70139,-0.9459649 1.11927,-1.3638285 0.41784,-0.4178636 0.87243,-0.7909519 1.3638,-1.1192653 0.49133,-0.3283133 1.00998,-0.6055431 1.55597,-0.8316892 0.54596,-0.2261461 1.10873,-0.3968634 1.68835,-0.5121516 C 333.82373,1.0576441 334.40903,1 335,1 Z"
             style="fill:none;stroke:#000000;stroke-width:1;stroke-linecap:butt;stroke-linejoin:miter;stroke-miterlimit:10;stroke-dasharray:none;stroke-opacity:1"
             id="path60"
             inkscape:connector-curvature="0" /></g><g
           id="g62"
           transform="matrix(2.9956427,0,0,2.9956427,982.5708,11.982571)"><text
             transform="translate(12.640625,11)"
             style="font-variant:normal;font-weight:normal;font-size:12px;font-family:Helvetica;-inkscape-font-specification:Helvetica;writing-mode:lr-tb;fill:#000000;fill-opacity:1;fill-rule:nonzero;stroke:none"
             id="text66"><tspan
               x="0 8.0039062 12 18.673828 25.347656 29.34375 36.017578 46.013672 52.6875 58.6875 65.361328 68.695312 75.369141 78.035156 84.708984"
               y="0"
               sodipodi:role="line"
               id="tspan64">Programovatelný</tspan></text>
<text
             transform="translate(32.3125,25)"
             style="font-variant:normal;font-weight:normal;font-size:12px;font-family:Helvetica;-inkscape-font-specification:Helvetica;writing-mode:lr-tb;fill:#000000;fill-opacity:1;fill-rule:nonzero;stroke:none"
             id="text70"><tspan
               x="0 6.6738281 13.347656 20.021484 26.695312 30.691406 37.365234 40.699219 47.373047"
               y="0"
               sodipodi:role="line"
               id="tspan68">generátor</tspan></text>
<text
             transform="translate(18.96875,39)"
             style="font-variant:normal;font-weight:normal;font-size:12px;font-family:Helvetica;-inkscape-font-specification:Helvetica;writing-mode:lr-tb;fill:#000000;fill-opacity:1;fill-rule:nonzero;stroke:none"
             id="text74"><tspan
               x="0 6.6738281 13.347656 20.021484 26.695312 29.361328 36.035156 39.369141 45.369141 52.042969 58.042969 64.716797 71.390625"
               y="0"
               sodipodi:role="line"
               id="tspan72">obdélníkového</tspan></text>
<text
             transform="translate(35.984375,53)"
             style="font-variant:normal;font-weight:normal;font-size:12px;font-family:Helvetica;-inkscape-font-specification:Helvetica;writing-mode:lr-tb;fill:#000000;fill-opacity:1;fill-rule:nonzero;stroke:none"
             id="text78"><tspan
               x="0 6.6738281 10.669922 17.34375 24.017578 30.691406 37.365234"
               y="0"
               sodipodi:role="line"
               id="tspan76">průběhu</tspan></text>
</g><g
           id="g80"
           transform="matrix(2.9956427,0,0,2.9956427,1.4978213,1.4978213)"><path
             d="m 762.37,31 h 27.26"
             style="fill:none;stroke:#000000;stroke-width:1;stroke-linecap:butt;stroke-linejoin:miter;stroke-miterlimit:10;stroke-dasharray:none;stroke-opacity:1"
             id="path82"
             inkscape:connector-curvature="0" /><path
             d="m 757.12,31 7,-3.5 -1.75,3.5 1.75,3.5 z"
             style="fill:#000000;fill-opacity:1;fill-rule:nonzero;stroke:none"
             id="path84"
             inkscape:connector-curvature="0" /><path
             d="m 757.12,31 7,-3.5 -1.75,3.5 1.75,3.5 z"
             style="fill:none;stroke:#000000;stroke-width:1;stroke-linecap:butt;stroke-linejoin:miter;stroke-miterlimit:10;stroke-dasharray:none;stroke-opacity:1"
             id="path86"
             inkscape:connector-curvature="0" /><path
             d="m 794.88,31 -7,3.5 1.75,-3.5 -1.75,-3.5 z"
             style="fill:#000000;fill-opacity:1;fill-rule:nonzero;stroke:none"
             id="path88"
             inkscape:connector-curvature="0" /><path
             d="m 794.88,31 -7,3.5 1.75,-3.5 -1.75,-3.5 z"
             style="fill:none;stroke:#000000;stroke-width:1;stroke-linecap:butt;stroke-linejoin:miter;stroke-miterlimit:10;stroke-dasharray:none;stroke-opacity:1"
             id="path90"
             inkscape:connector-curvature="0" /><path
             d="M 696,61 V 94.629997"
             style="fill:none;stroke:#000000;stroke-width:1;stroke-linecap:butt;stroke-linejoin:miter;stroke-miterlimit:10;stroke-dasharray:none;stroke-opacity:1"
             id="path92"
             inkscape:connector-curvature="0" /><path
             d="m 696,99.879997 -3.5,-7 3.5,1.75 3.5,-1.75 z"
             style="fill:#000000;fill-opacity:1;fill-rule:nonzero;stroke:none"
             id="path94"
             inkscape:connector-curvature="0" /><path
             d="m 696,99.879997 -3.5,-7 3.5,1.75 3.5,-1.75 z"
             style="fill:none;stroke:#000000;stroke-width:1;stroke-linecap:butt;stroke-linejoin:miter;stroke-miterlimit:10;stroke-dasharray:none;stroke-opacity:1"
             id="path96"
             inkscape:connector-curvature="0" /><path
             d="m 645,1 h 102 c 0.59088,0 1.17615,0.057644 1.75574,0.1729325 0.57959,0.1152883 1.14239,0.2860055 1.68835,0.5121516 0.54596,0.2261462 1.06458,0.503376 1.55597,0.8316891 0.49133,0.3283134 0.94598,0.7014017 1.36389,1.1192653 0.41779,0.4178636 0.7909,0.8724735 1.11927,1.3638289 0.32824,0.4913555 0.60546,1.0100155 0.8316,1.5559807 0.22613,0.5459657 0.39691,1.1087451 0.51221,1.6883383 C 755.94232,8.8237801 755.99994,9.4090509 756,10 v 42 c -6e-5,0.590946 -0.0577,1.176216 -0.17297,1.755806 -0.1153,0.579594 -0.28608,1.142376 -0.51221,1.688339 -0.22614,0.545963 -0.50336,1.064621 -0.83167,1.555977 -0.3283,0.491356 -0.70141,0.945969 -1.1192,1.363834 -0.41791,0.417866 -0.87256,0.790955 -1.36389,1.119267 -0.49139,0.328312 -1.01001,0.605537 -1.55597,0.831684 -0.54596,0.226147 -1.10876,0.396866 -1.68829,0.512154 C 748.17615,60.942352 747.59088,60.999996 747,61 H 645 c -0.59094,-4e-6 -1.17621,-0.05765 -1.7558,-0.172939 -0.57965,-0.115288 -1.14239,-0.286007 -1.68835,-0.512154 -0.54602,-0.226147 -1.0647,-0.503376 -1.55603,-0.831688 -0.49134,-0.328312 -0.94593,-0.701397 -1.36377,-1.119263 -0.41791,-0.417865 -0.79102,-0.872478 -1.11933,-1.36383 -0.3283,-0.49136 -0.60559,-1.010018 -0.83172,-1.555981 -0.22614,-0.545963 -0.39685,-1.108745 -0.51209,-1.688339 C 636.05762,53.176216 636,52.590946 636,52 V 10 c 0,-0.5909491 0.0576,-1.1762199 0.17291,-1.7558136 0.11524,-0.5795932 0.28595,-1.1423726 0.51209,-1.6883383 0.22613,-0.5459652 0.50335,-1.0646257 0.83166,-1.5559811 0.32837,-0.4913555 0.70148,-0.9459649 1.11939,-1.3638285 0.41784,-0.4178636 0.87243,-0.7909519 1.36377,-1.1192653 0.49133,-0.3283133 1.01001,-0.6055431 1.55603,-0.8316892 0.54596,-0.2261461 1.1087,-0.3968634 1.68835,-0.5121516 C 643.82379,1.0576441 644.40906,1 645,1 Z"
             style="fill:#ffffff;fill-opacity:1;fill-rule:nonzero;stroke:none"
             id="path98"
             inkscape:connector-curvature="0" /><path
             d="m 645,1 h 102 c 0.59088,0 1.17615,0.057644 1.75574,0.1729325 0.57959,0.1152883 1.14239,0.2860055 1.68835,0.5121516 0.54596,0.2261462 1.06458,0.503376 1.55597,0.8316891 0.49133,0.3283134 0.94598,0.7014017 1.36389,1.1192653 0.41779,0.4178636 0.7909,0.8724735 1.11927,1.3638289 0.32824,0.4913555 0.60546,1.0100155 0.8316,1.5559807 0.22613,0.5459657 0.39691,1.1087451 0.51221,1.6883383 C 755.94232,8.8237801 755.99994,9.4090509 756,10 v 42 c -6e-5,0.590946 -0.0577,1.176216 -0.17297,1.755806 -0.1153,0.579594 -0.28608,1.142376 -0.51221,1.688339 -0.22614,0.545963 -0.50336,1.064621 -0.83167,1.555977 -0.3283,0.491356 -0.70141,0.945969 -1.1192,1.363834 -0.41791,0.417866 -0.87256,0.790955 -1.36389,1.119267 -0.49139,0.328312 -1.01001,0.605537 -1.55597,0.831684 -0.54596,0.226147 -1.10876,0.396866 -1.68829,0.512154 C 748.17615,60.942352 747.59088,60.999996 747,61 H 645 c -0.59094,-4e-6 -1.17621,-0.05765 -1.7558,-0.172939 -0.57965,-0.115288 -1.14239,-0.286007 -1.68835,-0.512154 -0.54602,-0.226147 -1.0647,-0.503376 -1.55603,-0.831688 -0.49134,-0.328312 -0.94593,-0.701397 -1.36377,-1.119263 -0.41791,-0.417865 -0.79102,-0.872478 -1.11933,-1.36383 -0.3283,-0.49136 -0.60559,-1.010018 -0.83172,-1.555981 -0.22614,-0.545963 -0.39685,-1.108745 -0.51209,-1.688339 C 636.05762,53.176216 636,52.590946 636,52 V 10 c 0,-0.5909491 0.0576,-1.1762199 0.17291,-1.7558136 0.11524,-0.5795932 0.28595,-1.1423726 0.51209,-1.6883383 0.22613,-0.5459652 0.50335,-1.0646257 0.83166,-1.5559811 0.32837,-0.4913555 0.70148,-0.9459649 1.11939,-1.3638285 0.41784,-0.4178636 0.87243,-0.7909519 1.36377,-1.1192653 0.49133,-0.3283133 1.01001,-0.6055431 1.55603,-0.8316892 0.54596,-0.2261461 1.1087,-0.3968634 1.68835,-0.5121516 C 643.82379,1.0576441 644.40906,1 645,1 Z"
             style="fill:none;stroke:#000000;stroke-width:1;stroke-linecap:butt;stroke-linejoin:miter;stroke-miterlimit:10;stroke-dasharray:none;stroke-opacity:1"
             id="path100"
             inkscape:connector-curvature="0" /></g><g
           id="g102"
           transform="matrix(2.9956427,0,0,2.9956427,1950.1633,74.891068)"><text
             transform="translate(0.640625,11)"
             style="font-variant:normal;font-weight:normal;font-size:12px;font-family:Helvetica;-inkscape-font-specification:Helvetica;writing-mode:lr-tb;fill:#000000;fill-opacity:1;fill-rule:nonzero;stroke:none"
             id="text106"><tspan
               x="0 8.6660156 15.339844 21.339844 24.005859 30.005859 33.339844 36.005859 42.005859 48.679688 52.013672 55.347656 61.347656 68.021484 70.6875 73.353516 76.6875 80.021484 86.695312"
               y="0"
               sodipodi:role="line"
               id="tspan104">Rezistivní splitter</tspan></text>
</g><g
           id="g108"
           transform="matrix(2.9956427,0,0,2.9956427,1.4978213,1.4978213)"><path
             d="m 805,1 h 102 c 0.59088,0 1.17615,0.057644 1.75574,0.1729325 0.57953,0.1152883 1.14227,0.2860055 1.68823,0.5121516 0.54596,0.2261462 1.06457,0.503376 1.55597,0.8316891 0.49139,0.3283134 0.94598,0.7014017 1.36389,1.1192653 0.41785,0.4178636 0.79089,0.8724735 1.1192,1.3638289 0.32831,0.4913555 0.60559,1.0100155 0.83173,1.5559807 0.22613,0.5459657 0.39691,1.1087451 0.51221,1.6883383 C 915.94226,8.8237801 915.99994,9.4090509 916,10 v 42 c -6e-5,0.590946 -0.0578,1.176216 -0.1731,1.755806 -0.11529,0.579594 -0.28601,1.142376 -0.51214,1.688339 -0.22614,0.545963 -0.50342,1.064621 -0.83173,1.555977 -0.32831,0.491356 -0.70135,0.945969 -1.1192,1.363834 -0.41791,0.417866 -0.8725,0.790955 -1.36389,1.119267 -0.4914,0.328312 -1.01001,0.605537 -1.55597,0.831684 -0.54596,0.226147 -1.1087,0.396866 -1.68823,0.512154 C 908.17615,60.942352 907.59088,60.999996 907,61 H 805 c -0.591,-4e-6 -1.17627,-0.05765 -1.75592,-0.172939 -0.57959,-0.115288 -1.1424,-0.286007 -1.68835,-0.512154 -0.54596,-0.226147 -1.06464,-0.503376 -1.55597,-0.831688 -0.4914,-0.328312 -0.94599,-0.701397 -1.36383,-1.119263 -0.41791,-0.417865 -0.79102,-0.872478 -1.11933,-1.36383 -0.32831,-0.49136 -0.60547,-1.010018 -0.8316,-1.555981 -0.22614,-0.545963 -0.39685,-1.108745 -0.51215,-1.688339 C 796.05762,53.176216 796,52.590946 796,52 V 10 c 0,-0.5909491 0.0576,-1.1762199 0.17291,-1.7558136 0.11524,-0.5795932 0.28595,-1.1423726 0.51209,-1.6883383 0.22613,-0.5459652 0.50329,-1.0646257 0.8316,-1.5559811 0.32831,-0.4913555 0.70142,-0.9459649 1.11933,-1.3638285 0.41784,-0.4178636 0.87243,-0.7909519 1.36376,-1.1192653 0.4914,-0.3283133 1.01008,-0.6055431 1.55604,-0.8316892 0.54595,-0.2261461 1.10876,-0.3968634 1.68835,-0.5121516 C 803.82373,1.0576441 804.409,1 805,1 Z"
             style="fill:#ffffff;fill-opacity:1;fill-rule:nonzero;stroke:none"
             id="path110"
             inkscape:connector-curvature="0" /><path
             d="m 805,1 h 102 c 0.59088,0 1.17615,0.057644 1.75574,0.1729325 0.57953,0.1152883 1.14227,0.2860055 1.68823,0.5121516 0.54596,0.2261462 1.06457,0.503376 1.55597,0.8316891 0.49139,0.3283134 0.94598,0.7014017 1.36389,1.1192653 0.41785,0.4178636 0.79089,0.8724735 1.1192,1.3638289 0.32831,0.4913555 0.60559,1.0100155 0.83173,1.5559807 0.22613,0.5459657 0.39691,1.1087451 0.51221,1.6883383 C 915.94226,8.8237801 915.99994,9.4090509 916,10 v 42 c -6e-5,0.590946 -0.0578,1.176216 -0.1731,1.755806 -0.11529,0.579594 -0.28601,1.142376 -0.51214,1.688339 -0.22614,0.545963 -0.50342,1.064621 -0.83173,1.555977 -0.32831,0.491356 -0.70135,0.945969 -1.1192,1.363834 -0.41791,0.417866 -0.8725,0.790955 -1.36389,1.119267 -0.4914,0.328312 -1.01001,0.605537 -1.55597,0.831684 -0.54596,0.226147 -1.1087,0.396866 -1.68823,0.512154 C 908.17615,60.942352 907.59088,60.999996 907,61 H 805 c -0.591,-4e-6 -1.17627,-0.05765 -1.75592,-0.172939 -0.57959,-0.115288 -1.1424,-0.286007 -1.68835,-0.512154 -0.54596,-0.226147 -1.06464,-0.503376 -1.55597,-0.831688 -0.4914,-0.328312 -0.94599,-0.701397 -1.36383,-1.119263 -0.41791,-0.417865 -0.79102,-0.872478 -1.11933,-1.36383 -0.32831,-0.49136 -0.60547,-1.010018 -0.8316,-1.555981 -0.22614,-0.545963 -0.39685,-1.108745 -0.51215,-1.688339 C 796.05762,53.176216 796,52.590946 796,52 V 10 c 0,-0.5909491 0.0576,-1.1762199 0.17291,-1.7558136 0.11524,-0.5795932 0.28595,-1.1423726 0.51209,-1.6883383 0.22613,-0.5459652 0.50329,-1.0646257 0.8316,-1.5559811 0.32831,-0.4913555 0.70142,-0.9459649 1.11933,-1.3638285 0.41784,-0.4178636 0.87243,-0.7909519 1.36376,-1.1192653 0.4914,-0.3283133 1.01008,-0.6055431 1.55604,-0.8316892 0.54595,-0.2261461 1.10876,-0.3968634 1.68835,-0.5121516 C 803.82373,1.0576441 804.409,1 805,1 Z"
             style="fill:none;stroke:#000000;stroke-width:1;stroke-linecap:butt;stroke-linejoin:miter;stroke-miterlimit:10;stroke-dasharray:none;stroke-opacity:1"
             id="path112"
             inkscape:connector-curvature="0" /></g><g
           id="g114"
           transform="matrix(2.9956427,0,0,2.9956427,2528.3225,74.891068)"><text
             transform="translate(0.65625,11)"
             style="font-variant:normal;font-weight:normal;font-size:12px;font-family:Helvetica;-inkscape-font-specification:Helvetica;writing-mode:lr-tb;fill:#000000;fill-opacity:1;fill-rule:nonzero;stroke:none"
             id="text118"><tspan
               x="0 8.6660156 17.332031"
               y="0"
               sodipodi:role="line"
               id="tspan116">DUT</tspan></text>
</g><g
           id="g120"
           transform="matrix(2.9956427,0,0,2.9956427,1.4978213,1.4978213)"><path
             d="m 696,161 v 33.63"
             style="fill:none;stroke:#000000;stroke-width:1;stroke-linecap:butt;stroke-linejoin:miter;stroke-miterlimit:10;stroke-dasharray:none;stroke-opacity:1"
             id="path122"
             inkscape:connector-curvature="0" /><path
             d="m 696,199.88 -3.5,-7 3.5,1.75 3.5,-1.75 z"
             style="fill:#000000;fill-opacity:1;fill-rule:nonzero;stroke:none"
             id="path124"
             inkscape:connector-curvature="0" /><path
             d="m 696,199.88 -3.5,-7 3.5,1.75 3.5,-1.75 z"
             style="fill:none;stroke:#000000;stroke-width:1;stroke-linecap:butt;stroke-linejoin:miter;stroke-miterlimit:10;stroke-dasharray:none;stroke-opacity:1"
             id="path126"
             inkscape:connector-curvature="0" /><path
             d="m 645,101 h 102 c 0.59088,1e-5 1.17615,0.0576 1.75574,0.17293 0.57959,0.11529 1.14239,0.286 1.68835,0.51214 0.54596,0.22615 1.06458,0.50338 1.55597,0.83171 0.49133,0.3283 0.94598,0.70139 1.36389,1.11925 0.41779,0.41786 0.7909,0.87247 1.11927,1.36383 0.32824,0.49135 0.60546,1.01001 0.8316,1.55598 0.22613,0.54597 0.39691,1.10874 0.51221,1.68834 0.11529,0.5796 0.17291,1.16487 0.17297,1.75582 v 42 c -6e-5,0.59093 -0.0577,1.17619 -0.17297,1.7558 -0.1153,0.57959 -0.28608,1.14236 -0.51221,1.68832 -0.22614,0.54596 -0.50336,1.06462 -0.83167,1.55597 -0.3283,0.49138 -0.70141,0.94598 -1.1192,1.36385 -0.41791,0.41786 -0.87256,0.79095 -1.36389,1.11926 -0.49139,0.32831 -1.01001,0.60555 -1.55597,0.8317 -0.54596,0.22615 -1.10876,0.39686 -1.68829,0.51216 C 748.17615,160.94235 747.59088,161 747,161 H 645 c -0.59094,0 -1.17621,-0.0576 -1.7558,-0.17294 -0.57965,-0.1153 -1.14239,-0.28601 -1.68835,-0.51216 -0.54602,-0.22615 -1.0647,-0.50339 -1.55603,-0.8317 -0.49134,-0.32831 -0.94593,-0.7014 -1.36377,-1.11926 -0.41791,-0.41787 -0.79102,-0.87247 -1.11933,-1.36383 -0.3283,-0.49137 -0.60559,-1.01003 -0.83172,-1.55599 -0.22614,-0.54596 -0.39685,-1.10873 -0.51209,-1.68832 C 636.05762,153.17619 636,152.59093 636,152 v -42 c 0,-0.59095 0.0576,-1.17622 0.17291,-1.75582 0.11524,-0.5796 0.28595,-1.14237 0.51209,-1.68834 0.22613,-0.54597 0.50335,-1.06463 0.83166,-1.55598 0.32837,-0.49136 0.70148,-0.94597 1.11939,-1.36383 0.41784,-0.41786 0.87243,-0.79095 1.36377,-1.11927 0.49133,-0.32831 1.01001,-0.60554 1.55603,-0.83169 0.54596,-0.22614 1.1087,-0.39685 1.68835,-0.51214 0.57959,-0.11528 1.16486,-0.17292 1.7558,-0.17293 z"
             style="fill:#ffffff;fill-opacity:1;fill-rule:nonzero;stroke:none"
             id="path128"
             inkscape:connector-curvature="0" /><path
             d="m 645,101 h 102 c 0.59088,1e-5 1.17615,0.0576 1.75574,0.17293 0.57959,0.11529 1.14239,0.286 1.68835,0.51214 0.54596,0.22615 1.06458,0.50338 1.55597,0.83171 0.49133,0.3283 0.94598,0.70139 1.36389,1.11925 0.41779,0.41786 0.7909,0.87247 1.11927,1.36383 0.32824,0.49135 0.60546,1.01001 0.8316,1.55598 0.22613,0.54597 0.39691,1.10874 0.51221,1.68834 0.11529,0.5796 0.17291,1.16487 0.17297,1.75582 v 42 c -6e-5,0.59093 -0.0577,1.17619 -0.17297,1.7558 -0.1153,0.57959 -0.28608,1.14236 -0.51221,1.68832 -0.22614,0.54596 -0.50336,1.06462 -0.83167,1.55597 -0.3283,0.49138 -0.70141,0.94598 -1.1192,1.36385 -0.41791,0.41786 -0.87256,0.79095 -1.36389,1.11926 -0.49139,0.32831 -1.01001,0.60555 -1.55597,0.8317 -0.54596,0.22615 -1.10876,0.39686 -1.68829,0.51216 C 748.17615,160.94235 747.59088,161 747,161 H 645 c -0.59094,0 -1.17621,-0.0576 -1.7558,-0.17294 -0.57965,-0.1153 -1.14239,-0.28601 -1.68835,-0.51216 -0.54602,-0.22615 -1.0647,-0.50339 -1.55603,-0.8317 -0.49134,-0.32831 -0.94593,-0.7014 -1.36377,-1.11926 -0.41791,-0.41787 -0.79102,-0.87247 -1.11933,-1.36383 -0.3283,-0.49137 -0.60559,-1.01003 -0.83172,-1.55599 -0.22614,-0.54596 -0.39685,-1.10873 -0.51209,-1.68832 C 636.05762,153.17619 636,152.59093 636,152 v -42 c 0,-0.59095 0.0576,-1.17622 0.17291,-1.75582 0.11524,-0.5796 0.28595,-1.14237 0.51209,-1.68834 0.22613,-0.54597 0.50335,-1.06463 0.83166,-1.55598 0.32837,-0.49136 0.70148,-0.94597 1.11939,-1.36383 0.41784,-0.41786 0.87243,-0.79095 1.36377,-1.11927 0.49133,-0.32831 1.01001,-0.60554 1.55603,-0.83169 0.54596,-0.22614 1.1087,-0.39685 1.68835,-0.51214 0.57959,-0.11528 1.16486,-0.17292 1.7558,-0.17293 z"
             style="fill:none;stroke:#000000;stroke-width:1;stroke-linecap:butt;stroke-linejoin:miter;stroke-miterlimit:10;stroke-dasharray:none;stroke-opacity:1"
             id="path130"
             inkscape:connector-curvature="0" /></g><g
           id="g132"
           transform="matrix(2.9956427,0,0,2.9956427,1962.146,374.45532)"><text
             transform="translate(0.65625,11)"
             style="font-variant:normal;font-weight:normal;font-size:12px;font-family:Helvetica;-inkscape-font-specification:Helvetica;writing-mode:lr-tb;fill:#000000;fill-opacity:1;fill-rule:nonzero;stroke:none"
             id="text136"><tspan
               x="0 9.9960938 16.669922 22.669922 26.003906 32.677734 36.673828 40.007812 46.007812 52.681641 62.677734 69.351562 72.017578 78.691406"
               y="0"
               sodipodi:role="line"
               id="tspan134">Master sampler</tspan></text>
</g><g
           id="g138"
           transform="matrix(2.9956427,0,0,2.9956427,1.4978213,1.4978213)"><path
             d="m 696,261 v 33.63"
             style="fill:none;stroke:#000000;stroke-width:1;stroke-linecap:butt;stroke-linejoin:miter;stroke-miterlimit:10;stroke-dasharray:none;stroke-opacity:1"
             id="path140"
             inkscape:connector-curvature="0" /><path
             d="m 696,299.88 -3.5,-7 3.5,1.75 3.5,-1.75 z"
             style="fill:#000000;fill-opacity:1;fill-rule:nonzero;stroke:none"
             id="path142"
             inkscape:connector-curvature="0" /><path
             d="m 696,299.88 -3.5,-7 3.5,1.75 3.5,-1.75 z"
             style="fill:none;stroke:#000000;stroke-width:1;stroke-linecap:butt;stroke-linejoin:miter;stroke-miterlimit:10;stroke-dasharray:none;stroke-opacity:1"
             id="path144"
             inkscape:connector-curvature="0" /><path
             d="m 645,201 h 102 c 0.59088,0 1.17615,0.0576 1.75574,0.17293 0.57959,0.11529 1.14239,0.28601 1.68835,0.51214 0.54596,0.22615 1.06458,0.50338 1.55597,0.8317 0.49133,0.32831 0.94598,0.7014 1.36389,1.11926 0.41779,0.41786 0.7909,0.87247 1.11927,1.36382 0.32824,0.49135 0.60546,1.01001 0.8316,1.55598 0.22613,0.54598 0.39691,1.10875 0.51221,1.68834 0.11529,0.57961 0.17291,1.16487 0.17297,1.75583 v 42 c -6e-5,0.59094 -0.0577,1.17621 -0.17297,1.75578 -0.1153,0.57959 -0.28608,1.14237 -0.51221,1.68834 -0.22614,0.54596 -0.50336,1.06464 -0.83167,1.556 -0.3283,0.49137 -0.70141,0.94596 -1.1192,1.36383 -0.41791,0.41785 -0.87256,0.79093 -1.36389,1.11923 -0.49139,0.32831 -1.01001,0.60553 -1.55597,0.8317 -0.54596,0.22614 -1.10876,0.39685 -1.68829,0.51218 C 748.17615,260.94232 747.59088,260.99997 747,261 H 645 c -0.59094,-3e-5 -1.17621,-0.0577 -1.7558,-0.17297 -0.57965,-0.1153 -1.14239,-0.28601 -1.68835,-0.51215 -0.54602,-0.22617 -1.0647,-0.50339 -1.55603,-0.8317 -0.49134,-0.3283 -0.94593,-0.70138 -1.36377,-1.11923 -0.41791,-0.41787 -0.79102,-0.87249 -1.11933,-1.36386 -0.3283,-0.49136 -0.60559,-1.01001 -0.83172,-1.55597 -0.22614,-0.54597 -0.39685,-1.10875 -0.51209,-1.68834 C 636.05762,253.17621 636,252.59094 636,252 v -42 c 0,-0.59096 0.0576,-1.17622 0.17291,-1.75581 0.11524,-0.57961 0.28595,-1.14238 0.51209,-1.68836 0.22613,-0.54597 0.50335,-1.06463 0.83166,-1.55598 0.32837,-0.49135 0.70148,-0.94596 1.11939,-1.36382 0.41784,-0.41786 0.87243,-0.79095 1.36377,-1.11928 0.49133,-0.3283 1.01001,-0.60553 1.55603,-0.83168 0.54596,-0.22613 1.1087,-0.39685 1.68835,-0.51214 C 643.82379,201.05765 644.40906,201 645,201 Z"
             style="fill:#ffffff;fill-opacity:1;fill-rule:nonzero;stroke:none"
             id="path146"
             inkscape:connector-curvature="0" /><path
             d="m 645,201 h 102 c 0.59088,0 1.17615,0.0576 1.75574,0.17293 0.57959,0.11529 1.14239,0.28601 1.68835,0.51214 0.54596,0.22615 1.06458,0.50338 1.55597,0.8317 0.49133,0.32831 0.94598,0.7014 1.36389,1.11926 0.41779,0.41786 0.7909,0.87247 1.11927,1.36382 0.32824,0.49135 0.60546,1.01001 0.8316,1.55598 0.22613,0.54598 0.39691,1.10875 0.51221,1.68834 0.11529,0.57961 0.17291,1.16487 0.17297,1.75583 v 42 c -6e-5,0.59094 -0.0577,1.17621 -0.17297,1.75578 -0.1153,0.57959 -0.28608,1.14237 -0.51221,1.68834 -0.22614,0.54596 -0.50336,1.06464 -0.83167,1.556 -0.3283,0.49137 -0.70141,0.94596 -1.1192,1.36383 -0.41791,0.41785 -0.87256,0.79093 -1.36389,1.11923 -0.49139,0.32831 -1.01001,0.60553 -1.55597,0.8317 -0.54596,0.22614 -1.10876,0.39685 -1.68829,0.51218 C 748.17615,260.94232 747.59088,260.99997 747,261 H 645 c -0.59094,-3e-5 -1.17621,-0.0577 -1.7558,-0.17297 -0.57965,-0.1153 -1.14239,-0.28601 -1.68835,-0.51215 -0.54602,-0.22617 -1.0647,-0.50339 -1.55603,-0.8317 -0.49134,-0.3283 -0.94593,-0.70138 -1.36377,-1.11923 -0.41791,-0.41787 -0.79102,-0.87249 -1.11933,-1.36386 -0.3283,-0.49136 -0.60559,-1.01001 -0.83172,-1.55597 -0.22614,-0.54597 -0.39685,-1.10875 -0.51209,-1.68834 C 636.05762,253.17621 636,252.59094 636,252 v -42 c 0,-0.59096 0.0576,-1.17622 0.17291,-1.75581 0.11524,-0.57961 0.28595,-1.14238 0.51209,-1.68836 0.22613,-0.54597 0.50335,-1.06463 0.83166,-1.55598 0.32837,-0.49135 0.70148,-0.94596 1.11939,-1.36382 0.41784,-0.41786 0.87243,-0.79095 1.36377,-1.11928 0.49133,-0.3283 1.01001,-0.60553 1.55603,-0.83168 0.54596,-0.22613 1.1087,-0.39685 1.68835,-0.51214 C 643.82379,201.05765 644.40906,201 645,201 Z"
             style="fill:none;stroke:#000000;stroke-width:1;stroke-linecap:butt;stroke-linejoin:miter;stroke-miterlimit:10;stroke-dasharray:none;stroke-opacity:1"
             id="path148"
             inkscape:connector-curvature="0" /></g><g
           id="g150"
           transform="matrix(2.9956427,0,0,2.9956427,2037.037,674.01959)"><text
             transform="translate(0.09375,11)"
             style="font-variant:normal;font-weight:normal;font-size:12px;font-family:Helvetica;-inkscape-font-specification:Helvetica;writing-mode:lr-tb;fill:#000000;fill-opacity:1;fill-rule:nonzero;stroke:none"
             id="text154"><tspan
               x="0 8.0039062 14.677734 17.800781 21.134766 27.808594"
               y="0"
               sodipodi:role="line"
               id="tspan152">Buffer</tspan></text>
</g><g
           id="g156"
           transform="matrix(2.9956427,0,0,2.9956427,1.4978213,1.4978213)"><path
             d="m 696,361 v 33.63"
             style="fill:none;stroke:#000000;stroke-width:1;stroke-linecap:butt;stroke-linejoin:miter;stroke-miterlimit:10;stroke-dasharray:none;stroke-opacity:1"
             id="path158"
             inkscape:connector-curvature="0" /><path
             d="m 696,399.88 -3.5,-7 3.5,1.75 3.5,-1.75 z"
             style="fill:#000000;fill-opacity:1;fill-rule:nonzero;stroke:none"
             id="path160"
             inkscape:connector-curvature="0" /><path
             d="m 696,399.88 -3.5,-7 3.5,1.75 3.5,-1.75 z"
             style="fill:none;stroke:#000000;stroke-width:1;stroke-linecap:butt;stroke-linejoin:miter;stroke-miterlimit:10;stroke-dasharray:none;stroke-opacity:1"
             id="path162"
             inkscape:connector-curvature="0" /><path
             d="m 696,361 v 20 H 226 V 67.370003"
             style="fill:none;stroke:#000000;stroke-width:1;stroke-linecap:butt;stroke-linejoin:miter;stroke-miterlimit:10;stroke-dasharray:none;stroke-opacity:1"
             id="path164"
             inkscape:connector-curvature="0" /><path
             d="m 226,62.119999 3.5,7.000004 -3.5,-1.75 -3.5,1.75 z"
             style="fill:#000000;fill-opacity:1;fill-rule:nonzero;stroke:none"
             id="path166"
             inkscape:connector-curvature="0" /><path
             d="m 226,62.119999 3.5,7.000004 -3.5,-1.75 -3.5,1.75 z"
             style="fill:none;stroke:#000000;stroke-width:1;stroke-linecap:butt;stroke-linejoin:miter;stroke-miterlimit:10;stroke-dasharray:none;stroke-opacity:1"
             id="path168"
             inkscape:connector-curvature="0" /><path
             d="m 645,301 h 102 c 0.59088,0 1.17615,0.0577 1.75574,0.17291 0.57959,0.1153 1.14239,0.28601 1.68835,0.51215 0.54596,0.22613 1.06458,0.50336 1.55597,0.83166 0.49133,0.32831 0.94598,0.70142 1.36389,1.1193 0.41779,0.41787 0.7909,0.87246 1.11927,1.3638 0.32824,0.49136 0.60546,1.01004 0.8316,1.556 0.22613,0.54596 0.39691,1.10873 0.51221,1.68832 0.11529,0.57962 0.17291,1.16489 0.17297,1.75586 v 42 c -6e-5,0.59091 -0.0577,1.17618 -0.17297,1.75577 -0.1153,0.57962 -0.28608,1.14239 -0.51221,1.68835 -0.22614,0.54596 -0.50336,1.06461 -0.83167,1.55594 -0.3283,0.49136 -0.70141,0.94602 -1.1192,1.36389 -0.41791,0.41785 -0.87256,0.79093 -1.36389,1.11927 -0.49139,0.3283 -1.01001,0.60553 -1.55597,0.83169 -0.54596,0.22617 -1.10876,0.39688 -1.68829,0.51215 C 748.17615,360.94235 747.59088,361 747,361 H 645 c -0.59094,0 -1.17621,-0.0577 -1.7558,-0.17294 -0.57965,-0.11527 -1.14239,-0.28598 -1.68835,-0.51215 -0.54602,-0.22616 -1.0647,-0.50339 -1.55603,-0.83169 -0.49134,-0.32834 -0.94593,-0.70142 -1.36377,-1.11927 -0.41791,-0.41787 -0.79102,-0.87253 -1.11933,-1.36389 -0.3283,-0.49133 -0.60559,-1.00998 -0.83172,-1.55594 -0.22614,-0.54596 -0.39685,-1.10873 -0.51209,-1.68832 C 636.05762,353.17618 636,352.59091 636,352 v -42 c 0,-0.59097 0.0576,-1.17624 0.17291,-1.75586 0.11524,-0.57959 0.28595,-1.14236 0.51209,-1.68832 0.22613,-0.54596 0.50335,-1.06464 0.83166,-1.556 0.32837,-0.49134 0.70148,-0.94593 1.11939,-1.3638 0.41784,-0.41788 0.87243,-0.79099 1.36377,-1.1193 0.49133,-0.3283 1.01001,-0.60553 1.55603,-0.83166 0.54596,-0.22614 1.1087,-0.39685 1.68835,-0.51215 C 643.82379,301.05765 644.40906,301 645,301 Z"
             style="fill:#ffffff;fill-opacity:1;fill-rule:nonzero;stroke:none"
             id="path170"
             inkscape:connector-curvature="0" /><path
             d="m 645,301 h 102 c 0.59088,0 1.17615,0.0577 1.75574,0.17291 0.57959,0.1153 1.14239,0.28601 1.68835,0.51215 0.54596,0.22613 1.06458,0.50336 1.55597,0.83166 0.49133,0.32831 0.94598,0.70142 1.36389,1.1193 0.41779,0.41787 0.7909,0.87246 1.11927,1.3638 0.32824,0.49136 0.60546,1.01004 0.8316,1.556 0.22613,0.54596 0.39691,1.10873 0.51221,1.68832 0.11529,0.57962 0.17291,1.16489 0.17297,1.75586 v 42 c -6e-5,0.59091 -0.0577,1.17618 -0.17297,1.75577 -0.1153,0.57962 -0.28608,1.14239 -0.51221,1.68835 -0.22614,0.54596 -0.50336,1.06461 -0.83167,1.55594 -0.3283,0.49136 -0.70141,0.94602 -1.1192,1.36389 -0.41791,0.41785 -0.87256,0.79093 -1.36389,1.11927 -0.49139,0.3283 -1.01001,0.60553 -1.55597,0.83169 -0.54596,0.22617 -1.10876,0.39688 -1.68829,0.51215 C 748.17615,360.94235 747.59088,361 747,361 H 645 c -0.59094,0 -1.17621,-0.0577 -1.7558,-0.17294 -0.57965,-0.11527 -1.14239,-0.28598 -1.68835,-0.51215 -0.54602,-0.22616 -1.0647,-0.50339 -1.55603,-0.83169 -0.49134,-0.32834 -0.94593,-0.70142 -1.36377,-1.11927 -0.41791,-0.41787 -0.79102,-0.87253 -1.11933,-1.36389 -0.3283,-0.49133 -0.60559,-1.00998 -0.83172,-1.55594 -0.22614,-0.54596 -0.39685,-1.10873 -0.51209,-1.68832 C 636.05762,353.17618 636,352.59091 636,352 v -42 c 0,-0.59097 0.0576,-1.17624 0.17291,-1.75586 0.11524,-0.57959 0.28595,-1.14236 0.51209,-1.68832 0.22613,-0.54596 0.50335,-1.06464 0.83166,-1.556 0.32837,-0.49134 0.70148,-0.94593 1.11939,-1.3638 0.41784,-0.41788 0.87243,-0.79099 1.36377,-1.1193 0.49133,-0.3283 1.01001,-0.60553 1.55603,-0.83166 0.54596,-0.22614 1.1087,-0.39685 1.68835,-0.51215 C 643.82379,301.05765 644.40906,301 645,301 Z"
             style="fill:none;stroke:#000000;stroke-width:1;stroke-linecap:butt;stroke-linejoin:miter;stroke-miterlimit:10;stroke-dasharray:none;stroke-opacity:1"
             id="path172"
             inkscape:connector-curvature="0" /></g><g
           id="g174"
           transform="matrix(2.9956427,0,0,2.9956427,1971.1328,973.58386)"><text
             transform="translate(0.984375,11)"
             style="font-variant:normal;font-weight:normal;font-size:12px;font-family:Helvetica;-inkscape-font-specification:Helvetica;writing-mode:lr-tb;fill:#000000;fill-opacity:1;fill-rule:nonzero;stroke:none"
             id="text178"><tspan
               x="0 8.0039062 10.669922 17.34375 23.34375 30.017578 33.351562 39.351562 46.025391 56.021484 62.695312 65.361328 72.035156"
               y="0"
               sodipodi:role="line"
               id="tspan176">Slave sampler</tspan></text>
</g><g
           id="g180"
           transform="matrix(2.9956427,0,0,2.9956427,1.4978213,1.4978213)"><path
             d="m 696,461 v 20 h 1 -501 V 67.370003"
             style="fill:none;stroke:#000000;stroke-width:1;stroke-linecap:butt;stroke-linejoin:miter;stroke-miterlimit:10;stroke-dasharray:none;stroke-opacity:1"
             id="path182"
             inkscape:connector-curvature="0" /><path
             d="m 196,62.119999 3.5,7.000004 -3.5,-1.75 -3.5,1.75 z"
             style="fill:#000000;fill-opacity:1;fill-rule:nonzero;stroke:none"
             id="path184"
             inkscape:connector-curvature="0" /><path
             d="m 196,62.119999 3.5,7.000004 -3.5,-1.75 -3.5,1.75 z"
             style="fill:none;stroke:#000000;stroke-width:1;stroke-linecap:butt;stroke-linejoin:miter;stroke-miterlimit:10;stroke-dasharray:none;stroke-opacity:1"
             id="path186"
             inkscape:connector-curvature="0" /><path
             d="m 645,401 h 102 c 0.59088,0 1.17615,0.0577 1.75574,0.17294 0.57959,0.11527 1.14239,0.28598 1.68835,0.51212 0.54596,0.22613 1.06458,0.50336 1.55597,0.83166 0.49133,0.32834 0.94598,0.70142 1.36389,1.1193 0.41779,0.41784 0.7909,0.87243 1.11927,1.36377 0.32824,0.49136 0.60546,1.01001 0.8316,1.556 0.22613,0.54596 0.39691,1.10876 0.51221,1.68838 0.11529,0.57956 0.17291,1.16486 0.17297,1.75583 v 42 c -6e-5,0.59091 -0.0577,1.17618 -0.17297,1.75574 -0.1153,0.57959 -0.28608,1.14236 -0.51221,1.68832 -0.22614,0.54599 -0.50336,1.06464 -0.83167,1.556 -0.3283,0.49136 -0.70141,0.94598 -1.1192,1.36386 -0.41791,0.41785 -0.87256,0.79093 -1.36389,1.11923 -0.49139,0.32831 -1.01001,0.60553 -1.55597,0.8317 -0.54596,0.22614 -1.10876,0.39685 -1.68829,0.51215 -0.57965,0.11532 -1.16492,0.17297 -1.7558,0.173 H 645 c -0.59094,-3e-5 -1.17621,-0.0577 -1.7558,-0.173 -0.57965,-0.1153 -1.14239,-0.28601 -1.68835,-0.51215 -0.54602,-0.22617 -1.0647,-0.50339 -1.55603,-0.8317 -0.49134,-0.3283 -0.94593,-0.70138 -1.36377,-1.11923 -0.41791,-0.41788 -0.79102,-0.87246 -1.11933,-1.36383 -0.3283,-0.49136 -0.60559,-1.01004 -0.83172,-1.55603 -0.22614,-0.54596 -0.39685,-1.10873 -0.51209,-1.68832 C 636.05762,453.17618 636,452.59091 636,452 v -42 c 0,-0.59097 0.0576,-1.17627 0.17291,-1.75586 0.11524,-0.57962 0.28595,-1.14239 0.51209,-1.68835 0.22613,-0.54599 0.50335,-1.06464 0.83166,-1.556 0.32837,-0.49134 0.70148,-0.94593 1.11939,-1.36377 0.41784,-0.41788 0.87243,-0.79096 1.36377,-1.11927 0.49133,-0.32833 1.01001,-0.60556 1.55603,-0.83169 0.54596,-0.22614 1.1087,-0.39685 1.68835,-0.51212 C 643.82379,401.05765 644.40906,401 645,401 Z"
             style="fill:#ffffff;fill-opacity:1;fill-rule:nonzero;stroke:none"
             id="path188"
             inkscape:connector-curvature="0" /><path
             d="m 645,401 h 102 c 0.59088,0 1.17615,0.0577 1.75574,0.17294 0.57959,0.11527 1.14239,0.28598 1.68835,0.51212 0.54596,0.22613 1.06458,0.50336 1.55597,0.83166 0.49133,0.32834 0.94598,0.70142 1.36389,1.1193 0.41779,0.41784 0.7909,0.87243 1.11927,1.36377 0.32824,0.49136 0.60546,1.01001 0.8316,1.556 0.22613,0.54596 0.39691,1.10876 0.51221,1.68838 0.11529,0.57956 0.17291,1.16486 0.17297,1.75583 v 42 c -6e-5,0.59091 -0.0577,1.17618 -0.17297,1.75574 -0.1153,0.57959 -0.28608,1.14236 -0.51221,1.68832 -0.22614,0.54599 -0.50336,1.06464 -0.83167,1.556 -0.3283,0.49136 -0.70141,0.94598 -1.1192,1.36386 -0.41791,0.41785 -0.87256,0.79093 -1.36389,1.11923 -0.49139,0.32831 -1.01001,0.60553 -1.55597,0.8317 -0.54596,0.22614 -1.10876,0.39685 -1.68829,0.51215 -0.57965,0.11532 -1.16492,0.17297 -1.7558,0.173 H 645 c -0.59094,-3e-5 -1.17621,-0.0577 -1.7558,-0.173 -0.57965,-0.1153 -1.14239,-0.28601 -1.68835,-0.51215 -0.54602,-0.22617 -1.0647,-0.50339 -1.55603,-0.8317 -0.49134,-0.3283 -0.94593,-0.70138 -1.36377,-1.11923 -0.41791,-0.41788 -0.79102,-0.87246 -1.11933,-1.36383 -0.3283,-0.49136 -0.60559,-1.01004 -0.83172,-1.55603 -0.22614,-0.54596 -0.39685,-1.10873 -0.51209,-1.68832 C 636.05762,453.17618 636,452.59091 636,452 v -42 c 0,-0.59097 0.0576,-1.17627 0.17291,-1.75586 0.11524,-0.57962 0.28595,-1.14239 0.51209,-1.68835 0.22613,-0.54599 0.50335,-1.06464 0.83166,-1.556 0.32837,-0.49134 0.70148,-0.94593 1.11939,-1.36377 0.41784,-0.41788 0.87243,-0.79096 1.36377,-1.11927 0.49133,-0.32833 1.01001,-0.60556 1.55603,-0.83169 0.54596,-0.22614 1.1087,-0.39685 1.68835,-0.51212 C 643.82379,401.05765 644.40906,401 645,401 Z"
             style="fill:none;stroke:#000000;stroke-width:1;stroke-linecap:butt;stroke-linejoin:miter;stroke-miterlimit:10;stroke-dasharray:none;stroke-opacity:1"
             id="path190"
             inkscape:connector-curvature="0" /></g><g
           id="g192"
           transform="matrix(2.9956427,0,0,2.9956427,1983.1155,1252.1786)"><text
             transform="translate(0.3125,11)"
             style="font-variant:normal;font-weight:normal;font-size:12px;font-family:Helvetica;-inkscape-font-specification:Helvetica;writing-mode:lr-tb;fill:#000000;fill-opacity:1;fill-rule:nonzero;stroke:none"
             id="text196"><tspan
               x="0 6.6738281 13.347656 20.021484 26.695312 30.691406 33.357422 36.691406 46.6875 49.353516 55.353516 61.353516"
               y="0"
               sodipodi:role="line"
               id="tspan194">Logaritmický</tspan></text>
<text
             transform="translate(12.3125,25)"
             style="font-variant:normal;font-weight:normal;font-size:12px;font-family:Helvetica;-inkscape-font-specification:Helvetica;writing-mode:lr-tb;fill:#000000;fill-opacity:1;fill-rule:nonzero;stroke:none"
             id="text200"><tspan
               x="0 6.6738281 13.347656 16.681641 23.355469 29.355469 32.689453 39.363281"
               y="0"
               sodipodi:role="line"
               id="tspan198">detektor</tspan></text>
</g><g
           id="g202"
           transform="matrix(2.9956427,0,0,2.9956427,1.4978213,1.4978213)"><path
             d="m 286,31 h 33.63"
             style="fill:none;stroke:#000000;stroke-width:1;stroke-linecap:butt;stroke-linejoin:miter;stroke-miterlimit:10;stroke-dasharray:none;stroke-opacity:1"
             id="path204"
             inkscape:connector-curvature="0" /><path
             d="m 324.88,31 -7,3.5 1.75,-3.5 -1.75,-3.5 z"
             style="fill:#000000;fill-opacity:1;fill-rule:nonzero;stroke:none"
             id="path206"
             inkscape:connector-curvature="0" /><path
             d="m 324.88,31 -7,3.5 1.75,-3.5 -1.75,-3.5 z"
             style="fill:none;stroke:#000000;stroke-width:1;stroke-linecap:butt;stroke-linejoin:miter;stroke-miterlimit:10;stroke-dasharray:none;stroke-opacity:1"
             id="path208"
             inkscape:connector-curvature="0" /><path
             d="m 286,31 h 25 v 200 h 163.63"
             style="fill:none;stroke:#000000;stroke-width:1;stroke-linecap:butt;stroke-linejoin:miter;stroke-miterlimit:10;stroke-dasharray:none;stroke-opacity:1"
             id="path210"
             inkscape:connector-curvature="0" /><path
             d="m 479.88,231 -7,3.5 1.75,-3.5 -1.75,-3.5 z"
             style="fill:#000000;fill-opacity:1;fill-rule:nonzero;stroke:none"
             id="path212"
             inkscape:connector-curvature="0" /><path
             d="m 479.88,231 -7,3.5 1.75,-3.5 -1.75,-3.5 z"
             style="fill:none;stroke:#000000;stroke-width:1;stroke-linecap:butt;stroke-linejoin:miter;stroke-miterlimit:10;stroke-dasharray:none;stroke-opacity:1"
             id="path214"
             inkscape:connector-curvature="0" /><path
             d="m 175,1 h 102 c 0.59094,0 1.17621,0.057644 1.7558,0.1729325 0.57959,0.1152883 1.14236,0.2860055 1.68832,0.5121516 0.54593,0.2261462 1.06461,0.503376 1.55597,0.8316891 0.49137,0.3283134 0.94599,0.7014017 1.36386,1.1192653 0.41785,0.4178636 0.79093,0.8724735 1.11923,1.3638289 0.32831,0.4913555 0.60553,1.0100155 0.8317,1.5559807 0.22617,0.5459657 0.39688,1.1087451 0.51215,1.6883383 C 285.94235,8.8237801 286,9.4090509 286,10 v 42 c 0,0.590946 -0.0577,1.176216 -0.17297,1.755806 -0.11527,0.579594 -0.28598,1.142376 -0.51215,1.688339 -0.22617,0.545963 -0.50339,1.064621 -0.8317,1.555977 -0.3283,0.491356 -0.70138,0.945969 -1.11923,1.363834 -0.41787,0.417866 -0.87249,0.790955 -1.36386,1.119267 -0.49136,0.328312 -1.01004,0.605537 -1.55597,0.831684 -0.54596,0.226147 -1.10873,0.396866 -1.68832,0.512154 C 278.17621,60.942352 277.59094,60.999996 277,61 H 175 c -0.59096,-4e-6 -1.17624,-0.05765 -1.75584,-0.172939 -0.57959,-0.115288 -1.14237,-0.286007 -1.68834,-0.512154 -0.54598,-0.226147 -1.06464,-0.503376 -1.55599,-0.831688 -0.49135,-0.328312 -0.94594,-0.701397 -1.3638,-1.119263 -0.41786,-0.417865 -0.79095,-0.872478 -1.11928,-1.36383 -0.3283,-0.49136 -0.60553,-1.010018 -0.83168,-1.555981 -0.22615,-0.545963 -0.39686,-1.108745 -0.51214,-1.688339 C 166.05765,53.176216 166,52.590946 166,52 V 10 c 0,-0.5909491 0.0576,-1.1762199 0.17293,-1.7558136 0.11528,-0.5795932 0.28599,-1.1423726 0.51214,-1.6883383 0.22615,-0.5459652 0.50338,-1.0646257 0.8317,-1.5559811 0.32831,-0.4913555 0.7014,-0.9459649 1.11926,-1.3638285 0.41786,-0.4178636 0.87247,-0.7909519 1.36382,-1.1192653 0.49135,-0.3283133 1.00999,-0.6055431 1.55597,-0.8316892 0.54597,-0.2261461 1.10875,-0.3968634 1.68834,-0.5121516 C 173.82376,1.0576441 174.40904,1 175,1 Z"
             style="fill:#ffffff;fill-opacity:1;fill-rule:nonzero;stroke:none"
             id="path216"
             inkscape:connector-curvature="0" /><path
             d="m 175,1 h 102 c 0.59094,0 1.17621,0.057644 1.7558,0.1729325 0.57959,0.1152883 1.14236,0.2860055 1.68832,0.5121516 0.54593,0.2261462 1.06461,0.503376 1.55597,0.8316891 0.49137,0.3283134 0.94599,0.7014017 1.36386,1.1192653 0.41785,0.4178636 0.79093,0.8724735 1.11923,1.3638289 0.32831,0.4913555 0.60553,1.0100155 0.8317,1.5559807 0.22617,0.5459657 0.39688,1.1087451 0.51215,1.6883383 C 285.94235,8.8237801 286,9.4090509 286,10 v 42 c 0,0.590946 -0.0577,1.176216 -0.17297,1.755806 -0.11527,0.579594 -0.28598,1.142376 -0.51215,1.688339 -0.22617,0.545963 -0.50339,1.064621 -0.8317,1.555977 -0.3283,0.491356 -0.70138,0.945969 -1.11923,1.363834 -0.41787,0.417866 -0.87249,0.790955 -1.36386,1.119267 -0.49136,0.328312 -1.01004,0.605537 -1.55597,0.831684 -0.54596,0.226147 -1.10873,0.396866 -1.68832,0.512154 C 278.17621,60.942352 277.59094,60.999996 277,61 H 175 c -0.59096,-4e-6 -1.17624,-0.05765 -1.75584,-0.172939 -0.57959,-0.115288 -1.14237,-0.286007 -1.68834,-0.512154 -0.54598,-0.226147 -1.06464,-0.503376 -1.55599,-0.831688 -0.49135,-0.328312 -0.94594,-0.701397 -1.3638,-1.119263 -0.41786,-0.417865 -0.79095,-0.872478 -1.11928,-1.36383 -0.3283,-0.49136 -0.60553,-1.010018 -0.83168,-1.555981 -0.22615,-0.545963 -0.39686,-1.108745 -0.51214,-1.688339 C 166.05765,53.176216 166,52.590946 166,52 V 10 c 0,-0.5909491 0.0576,-1.1762199 0.17293,-1.7558136 0.11528,-0.5795932 0.28599,-1.1423726 0.51214,-1.6883383 0.22615,-0.5459652 0.50338,-1.0646257 0.8317,-1.5559811 0.32831,-0.4913555 0.7014,-0.9459649 1.11926,-1.3638285 0.41786,-0.4178636 0.87247,-0.7909519 1.36382,-1.1192653 0.49135,-0.3283133 1.00999,-0.6055431 1.55597,-0.8316892 0.54597,-0.2261461 1.10875,-0.3968634 1.68834,-0.5121516 C 173.82376,1.0576441 174.40904,1 175,1 Z"
             style="fill:none;stroke:#000000;stroke-width:1;stroke-linecap:butt;stroke-linejoin:miter;stroke-miterlimit:10;stroke-dasharray:none;stroke-opacity:1"
             id="path218"
             inkscape:connector-curvature="0" /></g><g
           id="g220"
           transform="matrix(2.9956427,0,0,2.9956427,563.18085,74.891068)"><text
             transform="translate(0.984375,11)"
             style="font-variant:normal;font-weight:normal;font-size:12px;font-family:Helvetica;-inkscape-font-specification:Helvetica;writing-mode:lr-tb;fill:#000000;fill-opacity:1;fill-rule:nonzero;stroke:none"
             id="text224"><tspan
               x="0 9.9960938 12.662109 18.662109 22.658203 29.332031 35.332031 42.005859 48.679688 52.013672 56.009766 62.683594 65.349609 72.023438"
               y="0"
               sodipodi:role="line"
               id="tspan222">Mikrokontrolér</tspan></text>
</g><g
           id="g226"
           transform="matrix(2.9956427,0,0,2.9956427,889.70587,35.947712)"><text
             transform="translate(0.015625,11)"
             style="font-variant:normal;font-weight:normal;font-size:12px;font-family:Helvetica;-inkscape-font-specification:Helvetica;writing-mode:lr-tb;fill:#000000;fill-opacity:1;fill-rule:nonzero;stroke:none"
             id="text230"><tspan
               x="0"
               y="0"
               id="tspan228">I</tspan></text>
<text
             transform="translate(3.34375,14)"
             style="font-variant:normal;font-weight:normal;font-size:10px;font-family:Helvetica;-inkscape-font-specification:Helvetica;writing-mode:lr-tb;fill:#000000;fill-opacity:1;fill-rule:nonzero;stroke:none"
             id="text234"><tspan
               x="0"
               y="0"
               id="tspan232">2</tspan></text>
<text
             transform="translate(8.890625,11)"
             style="font-variant:normal;font-weight:normal;font-size:12px;font-family:Helvetica;-inkscape-font-specification:Helvetica;writing-mode:lr-tb;fill:#000000;fill-opacity:1;fill-rule:nonzero;stroke:none"
             id="text238"><tspan
               x="0"
               y="0"
               id="tspan236">C</tspan></text>
</g><g
           id="g240"
           transform="matrix(2.9956427,0,0,2.9956427,799.83661,281.59042)"><text
             transform="translate(0,11)"
             style="font-variant:normal;font-weight:normal;font-size:12px;font-family:Helvetica;-inkscape-font-specification:Helvetica;writing-mode:lr-tb;fill:#000000;fill-opacity:1;fill-rule:nonzero;stroke:none"
             id="text244"><tspan
               x="0 6.890625 10.886719 13.552734 20.226562 26.900391 33.574219"
               y="0"
               sodipodi:role="line"
               id="tspan242">Trigger</tspan></text>
</g><g
           id="g246"
           transform="matrix(2.9956427,0,0,2.9956427,1.4978213,1.4978213)"><path
             d="m 127.37,31 h 32.26"
             style="fill:none;stroke:#000000;stroke-width:1;stroke-linecap:butt;stroke-linejoin:miter;stroke-miterlimit:10;stroke-dasharray:none;stroke-opacity:1"
             id="path248"
             inkscape:connector-curvature="0" /><path
             d="m 122.12,31 6.99999,-3.5 -1.74999,3.5 1.74999,3.5 z"
             style="fill:#000000;fill-opacity:1;fill-rule:nonzero;stroke:none"
             id="path250"
             inkscape:connector-curvature="0" /><path
             d="m 122.12,31 6.99999,-3.5 -1.74999,3.5 1.74999,3.5 z"
             style="fill:none;stroke:#000000;stroke-width:1;stroke-linecap:butt;stroke-linejoin:miter;stroke-miterlimit:10;stroke-dasharray:none;stroke-opacity:1"
             id="path252"
             inkscape:connector-curvature="0" /><path
             d="m 164.88,31 -7,3.5 1.75,-3.5 -1.75,-3.5 z"
             style="fill:#000000;fill-opacity:1;fill-rule:nonzero;stroke:none"
             id="path254"
             inkscape:connector-curvature="0" /><path
             d="m 164.88,31 -7,3.5 1.75,-3.5 -1.75,-3.5 z"
             style="fill:none;stroke:#000000;stroke-width:1;stroke-linecap:butt;stroke-linejoin:miter;stroke-miterlimit:10;stroke-dasharray:none;stroke-opacity:1"
             id="path256"
             inkscape:connector-curvature="0" /><path
             d="m 10,1 h 102 c 0.59095,0 1.17622,0.057644 1.75581,0.1729325 0.57958,0.1152883 1.14236,0.2860055 1.68833,0.5121516 0.54597,0.2261462 1.06463,0.503376 1.55598,0.8316891 0.49136,0.3283134 0.94597,0.7014017 1.36383,1.1192653 0.41787,0.4178636 0.79096,0.8724735 1.11927,1.3638289 0.32831,0.4913555 0.60554,1.0100155 0.83168,1.5559807 0.22615,0.5459657 0.39688,1.1087451 0.51217,1.6883383 C 120.94235,8.8237801 121,9.4090509 121,10 v 42 c 0,0.590946 -0.0576,1.176216 -0.17293,1.755806 -0.11529,0.579594 -0.28602,1.142376 -0.51217,1.688339 -0.22614,0.545963 -0.50337,1.064621 -0.83168,1.555977 -0.32832,0.491356 -0.7014,0.945969 -1.11927,1.363834 -0.41786,0.417866 -0.87246,0.790955 -1.36382,1.119267 -0.49136,0.328312 -1.01002,0.605537 -1.55599,0.831684 -0.54597,0.226147 -1.10875,0.396866 -1.68834,0.512154 C 113.17622,60.942352 112.59095,60.999996 112,61 H 10 C 9.4090509,60.999996 8.8237801,60.942352 8.2441864,60.827061 7.6645932,60.711773 7.1018138,60.541054 6.5558481,60.314907 6.0098829,60.08876 5.4912224,59.811531 4.999867,59.483219 4.5085115,59.154907 4.0539021,58.781822 3.6360385,58.363956 3.2181749,57.946091 2.8450866,57.491478 2.5167732,57.000126 2.1884599,56.508766 1.9112301,55.990108 1.685084,55.444145 1.4589379,54.898182 1.2882206,54.3354 1.1729323,53.755806 1.057644,53.176216 0.99999994,52.590946 1,52 V 10 C 0.99999994,9.4090509 1.057644,8.8237801 1.1729323,8.2441864 1.2882206,7.6645932 1.4589379,7.1018138 1.685084,6.5558481 1.9112301,6.0098829 2.1884599,5.4912224 2.516773,4.999867 2.8450866,4.5085115 3.2181749,4.0539021 3.6360385,3.6360385 4.0539021,3.2181749 4.508512,2.8450866 4.9998674,2.5167732 5.4912229,2.1884599 6.0098829,1.9112301 6.5558481,1.685084 7.1018138,1.4589379 7.6645932,1.2882206 8.2441864,1.1729324 8.8237801,1.0576441 9.4090509,1 10,1 Z"
             style="fill:#ffffff;fill-opacity:1;fill-rule:nonzero;stroke:none"
             id="path258"
             inkscape:connector-curvature="0" /><path
             d="m 10,1 h 102 c 0.59095,0 1.17622,0.057644 1.75581,0.1729325 0.57958,0.1152883 1.14236,0.2860055 1.68833,0.5121516 0.54597,0.2261462 1.06463,0.503376 1.55598,0.8316891 0.49136,0.3283134 0.94597,0.7014017 1.36383,1.1192653 0.41787,0.4178636 0.79096,0.8724735 1.11927,1.3638289 0.32831,0.4913555 0.60554,1.0100155 0.83168,1.5559807 0.22615,0.5459657 0.39688,1.1087451 0.51217,1.6883383 C 120.94235,8.8237801 121,9.4090509 121,10 v 42 c 0,0.590946 -0.0576,1.176216 -0.17293,1.755806 -0.11529,0.579594 -0.28602,1.142376 -0.51217,1.688339 -0.22614,0.545963 -0.50337,1.064621 -0.83168,1.555977 -0.32832,0.491356 -0.7014,0.945969 -1.11927,1.363834 -0.41786,0.417866 -0.87246,0.790955 -1.36382,1.119267 -0.49136,0.328312 -1.01002,0.605537 -1.55599,0.831684 -0.54597,0.226147 -1.10875,0.396866 -1.68834,0.512154 C 113.17622,60.942352 112.59095,60.999996 112,61 H 10 C 9.4090509,60.999996 8.8237801,60.942352 8.2441864,60.827061 7.6645932,60.711773 7.1018138,60.541054 6.5558481,60.314907 6.0098829,60.08876 5.4912224,59.811531 4.999867,59.483219 4.5085115,59.154907 4.0539021,58.781822 3.6360385,58.363956 3.2181749,57.946091 2.8450866,57.491478 2.5167732,57.000126 2.1884599,56.508766 1.9112301,55.990108 1.685084,55.444145 1.4589379,54.898182 1.2882206,54.3354 1.1729323,53.755806 1.057644,53.176216 0.99999994,52.590946 1,52 V 10 C 0.99999994,9.4090509 1.057644,8.8237801 1.1729323,8.2441864 1.2882206,7.6645932 1.4589379,7.1018138 1.685084,6.5558481 1.9112301,6.0098829 2.1884599,5.4912224 2.516773,4.999867 2.8450866,4.5085115 3.2181749,4.0539021 3.6360385,3.6360385 4.0539021,3.2181749 4.508512,2.8450866 4.9998674,2.5167732 5.4912229,2.1884599 6.0098829,1.9112301 6.5558481,1.685084 7.1018138,1.4589379 7.6645932,1.2882206 8.2441864,1.1729324 8.8237801,1.0576441 9.4090509,1 10,1 Z"
             style="fill:none;stroke:#000000;stroke-width:1;stroke-linecap:butt;stroke-linejoin:miter;stroke-miterlimit:10;stroke-dasharray:none;stroke-opacity:1"
             id="path260"
             inkscape:connector-curvature="0" /></g><g
           id="g262"
           transform="matrix(2.9956427,0,0,2.9956427,158.76906,74.891068)"><text
             transform="translate(0.65625,11)"
             style="font-variant:normal;font-weight:normal;font-size:12px;font-family:Helvetica;-inkscape-font-specification:Helvetica;writing-mode:lr-tb;fill:#000000;fill-opacity:1;fill-rule:nonzero;stroke:none"
             id="text266"><tspan
               x="0 8.0039062"
               y="0"
               sodipodi:role="line"
               id="tspan264">PC</tspan></text>
</g><g
           id="g268"
           transform="matrix(2.9956427,0,0,2.9956427,398.42047,41.938995)"><text
             transform="translate(0,11)"
             style="font-variant:normal;font-weight:normal;font-size:12px;font-family:Helvetica;-inkscape-font-specification:Helvetica;writing-mode:lr-tb;fill:#000000;fill-opacity:1;fill-rule:nonzero;stroke:none"
             id="text272"><tspan
               x="0 8.6660156 16.669922"
               y="0"
               sodipodi:role="line"
               id="tspan270">USB</tspan></text>
</g><g
           id="g274"
           transform="matrix(2.9956427,0,0,2.9956427,1.4978213,1.4978213)"><path
             d="m 601,31 h 28.63"
             style="fill:none;stroke:#000000;stroke-width:1;stroke-linecap:butt;stroke-linejoin:miter;stroke-miterlimit:10;stroke-dasharray:none;stroke-opacity:1"
             id="path276"
             inkscape:connector-curvature="0" /><path
             d="m 634.88,31 -7,3.5 1.75,-3.5 -1.75,-3.5 z"
             style="fill:#000000;fill-opacity:1;fill-rule:nonzero;stroke:none"
             id="path278"
             inkscape:connector-curvature="0" /><path
             d="m 634.88,31 -7,3.5 1.75,-3.5 -1.75,-3.5 z"
             style="fill:none;stroke:#000000;stroke-width:1;stroke-linecap:butt;stroke-linejoin:miter;stroke-miterlimit:10;stroke-dasharray:none;stroke-opacity:1"
             id="path280"
             inkscape:connector-curvature="0" /><path
             d="m 490,1 h 102 c 0.59088,0 1.17615,0.057644 1.7558,0.1729325 0.57959,0.1152883 1.14239,0.2860055 1.68835,0.5121516 0.54596,0.2261462 1.06458,0.503376 1.55597,0.8316891 0.4914,0.3283134 0.94599,0.7014017 1.36383,1.1192653 0.41785,0.4178636 0.79096,0.8724735 1.11927,1.3638289 0.3283,0.4913555 0.60553,1.0100155 0.83166,1.5559807 0.22614,0.5459657 0.39685,1.1087451 0.51215,1.6883383 C 600.94232,8.8237801 600.99994,9.4090509 601,10 v 42 c -6e-5,0.590946 -0.0577,1.176216 -0.17297,1.755806 -0.1153,0.579594 -0.28601,1.142376 -0.51215,1.688339 -0.22613,0.545963 -0.50336,1.064621 -0.83166,1.555977 -0.32831,0.491356 -0.70142,0.945969 -1.11927,1.363834 -0.41784,0.417866 -0.87243,0.790955 -1.36383,1.119267 -0.49139,0.328312 -1.01001,0.605537 -1.55597,0.831684 -0.54596,0.226147 -1.10876,0.396866 -1.68835,0.512154 C 593.17615,60.942352 592.59088,60.999996 592,61 H 490 c -0.59097,-4e-6 -1.17624,-0.05765 -1.75583,-0.172939 -0.57962,-0.115288 -1.14239,-0.286007 -1.68835,-0.512154 -0.54599,-0.226147 -1.06464,-0.503376 -1.556,-0.831688 -0.49137,-0.328312 -0.94599,-0.701397 -1.36383,-1.119263 -0.41788,-0.417865 -0.79096,-0.872478 -1.11927,-1.36383 -0.32833,-0.49136 -0.60556,-1.010018 -0.83169,-1.555981 -0.22614,-0.545963 -0.39685,-1.108745 -0.51212,-1.688339 C 481.05762,53.176216 480.99997,52.590946 481,52 V 10 c -3e-5,-0.5909491 0.0576,-1.1762199 0.17291,-1.7558136 0.11527,-0.5795932 0.28598,-1.1423726 0.51212,-1.6883383 0.22613,-0.5459652 0.50336,-1.0646257 0.83169,-1.5559811 0.32831,-0.4913555 0.70139,-0.9459649 1.11927,-1.3638285 0.41784,-0.4178636 0.87243,-0.7909519 1.3638,-1.1192653 0.49136,-0.3283133 1.01004,-0.6055431 1.55603,-0.8316892 0.54596,-0.2261461 1.10873,-0.3968634 1.68835,-0.5121516 C 488.82376,1.0576441 489.40903,1 490,1 Z"
             style="fill:#ffffff;fill-opacity:1;fill-rule:nonzero;stroke:none"
             id="path282"
             inkscape:connector-curvature="0" /><path
             d="m 490,1 h 102 c 0.59088,0 1.17615,0.057644 1.7558,0.1729325 0.57959,0.1152883 1.14239,0.2860055 1.68835,0.5121516 0.54596,0.2261462 1.06458,0.503376 1.55597,0.8316891 0.4914,0.3283134 0.94599,0.7014017 1.36383,1.1192653 0.41785,0.4178636 0.79096,0.8724735 1.11927,1.3638289 0.3283,0.4913555 0.60553,1.0100155 0.83166,1.5559807 0.22614,0.5459657 0.39685,1.1087451 0.51215,1.6883383 C 600.94232,8.8237801 600.99994,9.4090509 601,10 v 42 c -6e-5,0.590946 -0.0577,1.176216 -0.17297,1.755806 -0.1153,0.579594 -0.28601,1.142376 -0.51215,1.688339 -0.22613,0.545963 -0.50336,1.064621 -0.83166,1.555977 -0.32831,0.491356 -0.70142,0.945969 -1.11927,1.363834 -0.41784,0.417866 -0.87243,0.790955 -1.36383,1.119267 -0.49139,0.328312 -1.01001,0.605537 -1.55597,0.831684 -0.54596,0.226147 -1.10876,0.396866 -1.68835,0.512154 C 593.17615,60.942352 592.59088,60.999996 592,61 H 490 c -0.59097,-4e-6 -1.17624,-0.05765 -1.75583,-0.172939 -0.57962,-0.115288 -1.14239,-0.286007 -1.68835,-0.512154 -0.54599,-0.226147 -1.06464,-0.503376 -1.556,-0.831688 -0.49137,-0.328312 -0.94599,-0.701397 -1.36383,-1.119263 -0.41788,-0.417865 -0.79096,-0.872478 -1.11927,-1.36383 -0.32833,-0.49136 -0.60556,-1.010018 -0.83169,-1.555981 -0.22614,-0.545963 -0.39685,-1.108745 -0.51212,-1.688339 C 481.05762,53.176216 480.99997,52.590946 481,52 V 10 c -3e-5,-0.5909491 0.0576,-1.1762199 0.17291,-1.7558136 0.11527,-0.5795932 0.28598,-1.1423726 0.51212,-1.6883383 0.22613,-0.5459652 0.50336,-1.0646257 0.83169,-1.5559811 0.32831,-0.4913555 0.70139,-0.9459649 1.11927,-1.3638285 0.41784,-0.4178636 0.87243,-0.7909519 1.3638,-1.1192653 0.49136,-0.3283133 1.01004,-0.6055431 1.55603,-0.8316892 0.54596,-0.2261461 1.10873,-0.3968634 1.68835,-0.5121516 C 488.82376,1.0576441 489.40903,1 490,1 Z"
             style="fill:none;stroke:#000000;stroke-width:1;stroke-linecap:butt;stroke-linejoin:miter;stroke-miterlimit:10;stroke-dasharray:none;stroke-opacity:1"
             id="path284"
             inkscape:connector-curvature="0" /></g><g
           id="g286"
           transform="matrix(2.9956427,0,0,2.9956427,1530.7734,74.891068)"><text
             transform="translate(0.421875,11)"
             style="font-variant:normal;font-weight:normal;font-size:12px;font-family:Helvetica;-inkscape-font-specification:Helvetica;writing-mode:lr-tb;fill:#000000;fill-opacity:1;fill-rule:nonzero;stroke:none"
             id="text290"><tspan
               x="0 8.6660156 18.662109 25.335938 28.669922 35.34375 42.017578 45.140625 48.474609 55.148438"
               y="0"
               sodipodi:role="line"
               id="tspan288">CML buffer</tspan></text>
</g><g
           id="g292"
           transform="matrix(2.9956427,0,0,2.9956427,1108.3878,1090.4139)"><text
             transform="translate(0,11)"
             style="font-variant:normal;font-weight:normal;font-size:12px;font-family:Helvetica;-inkscape-font-specification:Helvetica;writing-mode:lr-tb;fill:#000000;fill-opacity:1;fill-rule:nonzero;stroke:none"
             id="text296"><tspan
               x="0 6.6738281 9.3398438 16.013672 22.6875 29.361328 33.357422 40.03125 43.365234 46.699219 53.373047 60.046875 63.380859 70.054688 76.054688 82.728516 88.728516 95.402344 102.07617 108.07617 111.41016 118.08398 122.08008 128.75391 135.42773 142.10156"
               y="0"
               sodipodi:role="line"
               id="tspan294">Lineární detekovaný průběh</tspan></text>
</g><g
           id="g298"
           transform="matrix(2.9956427,0,0,2.9956427,1078.4314,1386.9825)"><text
             transform="translate(0,11)"
             style="font-variant:normal;font-weight:normal;font-size:12px;font-family:Helvetica;-inkscape-font-specification:Helvetica;writing-mode:lr-tb;fill:#000000;fill-opacity:1;fill-rule:nonzero;stroke:none"
             id="text302"><tspan
               x="0 6.6738281 13.347656 20.021484 26.695312 30.691406 33.357422 36.691406 46.6875 49.353516 55.353516 61.353516 67.353516 70.6875 77.361328 84.035156 87.369141 94.042969 100.04297 106.7168 112.7168 119.39062 126.06445 132.06445 135.39844 142.07227 146.06836 152.74219 159.41602 166.08984"
               y="0"
               sodipodi:role="line"
               id="tspan300">Logaritmický detekovaný průběh</tspan></text>
</g><g
           id="g304"
           transform="matrix(2.9956427,0,0,2.9956427,1363.0175,341.50327)"><text
             transform="translate(0,11)"
             style="font-variant:normal;font-weight:normal;font-size:12px;font-family:Helvetica;-inkscape-font-specification:Helvetica;writing-mode:lr-tb;fill:#000000;fill-opacity:1;fill-rule:nonzero;stroke:none"
             id="text308"><tspan
               x="0 9.9960938 16.669922 22.669922 26.003906 32.677734 36.673828 40.007812 46.898438 50.894531 57.568359 63.568359 69.568359 72.902344 81.568359 88.242188 90.908203"
               y="0"
               sodipodi:role="line"
               id="tspan306">Master Track/Hold</tspan></text>
</g><g
           id="g310"
           transform="matrix(2.9956427,0,0,2.9956427,1363.0175,940.63177)"><text
             transform="translate(0,11)"
             style="font-variant:normal;font-weight:normal;font-size:12px;font-family:Helvetica;-inkscape-font-specification:Helvetica;writing-mode:lr-tb;fill:#000000;fill-opacity:1;fill-rule:nonzero;stroke:none"
             id="text314"><tspan
               x="0 8.0039062 10.669922 17.34375 23.34375 30.017578 33.351562 40.242188 44.238281 50.912109 56.912109 62.912109 66.246094 74.912109 81.585938 84.251953"
               y="0"
               sodipodi:role="line"
               id="tspan312">Slave Track/Hold</tspan></text>
</g><g
           id="g316"
           transform="matrix(2.9956427,0,0,2.9956427,1.4978213,1.4978213)"><path
             d="m 601,231 h 28.63"
             style="fill:none;stroke:#000000;stroke-width:1;stroke-linecap:butt;stroke-linejoin:miter;stroke-miterlimit:10;stroke-dasharray:none;stroke-opacity:1"
             id="path318"
             inkscape:connector-curvature="0" /><path
             d="m 634.88,231 -7,3.5 1.75,-3.5 -1.75,-3.5 z"
             style="fill:#000000;fill-opacity:1;fill-rule:nonzero;stroke:none"
             id="path320"
             inkscape:connector-curvature="0" /><path
             d="m 634.88,231 -7,3.5 1.75,-3.5 -1.75,-3.5 z"
             style="fill:none;stroke:#000000;stroke-width:1;stroke-linecap:butt;stroke-linejoin:miter;stroke-miterlimit:10;stroke-dasharray:none;stroke-opacity:1"
             id="path322"
             inkscape:connector-curvature="0" /><path
             d="m 490,201.14999 h 102 c 0.59088,0 1.17615,0.0576 1.7558,0.17292 0.57959,0.11528 1.14239,0.28599 1.68835,0.51214 0.54596,0.22615 1.06458,0.50337 1.55597,0.8317 0.4914,0.32831 0.94599,0.7014 1.36383,1.11928 0.41785,0.41786 0.79096,0.87246 1.11927,1.36381 0.3283,0.49135 0.60553,1.01001 0.83166,1.55597 0.22614,0.54598 0.39685,1.10877 0.51215,1.68837 0.11529,0.57959 0.17291,1.16486 0.17297,1.75581 v 42 c -6e-5,0.59095 -0.0577,1.17621 -0.17297,1.7558 -0.1153,0.57958 -0.28601,1.14235 -0.51215,1.68831 -0.22613,0.54598 -0.50336,1.06462 -0.83166,1.55599 -0.32831,0.49136 -0.70142,0.94598 -1.11927,1.36386 -0.41784,0.41784 -0.87243,0.79092 -1.36383,1.11923 -0.49139,0.32831 -1.01001,0.60553 -1.55597,0.83169 -0.54596,0.22617 -1.10876,0.39689 -1.68835,0.51218 -0.57965,0.11527 -1.16492,0.17291 -1.7558,0.17294 H 490 c -0.59097,-3e-5 -1.17624,-0.0577 -1.75583,-0.17297 -0.57962,-0.11526 -1.14239,-0.28598 -1.68835,-0.51215 -0.54599,-0.22616 -1.06464,-0.50338 -1.556,-0.83169 -0.49137,-0.32831 -0.94599,-0.70139 -1.36383,-1.11923 -0.41788,-0.41788 -0.79096,-0.8725 -1.11927,-1.36386 -0.32833,-0.49137 -0.60556,-1.01001 -0.83169,-1.55596 -0.22614,-0.54597 -0.39685,-1.10875 -0.51212,-1.68834 -0.11529,-0.57959 -0.17294,-1.16485 -0.17291,-1.7558 v -42 c -3e-5,-0.59095 0.0576,-1.17622 0.17291,-1.75581 0.11527,-0.5796 0.28598,-1.14239 0.51212,-1.68837 0.22613,-0.54596 0.50336,-1.06462 0.83169,-1.55597 0.32831,-0.49135 0.70139,-0.94595 1.11927,-1.36381 0.41784,-0.41788 0.87243,-0.79097 1.3638,-1.11928 0.49136,-0.32831 1.01004,-0.60553 1.55603,-0.83168 0.54596,-0.22615 1.10873,-0.39687 1.68835,-0.51216 0.57959,-0.11528 1.16486,-0.17292 1.75583,-0.17292 z"
             style="fill:#ffffff;fill-opacity:1;fill-rule:nonzero;stroke:none"
             id="path324"
             inkscape:connector-curvature="0" /><path
             d="m 490,201.14999 h 102 c 0.59088,0 1.17615,0.0576 1.7558,0.17292 0.57959,0.11528 1.14239,0.28599 1.68835,0.51214 0.54596,0.22615 1.06458,0.50337 1.55597,0.8317 0.4914,0.32831 0.94599,0.7014 1.36383,1.11928 0.41785,0.41786 0.79096,0.87246 1.11927,1.36381 0.3283,0.49135 0.60553,1.01001 0.83166,1.55597 0.22614,0.54598 0.39685,1.10877 0.51215,1.68837 0.11529,0.57959 0.17291,1.16486 0.17297,1.75581 v 42 c -6e-5,0.59095 -0.0577,1.17621 -0.17297,1.7558 -0.1153,0.57958 -0.28601,1.14235 -0.51215,1.68831 -0.22613,0.54598 -0.50336,1.06462 -0.83166,1.55599 -0.32831,0.49136 -0.70142,0.94598 -1.11927,1.36386 -0.41784,0.41784 -0.87243,0.79092 -1.36383,1.11923 -0.49139,0.32831 -1.01001,0.60553 -1.55597,0.83169 -0.54596,0.22617 -1.10876,0.39689 -1.68835,0.51218 -0.57965,0.11527 -1.16492,0.17291 -1.7558,0.17294 H 490 c -0.59097,-3e-5 -1.17624,-0.0577 -1.75583,-0.17297 -0.57962,-0.11526 -1.14239,-0.28598 -1.68835,-0.51215 -0.54599,-0.22616 -1.06464,-0.50338 -1.556,-0.83169 -0.49137,-0.32831 -0.94599,-0.70139 -1.36383,-1.11923 -0.41788,-0.41788 -0.79096,-0.8725 -1.11927,-1.36386 -0.32833,-0.49137 -0.60556,-1.01001 -0.83169,-1.55596 -0.22614,-0.54597 -0.39685,-1.10875 -0.51212,-1.68834 -0.11529,-0.57959 -0.17294,-1.16485 -0.17291,-1.7558 v -42 c -3e-5,-0.59095 0.0576,-1.17622 0.17291,-1.75581 0.11527,-0.5796 0.28598,-1.14239 0.51212,-1.68837 0.22613,-0.54596 0.50336,-1.06462 0.83169,-1.55597 0.32831,-0.49135 0.70139,-0.94595 1.11927,-1.36381 0.41784,-0.41788 0.87243,-0.79097 1.3638,-1.11928 0.49136,-0.32831 1.01004,-0.60553 1.55603,-0.83168 0.54596,-0.22615 1.10873,-0.39687 1.68835,-0.51216 0.57959,-0.11528 1.16486,-0.17292 1.75583,-0.17292 z"
             style="fill:none;stroke:#000000;stroke-width:1;stroke-linecap:butt;stroke-linejoin:miter;stroke-miterlimit:10;stroke-dasharray:none;stroke-opacity:1"
             id="path326"
             inkscape:connector-curvature="0" /></g><g
           id="g328"
           transform="matrix(2.9956427,0,0,2.9956427,1446.8954,653.05011)"><text
             transform="translate(7.640625,11)"
             style="font-variant:normal;font-weight:normal;font-size:12px;font-family:Helvetica;-inkscape-font-specification:Helvetica;writing-mode:lr-tb;fill:#000000;fill-opacity:1;fill-rule:nonzero;stroke:none"
             id="text332"><tspan
               x="0 8.0039062 12 18.673828 25.347656 32.021484 38.695312 44.695312 50.695312 54.029297 60.029297 66.703125 70.699219 77.373047 80.039062 83.373047 90.046875 94.042969"
               y="0"
               sodipodi:role="line"
               id="tspan330">Proudový zdroj pro</tspan></text>
<text
             transform="translate(35.984375,25)"
             style="font-variant:normal;font-weight:normal;font-size:12px;font-family:Helvetica;-inkscape-font-specification:Helvetica;writing-mode:lr-tb;fill:#000000;fill-opacity:1;fill-rule:nonzero;stroke:none"
             id="text336"><tspan
               x="0 6 12.673828 15.339844 18.005859 24.679688 28.675781 35.349609 41.349609"
               y="0"
               sodipodi:role="line"
               id="tspan334">kalibraci</tspan></text>
</g><g
           id="g338"
           transform="matrix(2.9956427,0,0,2.9956427,1273.1481,641.0675)"><text
             transform="translate(0,11)"
             style="font-variant:normal;font-weight:normal;font-size:12px;font-family:Helvetica;-inkscape-font-specification:Helvetica;writing-mode:lr-tb;fill:#000000;fill-opacity:1;fill-rule:nonzero;stroke:none"
             id="text342"><tspan
               x="0"
               y="0"
               id="tspan340">I</tspan></text>
<text
             transform="translate(3.328125,14)"
             style="font-variant:normal;font-weight:normal;font-size:10px;font-family:Helvetica;-inkscape-font-specification:Helvetica;writing-mode:lr-tb;fill:#000000;fill-opacity:1;fill-rule:nonzero;stroke:none"
             id="text346"><tspan
               x="0"
               y="0"
               id="tspan344">2</tspan></text>
<text
             transform="translate(8.875,11)"
             style="font-variant:normal;font-weight:normal;font-size:12px;font-family:Helvetica;-inkscape-font-specification:Helvetica;writing-mode:lr-tb;fill:#000000;fill-opacity:1;fill-rule:nonzero;stroke:none"
             id="text350"><tspan
               x="0"
               y="0"
               id="tspan348">C</tspan></text>
</g></g></g></g></svg>