<?xml version="1.0" encoding="UTF-8" standalone="no"?>
<!-- Created with Inkscape (http://www.inkscape.org/) -->

<svg
   xmlns:dc="http://purl.org/dc/elements/1.1/"
   xmlns:cc="http://creativecommons.org/ns#"
   xmlns:rdf="http://www.w3.org/1999/02/22-rdf-syntax-ns#"
   xmlns:svg="http://www.w3.org/2000/svg"
   xmlns="http://www.w3.org/2000/svg"
   xmlns:sodipodi="http://sodipodi.sourceforge.net/DTD/sodipodi-0.dtd"
   xmlns:inkscape="http://www.inkscape.org/namespaces/inkscape"
   version="1.1"
   id="svg2"
   xml:space="preserve"
   width="382.41187"
   height="268.09619"
   viewBox="0 0 382.41187 268.09619"
   sodipodi:docname="cml_output.svg"
   inkscape:version="0.92.4 (5da689c313, 2019-01-14)"><metadata
     id="metadata8"><rdf:RDF><cc:Work
         rdf:about=""><dc:format>image/svg+xml</dc:format><dc:type
           rdf:resource="http://purl.org/dc/dcmitype/StillImage" /><dc:title></dc:title></cc:Work></rdf:RDF></metadata><defs
     id="defs6" /><sodipodi:namedview
     pagecolor="#ffffff"
     bordercolor="#666666"
     borderopacity="1"
     objecttolerance="10"
     gridtolerance="10"
     guidetolerance="10"
     inkscape:pageopacity="0"
     inkscape:pageshadow="2"
     inkscape:window-width="1920"
     inkscape:window-height="1054"
     id="namedview4"
     showgrid="false"
     inkscape:zoom="0.63211061"
     inkscape:cx="161.57262"
     inkscape:cy="158.26475"
     inkscape:window-x="1050"
     inkscape:window-y="0"
     inkscape:window-maximized="1"
     inkscape:current-layer="g10" /><g
     id="g10"
     inkscape:groupmode="layer"
     inkscape:label="slla120"
     transform="matrix(1.3333333,0,0,-1.3333333,-223.03616,952.89464)"><path
       d="m 289.701,710.079 v -67.125 m 53.631,0 v 38.722 M 315.213,514.148 h 2.437 m 1.701,2.778 h -5.839 m -1.588,2.721 h 8.958 m -4.479,0 z m -26.702,89.462 h 53.631 m 0,72.567 h 51.251"
       style="fill:none;stroke:#000000;stroke-width:0.454;stroke-linecap:round;stroke-linejoin:round;stroke-miterlimit:10;stroke-dasharray:none;stroke-opacity:1"
       id="path66"
       inkscape:connector-curvature="0" /><text
       transform="matrix(1,0,0,-1,326.4378,513.7512)"
       style="font-variant:normal;font-weight:bold;font-size:8px;font-family:Helvetica;-inkscape-font-specification:Helvetica-Bold;writing-mode:lr-tb;fill:#000000;fill-opacity:1;fill-rule:nonzero;stroke:none"
       id="text70"><tspan
         x="0 6.224 12 17.775999"
         y="0"
         sodipodi:role="line"
         id="tspan68">GNDA</tspan></text>
<path
       d="m 275.017,642.954 h 14.684 m -14.684,-22.96 h 14.684 m -19.446,22.96 v -22.96 m 4.762,22.96 v -22.96"
       style="fill:none;stroke:#000000;stroke-width:0.454;stroke-linecap:round;stroke-linejoin:round;stroke-miterlimit:10;stroke-dasharray:none;stroke-opacity:1"
       id="path72"
       inkscape:connector-curvature="0" /><path
       d="M 270.255,631.899 H 218.551"
       style="fill:none;stroke:#000000;stroke-width:0.454;stroke-linecap:round;stroke-linejoin:round;stroke-miterlimit:10;stroke-dasharray:7.937, 2.948;stroke-dashoffset:0;stroke-opacity:1"
       id="path74"
       inkscape:connector-curvature="0" /><path
       d="m 379.956,583.54 v 47.509"
       style="fill:none;stroke:#000000;stroke-width:0.454;stroke-linecap:round;stroke-linejoin:round;stroke-miterlimit:10;stroke-dasharray:7.257, 2.721;stroke-dashoffset:0;stroke-opacity:1"
       id="path76"
       inkscape:connector-curvature="0" /><path
       d="m 358.016,619.994 h -14.684 m 14.684,22.96 h -14.684 m 0,-22.96 v -10.885 m 19.503,10.885 v 22.96 m -4.819,-22.96 v 22.96"
       style="fill:none;stroke:#000000;stroke-width:0.454;stroke-linecap:round;stroke-linejoin:round;stroke-miterlimit:10;stroke-dasharray:none;stroke-opacity:1"
       id="path78"
       inkscape:connector-curvature="0" /><path
       d="m 362.835,631.049 h 17.121"
       style="fill:none;stroke:#000000;stroke-width:0.454;stroke-linecap:round;stroke-linejoin:round;stroke-miterlimit:10;stroke-dasharray:7.2, 2.665;stroke-dashoffset:0;stroke-opacity:1"
       id="path80"
       inkscape:connector-curvature="0" /><path
       d="m 416.069,686.041 h -17.121 l -4.365,-4.365 4.365,-4.366 h 17.121"
       style="fill:#ffffff;fill-opacity:1;fill-rule:evenodd;stroke:none"
       id="path82"
       inkscape:connector-curvature="0" /><path
       d="m 416.069,686.041 h -17.121 l -4.365,-4.365 4.365,-4.366 h 17.121 z M 316.403,519.647 v 19.446 m -20.636,23.357 v -22.903 m 4.819,22.507 v -22.961"
       style="fill:none;stroke:#000000;stroke-width:0.454;stroke-linecap:round;stroke-linejoin:round;stroke-miterlimit:10;stroke-dasharray:none;stroke-opacity:1"
       id="path84"
       inkscape:connector-curvature="0" /><path
       d="M 295.767,550.998 H 241.115"
       style="fill:none;stroke:#000000;stroke-width:0.454;stroke-linecap:round;stroke-linejoin:round;stroke-miterlimit:10;stroke-dasharray:8.391, 3.118;stroke-dashoffset:0;stroke-opacity:1"
       id="path86"
       inkscape:connector-curvature="0" /><path
       d="m 300.586,562.054 h 15.817 m -15.817,-22.961 h 15.817 m 0,22.961 v 47.055"
       style="fill:none;stroke:#000000;stroke-width:0.454;stroke-linecap:round;stroke-linejoin:round;stroke-miterlimit:10;stroke-dasharray:none;stroke-opacity:1"
       id="path88"
       inkscape:connector-curvature="0" /><path
       d="m 316.44,611.158 c 1.158,0 2.098,-0.94 2.098,-2.098 0,-1.158 -0.94,-2.098 -2.098,-2.098 -1.158,0 -2.098,0.94 -2.098,2.098 0,1.158 0.94,2.098 2.098,2.098"
       style="fill:#000000;fill-opacity:1;fill-rule:evenodd;stroke:#000000;stroke-width:0.96399999;stroke-linecap:round;stroke-linejoin:round;stroke-miterlimit:10;stroke-dasharray:none;stroke-opacity:1"
       id="path90"
       inkscape:connector-curvature="0" /><path
       d="M 316.403,609.109 Z"
       style="fill:none;stroke:#000000;stroke-width:0.96399999;stroke-linecap:round;stroke-linejoin:round;stroke-miterlimit:10;stroke-dasharray:none;stroke-opacity:1"
       id="path92"
       inkscape:connector-curvature="0" /><text
       transform="matrix(1,0,0,-1,307.8425,548.2772)"
       style="font-variant:normal;font-weight:bold;font-size:8px;font-family:Helvetica;-inkscape-font-specification:Helvetica-Bold;writing-mode:lr-tb;fill:#000000;fill-opacity:1;fill-rule:nonzero;stroke:none"
       id="text98"><tspan
         x="0 5.776 12.44 18.664"
         y="0"
         sodipodi:role="line"
         id="tspan94">NMOS</tspan><tspan
         x="-25.5688 -19.792801 -13.1288 -6.9047999 19.1056 24.881599 31.545601 37.7696"
         y="-80.900803"
         sodipodi:role="line"
         id="tspan96">NMOSNMOS</tspan></text>
<path
       d="m 289.701,609.109 v 10.885"
       style="fill:none;stroke:#000000;stroke-width:0.454;stroke-linecap:round;stroke-linejoin:round;stroke-miterlimit:10;stroke-dasharray:none;stroke-opacity:1"
       id="path100"
       inkscape:connector-curvature="0" /><path
       d="M 312.548,583.54 H 218.551"
       style="fill:none;stroke:#000000;stroke-width:0.454;stroke-linecap:round;stroke-linejoin:round;stroke-miterlimit:10;stroke-dasharray:7.824, 2.891;stroke-dashoffset:0;stroke-opacity:1"
       id="path102"
       inkscape:connector-curvature="0" /><path
       d="m 312.548,583.54 c 0,2.133 1.722,3.867 3.855,3.881 m 0,-0.026 c 2.133,0 3.867,-1.722 3.881,-3.855"
       style="fill:none;stroke:#000000;stroke-width:0.454;stroke-linecap:round;stroke-linejoin:round;stroke-miterlimit:10;stroke-dasharray:none;stroke-opacity:1"
       id="path104"
       inkscape:connector-curvature="0" /><path
       d="M 379.956,583.54 H 320.315"
       style="fill:none;stroke:#000000;stroke-width:0.454;stroke-linecap:round;stroke-linejoin:round;stroke-miterlimit:10;stroke-dasharray:7.54, 2.835;stroke-dashoffset:0;stroke-opacity:1"
       id="path106"
       inkscape:connector-curvature="0" /><text
       transform="matrix(1,0,0,-1,421.2283,679.408)"
       style="font-variant:normal;font-weight:bold;font-size:8px;font-family:Helvetica;-inkscape-font-specification:Helvetica-Bold;writing-mode:lr-tb;fill:#000000;fill-opacity:1;fill-rule:nonzero;stroke:none"
       id="text110"><tspan
         x="0 6.2199998 11.104 13.764 18.648001 23.532 26.191999"
         y="0"
         sodipodi:role="line"
         id="tspan108">Output </tspan></text>
<text
       transform="matrix(1,0,0,-1,449.6251,679.408)"
       style="font-variant:normal;font-weight:bold;font-size:8px;font-family:Helvetica;-inkscape-font-specification:Helvetica-Bold;writing-mode:lr-tb;fill:#000000;fill-opacity:1;fill-rule:nonzero;stroke:none"
       id="text114"><tspan
         x="0"
         y="0"
         id="tspan112">–</tspan></text>
<path
       d="M 289.701,710.079 H 394.583"
       style="fill:none;stroke:#000000;stroke-width:0.454;stroke-linecap:round;stroke-linejoin:round;stroke-miterlimit:10;stroke-dasharray:none;stroke-opacity:1"
       id="path116"
       inkscape:connector-curvature="0" /><text
       transform="matrix(1,0,0,-1,167.074,553.3229)"
       style="font-variant:normal;font-weight:bold;font-size:8px;font-family:Helvetica;-inkscape-font-specification:Helvetica-Bold;writing-mode:lr-tb;fill:#000000;fill-opacity:1;fill-rule:nonzero;stroke:none"
       id="text122"><tspan
         x="0 4.7624002 9.6392002 11.852 14.5048 18.941601 23.818399 28.255199 30.468 36.2328 41.1096 45.986401 48.639198 51.740002 56.616798 58.829601 61.0424 65.479202"
         y="0"
         sodipodi:role="line"
         id="tspan118">Voltage Controlled</tspan><tspan
         x="12.2456 18.0128 22.892 25.995199 29.0984 33.537601 38.416801 41.071999 43.287201 48.614399 53.493599 58.372799 61.476002 65.915199"
         y="10.4312"
         sodipodi:role="line"
         id="tspan120">Current Source</tspan></text>
<path
       d="m 416.069,714.444 h -17.121 l -4.365,-4.365 4.365,-4.366 h 17.121"
       style="fill:#ffffff;fill-opacity:1;fill-rule:evenodd;stroke:none"
       id="path124"
       inkscape:connector-curvature="0" /><path
       d="m 416.069,714.444 h -17.121 l -4.365,-4.365 4.365,-4.366 h 17.121 z"
       style="fill:none;stroke:#000000;stroke-width:0.454;stroke-linecap:round;stroke-linejoin:round;stroke-miterlimit:10;stroke-dasharray:none;stroke-opacity:1"
       id="path126"
       inkscape:connector-curvature="0" /><text
       transform="matrix(1,0,0,-1,421.2283,707.811)"
       style="font-variant:normal;font-weight:bold;font-size:8px;font-family:Helvetica;-inkscape-font-specification:Helvetica-Bold;writing-mode:lr-tb;fill:#000000;fill-opacity:1;fill-rule:nonzero;stroke:none"
       id="text130"><tspan
         x="0 6.2168002 11.0976 13.7544 18.635201 23.516001 26.1728 28.389601"
         y="0"
         sodipodi:role="line"
         id="tspan128">Output +</tspan></text>
</g></svg>