<?xml version="1.0" encoding="UTF-8" standalone="no"?>
<!-- Created with Inkscape (http://www.inkscape.org/) -->

<svg
   xmlns:dc="http://purl.org/dc/elements/1.1/"
   xmlns:cc="http://creativecommons.org/ns#"
   xmlns:rdf="http://www.w3.org/1999/02/22-rdf-syntax-ns#"
   xmlns:svg="http://www.w3.org/2000/svg"
   xmlns="http://www.w3.org/2000/svg"
   xmlns:sodipodi="http://sodipodi.sourceforge.net/DTD/sodipodi-0.dtd"
   xmlns:inkscape="http://www.inkscape.org/namespaces/inkscape"
   version="1.1"
   id="svg2"
   xml:space="preserve"
   width="383.88495"
   height="360.55963"
   viewBox="0 0 383.88495 360.55963"
   sodipodi:docname="lvds_output.svg"
   inkscape:version="0.92.4 (5da689c313, 2019-01-14)"><metadata
     id="metadata8"><rdf:RDF><cc:Work
         rdf:about=""><dc:format>image/svg+xml</dc:format><dc:type
           rdf:resource="http://purl.org/dc/dcmitype/StillImage" /><dc:title></dc:title></cc:Work></rdf:RDF></metadata><defs
     id="defs6" /><sodipodi:namedview
     pagecolor="#ffffff"
     bordercolor="#666666"
     borderopacity="1"
     objecttolerance="10"
     gridtolerance="10"
     guidetolerance="10"
     inkscape:pageopacity="0"
     inkscape:pageshadow="2"
     inkscape:window-width="1920"
     inkscape:window-height="1054"
     id="namedview4"
     showgrid="false"
     inkscape:zoom="0.63211061"
     inkscape:cx="434.47282"
     inkscape:cy="-43.151839"
     inkscape:window-x="1050"
     inkscape:window-y="0"
     inkscape:window-maximized="1"
     inkscape:current-layer="g10" /><g
     id="g10"
     inkscape:groupmode="layer"
     inkscape:label="slla120"
     transform="matrix(1.3333333,0,0,-1.3333333,-224.17003,951.55022)"><path
       d="m 297.638,552.076 h -17.121 l -4.366,4.365 4.366,4.365 h 17.121"
       style="fill:#ffffff;fill-opacity:1;fill-rule:evenodd;stroke:none"
       id="path66"
       inkscape:connector-curvature="0" /><path
       d="m 297.638,552.076 h -17.121 l -4.366,4.365 4.366,4.365 h 17.121 z"
       style="fill:none;stroke:#000000;stroke-width:0.454;stroke-linecap:round;stroke-linejoin:round;stroke-miterlimit:10;stroke-dasharray:none;stroke-opacity:1"
       id="path68"
       inkscape:connector-curvature="0" /><path
       d="m 316.233,701.757 c 0.009,0.001 0.018,0.001 0.027,0.001 1.127,0 2.041,-0.94 2.041,-2.098 0,-1.158 -0.914,-2.098 -2.041,-2.098 -1.127,0 -2.041,0.94 -2.041,2.098 0,1.147 0.897,2.082 2.014,2.097"
       style="fill:#000000;fill-opacity:1;fill-rule:evenodd;stroke:#000000;stroke-width:0.96399999;stroke-linecap:round;stroke-linejoin:round;stroke-miterlimit:10;stroke-dasharray:none;stroke-opacity:1"
       id="path70"
       inkscape:connector-curvature="0" /><path
       d="M 316.233,699.647 Z"
       style="fill:none;stroke:#000000;stroke-width:0.96399999;stroke-linecap:round;stroke-linejoin:round;stroke-miterlimit:10;stroke-dasharray:none;stroke-opacity:1"
       id="path72"
       inkscape:connector-curvature="0" /><path
       d="m 315.043,443.849 h 2.437 m 1.701,2.721 h -5.839 m -1.588,2.721 h 9.014 m -4.535,0 z M 266.4,514.998 h 99.666 M 266.4,633.94 h 99.666 M 266.4,556.441 h 9.751"
       style="fill:none;stroke:#000000;stroke-width:0.454;stroke-linecap:round;stroke-linejoin:round;stroke-miterlimit:10;stroke-dasharray:none;stroke-opacity:1"
       id="path74"
       inkscape:connector-curvature="0" /><text
       transform="matrix(1,0,0,-1,270.3118,565.7386)"
       style="font-variant:normal;font-weight:bold;font-size:8px;font-family:Helvetica;-inkscape-font-specification:Helvetica-Bold;writing-mode:lr-tb;fill:#000000;fill-opacity:1;fill-rule:nonzero;stroke:none"
       id="text78"><tspan
         x="0 6.2168002 11.0976 13.7544 18.635201 23.516001 26.1728 28.384001 57.756001 59.967201 66.183998 71.064796 73.721603 78.602402 83.4832 86.139999"
         y="0"
         sodipodi:role="line"
         id="tspan76">Output + Output </tspan></text>
<text
       transform="matrix(1,0,0,-1,358.6782,565.7386)"
       style="font-variant:normal;font-weight:bold;font-size:8px;font-family:Helvetica;-inkscape-font-specification:Helvetica-Bold;writing-mode:lr-tb;fill:#000000;fill-opacity:1;fill-rule:nonzero;stroke:none"
       id="text82"><tspan
         x="0"
         y="0"
         id="tspan80">–</tspan></text>
<text
       transform="matrix(1,0,0,-1,307.6718,666.425)"
       style="font-variant:normal;font-weight:bold;font-size:8px;font-family:Helvetica;-inkscape-font-specification:Helvetica-Bold;writing-mode:lr-tb;fill:#000000;fill-opacity:1;fill-rule:nonzero;stroke:none"
       id="text86"><tspan
         x="0 5.336 12 18.224001"
         y="0"
         sodipodi:role="line"
         id="tspan84">PMOS</tspan></text>
<path
       d="m 316.233,680.145 v 19.502 M 230.117,612 v -74.268 m 72.737,161.915 h 26.759"
       style="fill:none;stroke:#000000;stroke-width:0.454;stroke-linecap:round;stroke-linejoin:round;stroke-miterlimit:10;stroke-dasharray:none;stroke-opacity:1"
       id="path88"
       inkscape:connector-curvature="0" /><text
       transform="matrix(1,0,0,-1,326.2677,443.3953)"
       style="font-variant:normal;font-weight:bold;font-size:8px;font-family:Helvetica;-inkscape-font-specification:Helvetica-Bold;writing-mode:lr-tb;fill:#000000;fill-opacity:1;fill-rule:nonzero;stroke:none"
       id="text92"><tspan
         x="0 6.224 12 17.775999"
         y="0"
         sodipodi:role="line"
         id="tspan90">GNDA</tspan></text>
<path
       d="M 251.717,623.055 H 266.4 M 251.717,600.151 H 266.4 m 0,22.904 v 10.885 m 0,-33.789 v -51.364 m 29.197,131.358 v -22.904 m 4.819,22.904 v -22.904 m -4.819,11.849 h -22.394 m 27.213,11.055 h 15.817 m -15.817,-22.904 h 15.817 m 0,-23.301 v 23.301 m -23.868,11.849 z"
       style="fill:none;stroke:#000000;stroke-width:0.454;stroke-linecap:round;stroke-linejoin:round;stroke-miterlimit:10;stroke-dasharray:none;stroke-opacity:1"
       id="path94"
       inkscape:connector-curvature="0" /><path
       d="m 292.337,671.924 c 0.01,0 0.019,0 0.028,0 1.534,0 2.778,-1.244 2.778,-2.778 0,-1.533 -1.244,-2.777 -2.778,-2.777 -1.533,0 -2.778,1.244 -2.778,2.777 0,1.524 1.227,2.763 2.75,2.778"
       style="fill:#ffffff;fill-opacity:1;fill-rule:evenodd;stroke:none"
       id="path96"
       inkscape:connector-curvature="0" /><path
       d="m 292.337,671.924 c 0.01,0 0.019,0 0.028,0 1.534,0 2.778,-1.244 2.778,-2.778 0,-1.533 -1.244,-2.777 -2.778,-2.777 -1.533,0 -2.778,1.244 -2.778,2.777 0,1.524 1.227,2.763 2.75,2.778 m -45.383,-48.869 v -22.904 m 4.763,22.904 V 600.151 M 246.954,612 h -16.837 m 13.549,0 z"
       style="fill:none;stroke:#000000;stroke-width:0.454;stroke-linecap:round;stroke-linejoin:round;stroke-miterlimit:10;stroke-dasharray:none;stroke-opacity:1"
       id="path98"
       inkscape:connector-curvature="0" /><path
       d="m 243.638,614.835 c 0.009,0 0.019,0 0.028,0 1.534,0 2.778,-1.245 2.778,-2.778 0,-1.534 -1.244,-2.778 -2.778,-2.778 -1.533,0 -2.778,1.244 -2.778,2.778 0,1.523 1.227,2.762 2.75,2.778"
       style="fill:#ffffff;fill-opacity:1;fill-rule:evenodd;stroke:none"
       id="path100"
       inkscape:connector-curvature="0" /><path
       d="m 243.638,614.835 c 0.009,0 0.019,0 0.028,0 1.534,0 2.778,-1.245 2.778,-2.778 0,-1.534 -1.244,-2.778 -2.778,-2.778 -1.533,0 -2.778,1.244 -2.778,2.778 0,1.523 1.227,2.762 2.75,2.778 m 8.079,-66.048 H 266.4 M 251.717,525.884 H 266.4 m -19.446,22.903 v -22.903 m 4.763,22.903 v -22.903 m -4.763,11.848 h -16.837"
       style="fill:none;stroke:#000000;stroke-width:0.454;stroke-linecap:round;stroke-linejoin:round;stroke-miterlimit:10;stroke-dasharray:none;stroke-opacity:1"
       id="path102"
       inkscape:connector-curvature="0" /><path
       d="m 316.232,636.001 c 0.009,0 0.019,0 0.028,0 1.127,0 2.041,-0.914 2.041,-2.041 0,-1.127 -0.914,-2.041 -2.041,-2.041 -1.127,0 -2.041,0.914 -2.041,2.041 0,1.116 0.897,2.026 2.013,2.041"
       style="fill:#000000;fill-opacity:1;fill-rule:evenodd;stroke:#000000;stroke-width:0.96399999;stroke-linecap:round;stroke-linejoin:round;stroke-miterlimit:10;stroke-dasharray:none;stroke-opacity:1"
       id="path104"
       inkscape:connector-curvature="0" /><path
       d="M 316.233,633.94 Z"
       style="fill:none;stroke:#000000;stroke-width:0.96399999;stroke-linecap:round;stroke-linejoin:round;stroke-miterlimit:10;stroke-dasharray:none;stroke-opacity:1"
       id="path106"
       inkscape:connector-curvature="0" /><path
       d="m 402.69,536.939 v 74.267 m -21.94,-85.322 h -14.684 m 14.684,22.903 h -14.684 m 0,-22.903 v -10.886 m 0,33.789 v 51.364 m 19.502,-74.267 v 22.903 m -4.818,-22.903 v 22.903 m 4.818,62.419 h 17.122 m -13.89,0 z"
       style="fill:none;stroke:#000000;stroke-width:0.454;stroke-linecap:round;stroke-linejoin:round;stroke-miterlimit:10;stroke-dasharray:none;stroke-opacity:1"
       id="path108"
       inkscape:connector-curvature="0" /><path
       d="m 388.771,608.429 c -0.009,-10e-4 -0.018,-10e-4 -0.028,-10e-4 -1.533,0 -2.778,1.245 -2.778,2.778 0,1.534 1.245,2.778 2.778,2.778 1.534,0 2.778,-1.244 2.778,-2.778 0,-1.523 -1.226,-2.762 -2.75,-2.777"
       style="fill:#ffffff;fill-opacity:1;fill-rule:evenodd;stroke:none"
       id="path110"
       inkscape:connector-curvature="0" /><path
       d="m 388.771,608.429 c -0.009,-10e-4 -0.018,-10e-4 -0.028,-10e-4 -1.533,0 -2.778,1.245 -2.778,2.778 0,1.534 1.245,2.778 2.778,2.778 1.534,0 2.778,-1.244 2.778,-2.778 0,-1.523 -1.226,-2.762 -2.75,-2.777 m -8.021,-8.278 h -14.684 m 14.684,22.904 h -14.684 m 19.502,-22.904 v 22.904 m -4.818,-22.904 v 22.904 m 4.818,-86.116 h 17.122 m -36.624,86.116 v 10.885"
       style="fill:none;stroke:#000000;stroke-width:0.454;stroke-linecap:round;stroke-linejoin:round;stroke-miterlimit:10;stroke-dasharray:none;stroke-opacity:1"
       id="path112"
       inkscape:connector-curvature="0" /><path
       d="m 334.828,552.076 h 17.178 l 4.309,4.365 -4.309,4.365 h -17.178"
       style="fill:#ffffff;fill-opacity:1;fill-rule:evenodd;stroke:none"
       id="path114"
       inkscape:connector-curvature="0" /><path
       d="m 334.828,552.076 h 17.178 l 4.309,4.365 -4.309,4.365 h -17.178 z m 31.238,4.365 h -9.751"
       style="fill:none;stroke:#000000;stroke-width:0.454;stroke-linecap:round;stroke-linejoin:round;stroke-miterlimit:10;stroke-dasharray:none;stroke-opacity:1"
       id="path116"
       inkscape:connector-curvature="0" /><path
       d="m 266.4,558.538 c 1.158,0 2.098,-0.94 2.098,-2.098 0,-1.158 -0.94,-2.098 -2.098,-2.098 -1.158,0 -2.098,0.94 -2.098,2.098 0,1.158 0.94,2.098 2.098,2.098"
       style="fill:#000000;fill-opacity:1;fill-rule:evenodd;stroke:#000000;stroke-width:0.96399999;stroke-linecap:round;stroke-linejoin:round;stroke-miterlimit:10;stroke-dasharray:none;stroke-opacity:1"
       id="path118"
       inkscape:connector-curvature="0" /><path
       d="M 266.4,556.441 Z"
       style="fill:none;stroke:#000000;stroke-width:0.96399999;stroke-linecap:round;stroke-linejoin:round;stroke-miterlimit:10;stroke-dasharray:none;stroke-opacity:1"
       id="path120"
       inkscape:connector-curvature="0" /><path
       d="m 366.12,558.538 c 1.158,0 2.098,-0.94 2.098,-2.098 0,-1.158 -0.94,-2.098 -2.098,-2.098 -1.158,0 -2.098,0.94 -2.098,2.098 0,1.158 0.94,2.098 2.098,2.098"
       style="fill:#000000;fill-opacity:1;fill-rule:evenodd;stroke:#000000;stroke-width:0.96399999;stroke-linecap:round;stroke-linejoin:round;stroke-miterlimit:10;stroke-dasharray:none;stroke-opacity:1"
       id="path122"
       inkscape:connector-curvature="0" /><path
       d="M 366.066,556.441 Z"
       style="fill:none;stroke:#000000;stroke-width:0.96399999;stroke-linecap:round;stroke-linejoin:round;stroke-miterlimit:10;stroke-dasharray:none;stroke-opacity:1"
       id="path124"
       inkscape:connector-curvature="0" /><path
       d="m 316.233,490.337 v 24.661"
       style="fill:none;stroke:#000000;stroke-width:0.454;stroke-linecap:round;stroke-linejoin:round;stroke-miterlimit:10;stroke-dasharray:none;stroke-opacity:1"
       id="path126"
       inkscape:connector-curvature="0" /><path
       d="m 316.233,517.078 c 0.009,0 0.018,0 0.027,0 1.127,0 2.041,-0.94 2.041,-2.098 0,-1.158 -0.914,-2.098 -2.041,-2.098 -1.127,0 -2.041,0.94 -2.041,2.098 0,1.148 0.897,2.082 2.014,2.098"
       style="fill:#000000;fill-opacity:1;fill-rule:evenodd;stroke:#000000;stroke-width:0.96399999;stroke-linecap:round;stroke-linejoin:round;stroke-miterlimit:10;stroke-dasharray:none;stroke-opacity:1"
       id="path128"
       inkscape:connector-curvature="0" /><path
       d="M 316.233,514.998 Z"
       style="fill:none;stroke:#000000;stroke-width:0.96399999;stroke-linecap:round;stroke-linejoin:round;stroke-miterlimit:10;stroke-dasharray:none;stroke-opacity:1"
       id="path130"
       inkscape:connector-curvature="0" /><text
       transform="matrix(1,0,0,-1,258.9732,609.3354)"
       style="font-variant:normal;font-weight:bold;font-size:8px;font-family:Helvetica;-inkscape-font-specification:Helvetica-Bold;writing-mode:lr-tb;fill:#000000;fill-opacity:1;fill-rule:nonzero;stroke:none"
       id="text140"><tspan
         x="0 5.336 12 18.224001"
         y="0"
         sodipodi:role="line"
         id="tspan132">PMOS</tspan><tspan
         x="0 5.776 12.44 18.664"
         y="74.267998"
         sodipodi:role="line"
         id="tspan134">NMOS</tspan><tspan
         x="90.708801 96.0448 102.7088 108.9328"
         y="0"
         sodipodi:role="line"
         id="tspan136">PMOS</tspan><tspan
         x="90.708801 96.484802 103.1488 109.3728"
         y="74.267998"
         sodipodi:role="line"
         id="tspan138">NMOS</tspan></text>
<path
       d="m 402.633,576.597 c 0.009,10e-4 0.018,10e-4 0.027,10e-4 1.127,0 2.041,-0.94 2.041,-2.098 0,-1.158 -0.914,-2.098 -2.041,-2.098 -1.127,0 -2.041,0.94 -2.041,2.098 0,1.148 0.897,2.082 2.014,2.097"
       style="fill:#000000;fill-opacity:1;fill-rule:evenodd;stroke:#000000;stroke-width:0.96399999;stroke-linecap:round;stroke-linejoin:round;stroke-miterlimit:10;stroke-dasharray:none;stroke-opacity:1"
       id="path142"
       inkscape:connector-curvature="0" /><path
       d="M 402.69,574.469 Z"
       style="fill:none;stroke:#000000;stroke-width:0.96399999;stroke-linecap:round;stroke-linejoin:round;stroke-miterlimit:10;stroke-dasharray:none;stroke-opacity:1"
       id="path144"
       inkscape:connector-curvature="0" /><path
       d="m 266.4,514.998 v 10.886"
       style="fill:none;stroke:#000000;stroke-width:0.454;stroke-linecap:round;stroke-linejoin:round;stroke-miterlimit:10;stroke-dasharray:none;stroke-opacity:1"
       id="path146"
       inkscape:connector-curvature="0" /><path
       d="m 176.995,574.469 h 53.122"
       style="fill:none;stroke:#000000;stroke-width:0.454;stroke-linecap:round;stroke-linejoin:round;stroke-miterlimit:10;stroke-dasharray:8.164, 3.061;stroke-dashoffset:0;stroke-opacity:1"
       id="path148"
       inkscape:connector-curvature="0" /><path
       d="m 230.16,576.598 c 1.158,0 2.098,-0.94 2.098,-2.098 0,-1.158 -0.94,-2.098 -2.098,-2.098 -1.158,0 -2.098,0.94 -2.098,2.098 0,1.158 0.94,2.098 2.098,2.098"
       style="fill:#000000;fill-opacity:1;fill-rule:evenodd;stroke:#000000;stroke-width:0.96399999;stroke-linecap:round;stroke-linejoin:round;stroke-miterlimit:10;stroke-dasharray:none;stroke-opacity:1"
       id="path150"
       inkscape:connector-curvature="0" /><path
       d="M 230.117,574.469 Z"
       style="fill:none;stroke:#000000;stroke-width:0.96399999;stroke-linecap:round;stroke-linejoin:round;stroke-miterlimit:10;stroke-dasharray:none;stroke-opacity:1"
       id="path152"
       inkscape:connector-curvature="0" /><path
       d="m 402.69,574.469 h 53.121"
       style="fill:none;stroke:#000000;stroke-width:0.454;stroke-linecap:round;stroke-linejoin:round;stroke-miterlimit:10;stroke-dasharray:8.164, 3.061;stroke-dashoffset:0;stroke-opacity:1"
       id="path154"
       inkscape:connector-curvature="0" /><text
       transform="matrix(1,0,0,-1,168.8315,674.7591)"
       style="font-variant:normal;font-weight:bold;font-size:8px;font-family:Helvetica;-inkscape-font-specification:Helvetica-Bold;writing-mode:lr-tb;fill:#000000;fill-opacity:1;fill-rule:nonzero;stroke:none"
       id="text162"><tspan
         x="0"
         y="0"
         id="tspan156">V</tspan><tspan
         x="5.3288002 11.0984 17.756001 23.5256 28.8552"
         y="1.984"
         sodipodi:role="line"
         id="tspan158">CMREF</tspan><tspan
         x="38.324001 44.091202 48.970402 52.073601 55.1768 59.616001 64.495201 67.150398 69.365601 74.692802 79.571999 84.451202 87.554398 91.993599"
         y="197.5744"
         sodipodi:role="line"
         id="tspan160">Current Source</tspan></text>
<text
       transform="matrix(1,0,0,-1,265.2659,477.1847)"
       style="font-variant:normal;font-weight:normal;font-size:8px;font-family:PSOeqmbsmth;-inkscape-font-specification:PSOeqmbsmth;writing-mode:lr-tb;fill:#000000;fill-opacity:1;fill-rule:nonzero;stroke:none"
       id="text166"><tspan
         x="0"
         y="0"
         id="tspan164">[</tspan></text>
<text
       transform="matrix(1,0,0,-1,273.2595,477.1847)"
       style="font-variant:normal;font-weight:bold;font-size:8px;font-family:Helvetica;-inkscape-font-specification:Helvetica-Bold;writing-mode:lr-tb;fill:#000000;fill-opacity:1;fill-rule:nonzero;stroke:none"
       id="text170"><tspan
         x="0 4.4320002 6.6399999 11.072 13.28 20.375999"
         y="0"
         sodipodi:role="line"
         id="tspan168">3.5 mA</tspan></text>
<path
       d="M 316.233,479.452 Z"
       style="fill:none;stroke:#000000;stroke-width:0.454;stroke-linecap:round;stroke-linejoin:round;stroke-miterlimit:10;stroke-dasharray:none;stroke-opacity:1"
       id="path172"
       inkscape:connector-curvature="0" /><path
       d="m 326.925,479.76 c 0,-5.821 -4.724,-10.545 -10.545,-10.545 -5.821,0 -10.545,4.724 -10.545,10.545 0,5.821 4.724,10.545 10.545,10.545 5.821,0 10.545,-4.724 10.545,-10.545"
       style="fill:#ffffff;fill-opacity:1;fill-rule:evenodd;stroke:none"
       id="path174"
       inkscape:connector-curvature="0" /><path
       d="m 326.925,479.76 c 0,-5.821 -4.724,-10.545 -10.545,-10.545 -5.821,0 -10.545,4.724 -10.545,10.545 0,5.821 4.724,10.545 10.545,10.545 5.821,0 10.545,-4.724 10.545,-10.545 m -10.579,8.026 v -15.988 m -2.664,3.289 h 5.046 m -4.819,-0.341 h 4.592 m -4.422,-0.34 h 4.252 m -4.082,-0.283 h 3.912 m -3.742,-0.34 h 3.515 m -3.288,-0.34 h 3.118 m -2.948,-0.341 h 2.778 m -1.474,-2.267 h 0.17 m -0.34,0.34 h 0.51 m -0.68,0.34 h 0.85 m -1.077,0.34 h 1.304 m -1.474,0.284 h 1.644 m -1.814,0.34 h 1.984 m -2.211,0.34 h 2.438 m -1.248,-2.098 2.608,4.479 h -5.159 z m 0.057,-21.43 v 19.956"
       style="fill:none;stroke:#000000;stroke-width:0.454;stroke-linecap:round;stroke-linejoin:round;stroke-miterlimit:10;stroke-dasharray:none;stroke-opacity:1"
       id="path176"
       inkscape:connector-curvature="0" /><path
       d="m 236.466,654.406 25.682,14.684 -25.682,14.683 z"
       style="fill:none;stroke:#000000;stroke-width:1.41700006;stroke-linecap:round;stroke-linejoin:round;stroke-miterlimit:10;stroke-dasharray:none;stroke-opacity:1"
       id="path178"
       inkscape:connector-curvature="0" /><path
       d="M 262.148,669.09 Z"
       style="fill:none;stroke:#000000;stroke-width:0.96399999;stroke-linecap:round;stroke-linejoin:round;stroke-miterlimit:10;stroke-dasharray:none;stroke-opacity:1"
       id="path180"
       inkscape:connector-curvature="0" /><path
       d="m 225.184,661.436 h 10.999 m -10.999,15.591 h 10.999 m 25.965,-7.937 h 11.055 m -48.019,7.937 H 204.831 M 266.4,589.38 h 99.666"
       style="fill:none;stroke:#000000;stroke-width:0.454;stroke-linecap:round;stroke-linejoin:round;stroke-miterlimit:10;stroke-dasharray:none;stroke-opacity:1"
       id="path182"
       inkscape:connector-curvature="0" /><path
       d="m 283.068,592.044 h 16.611 v -5.556 h -16.611 z"
       style="fill:#ffffff;fill-opacity:1;fill-rule:evenodd;stroke:none"
       id="path184"
       inkscape:connector-curvature="0" /><path
       d="m 305.121,589.38 h -5.556 l -1.36,-2.722 -2.722,5.443 -2.778,-5.443 -2.777,5.443 -2.722,-5.443 -2.721,5.443 -1.417,-2.721 h -5.5"
       style="fill:none;stroke:#000000;stroke-width:0.454;stroke-linecap:round;stroke-linejoin:round;stroke-miterlimit:10;stroke-dasharray:none;stroke-opacity:1"
       id="path186"
       inkscape:connector-curvature="0" /><path
       d="m 266.4,591.481 c 1.158,0 2.098,-0.914 2.098,-2.041 0,-1.127 -0.94,-2.041 -2.098,-2.041 -1.158,0 -2.098,0.914 -2.098,2.041 0,1.127 0.94,2.041 2.098,2.041"
       style="fill:#000000;fill-opacity:1;fill-rule:evenodd;stroke:#000000;stroke-width:0.96399999;stroke-linecap:round;stroke-linejoin:round;stroke-miterlimit:10;stroke-dasharray:none;stroke-opacity:1"
       id="path188"
       inkscape:connector-curvature="0" /><path
       d="M 266.4,589.38 Z"
       style="fill:none;stroke:#000000;stroke-width:0.96399999;stroke-linecap:round;stroke-linejoin:round;stroke-miterlimit:10;stroke-dasharray:none;stroke-opacity:1"
       id="path190"
       inkscape:connector-curvature="0" /><path
       d="m 332.901,592.044 h 16.611 v -5.556 h -16.611 z"
       style="fill:#ffffff;fill-opacity:1;fill-rule:evenodd;stroke:none"
       id="path192"
       inkscape:connector-curvature="0" /><path
       d="m 354.954,589.38 h -5.556 l -1.36,-2.722 -2.721,5.443 -2.778,-5.443 -2.778,5.443 -2.722,-5.443 -2.721,5.443 -1.417,-2.721 h -5.499"
       style="fill:none;stroke:#000000;stroke-width:0.454;stroke-linecap:round;stroke-linejoin:round;stroke-miterlimit:10;stroke-dasharray:none;stroke-opacity:1"
       id="path194"
       inkscape:connector-curvature="0" /><path
       d="m 366.12,591.481 c 1.158,0 2.098,-0.914 2.098,-2.041 0,-1.127 -0.94,-2.041 -2.098,-2.041 -1.158,0 -2.098,0.914 -2.098,2.041 0,1.127 0.94,2.041 2.098,2.041"
       style="fill:#000000;fill-opacity:1;fill-rule:evenodd;stroke:#000000;stroke-width:0.96399999;stroke-linecap:round;stroke-linejoin:round;stroke-miterlimit:10;stroke-dasharray:none;stroke-opacity:1"
       id="path196"
       inkscape:connector-curvature="0" /><path
       d="M 366.066,589.38 Z"
       style="fill:none;stroke:#000000;stroke-width:0.96399999;stroke-linecap:round;stroke-linejoin:round;stroke-miterlimit:10;stroke-dasharray:none;stroke-opacity:1"
       id="path198"
       inkscape:connector-curvature="0" /><path
       d="m 316.233,589.38 v 39.118"
       style="fill:none;stroke:#000000;stroke-width:0.454;stroke-linecap:round;stroke-linejoin:round;stroke-miterlimit:10;stroke-dasharray:none;stroke-opacity:1"
       id="path200"
       inkscape:connector-curvature="0" /><path
       d="m 316.232,591.481 c 0.009,0 0.019,0 0.028,0 1.127,0 2.041,-0.914 2.041,-2.041 0,-1.127 -0.914,-2.041 -2.041,-2.041 -1.127,0 -2.041,0.914 -2.041,2.041 0,1.116 0.897,2.026 2.013,2.041"
       style="fill:#000000;fill-opacity:1;fill-rule:evenodd;stroke:#000000;stroke-width:0.96399999;stroke-linecap:round;stroke-linejoin:round;stroke-miterlimit:10;stroke-dasharray:none;stroke-opacity:1"
       id="path202"
       inkscape:connector-curvature="0" /><path
       d="M 316.233,589.38 Z"
       style="fill:none;stroke:#000000;stroke-width:0.96399999;stroke-linecap:round;stroke-linejoin:round;stroke-miterlimit:10;stroke-dasharray:none;stroke-opacity:1"
       id="path204"
       inkscape:connector-curvature="0" /><path
       d="m 204.831,628.498 h 111.402 m -111.402,0 v 32.938"
       style="fill:none;stroke:#000000;stroke-width:0.454;stroke-linecap:round;stroke-linejoin:round;stroke-miterlimit:10;stroke-dasharray:none;stroke-opacity:1"
       id="path206"
       inkscape:connector-curvature="0" /><text
       transform="matrix(1,0,0,-1,167.9244,659.1119)"
       style="font-variant:normal;font-weight:bold;font-size:8px;font-family:Helvetica;-inkscape-font-specification:Helvetica-Bold;writing-mode:lr-tb;fill:#000000;fill-opacity:1;fill-rule:nonzero;stroke:none"
       id="text212"><tspan
         x="0"
         y="0"
         id="tspan208">V</tspan><tspan
         x="5.3288002 11.1032 17.7656 23.988001 29.7624"
         y="1.984"
         sodipodi:role="line"
         id="tspan210">CMOUT</tspan></text>
<path
       d="M 225.184,661.436 H 204.831"
       style="fill:none;stroke:#000000;stroke-width:0.454;stroke-linecap:round;stroke-linejoin:round;stroke-miterlimit:10;stroke-dasharray:none;stroke-opacity:1"
       id="path214"
       inkscape:connector-curvature="0" /><text
       transform="matrix(1,0,0,-1,305.1779,707.9244)"
       style="font-variant:normal;font-weight:bold;font-size:8px;font-family:Helvetica;-inkscape-font-specification:Helvetica-Bold;writing-mode:lr-tb;fill:#000000;fill-opacity:1;fill-rule:nonzero;stroke:none"
       id="text222"><tspan
         x="0 5.2160001"
         y="0"
         sodipodi:role="line"
         id="tspan216">AV</tspan><tspan
         x="10.5448 16.3272"
         y="1.984"
         sodipodi:role="line"
         id="tspan218">CC</tspan><tspan
         x="-24.604799 -20.179199 -15.7536 -13.552"
         y="111.4016"
         sodipodi:role="line"
         id="tspan220">10 k</tspan></text>
<text
       transform="matrix(1,0,0,-1,296.0499,596.5228)"
       style="font-variant:normal;font-weight:normal;font-size:8px;font-family:Symbol;-inkscape-font-specification:Symbol;writing-mode:lr-tb;fill:#000000;fill-opacity:1;fill-rule:nonzero;stroke:none"
       id="text226"><tspan
         x="0"
         y="0"
         id="tspan224">Ω</tspan></text>
<text
       transform="matrix(1,0,0,-1,330.4059,596.5228)"
       style="font-variant:normal;font-weight:bold;font-size:8px;font-family:Helvetica;-inkscape-font-specification:Helvetica-Bold;writing-mode:lr-tb;fill:#000000;fill-opacity:1;fill-rule:nonzero;stroke:none"
       id="text230"><tspan
         x="0 4.4256001 8.8512001 11.0528"
         y="0"
         sodipodi:role="line"
         id="tspan228">10 k</tspan></text>
<text
       transform="matrix(1,0,0,-1,345.8827,596.5228)"
       style="font-variant:normal;font-weight:normal;font-size:8px;font-family:Symbol;-inkscape-font-specification:Symbol;writing-mode:lr-tb;fill:#000000;fill-opacity:1;fill-rule:nonzero;stroke:none"
       id="text234"><tspan
         x="0"
         y="0"
         id="tspan232">Ω</tspan></text>
</g></svg>