<?xml version="1.0" encoding="UTF-8" standalone="no"?>
<!-- Created with Inkscape (http://www.inkscape.org/) -->

<svg
   xmlns:dc="http://purl.org/dc/elements/1.1/"
   xmlns:cc="http://creativecommons.org/ns#"
   xmlns:rdf="http://www.w3.org/1999/02/22-rdf-syntax-ns#"
   xmlns:svg="http://www.w3.org/2000/svg"
   xmlns="http://www.w3.org/2000/svg"
   xmlns:sodipodi="http://sodipodi.sourceforge.net/DTD/sodipodi-0.dtd"
   xmlns:inkscape="http://www.inkscape.org/namespaces/inkscape"
   version="1.1"
   id="svg2"
   xml:space="preserve"
   width="608.81622"
   height="308.4024"
   viewBox="0 0 608.81622 308.40241"
   sodipodi:docname="lvpecl_output.svg"
   inkscape:version="0.92.4 (5da689c313, 2019-01-14)"><metadata
     id="metadata8"><rdf:RDF><cc:Work
         rdf:about=""><dc:format>image/svg+xml</dc:format><dc:type
           rdf:resource="http://purl.org/dc/dcmitype/StillImage" /><dc:title /></cc:Work></rdf:RDF></metadata><defs
     id="defs6" /><sodipodi:namedview
     pagecolor="#ffffff"
     bordercolor="#666666"
     borderopacity="1"
     objecttolerance="10"
     gridtolerance="10"
     guidetolerance="10"
     inkscape:pageopacity="0"
     inkscape:pageshadow="2"
     inkscape:window-width="1920"
     inkscape:window-height="1054"
     id="namedview4"
     showgrid="false"
     inkscape:zoom="2.5284424"
     inkscape:cx="245.80076"
     inkscape:cy="35.950755"
     inkscape:window-x="1050"
     inkscape:window-y="0"
     inkscape:window-maximized="1"
     inkscape:current-layer="g10" /><g
     id="g10"
     inkscape:groupmode="layer"
     inkscape:label="slla120"
     transform="matrix(1.3333333,0,0,-1.3333333,-120.93969,659.92302)"><path
   d="m 167.641,358.243 v -25.172 h 33.449 v 25.172 m 0,26.192 v 99.836 m -33.449,-99.836 v 99.836 m 16.724,-173.707 v 22.507 M 286.696,438.35 h 33.335 M 259.313,410.513 H 201.09 m 77.839,27.837 h -73.984 m -7.767,0 h -29.537 m 115.143,-41.273 v -29.594 h 92.863 m -32.145,57.43 v -31.691 h 32.145 m -92.863,30.047 v 61.002"
   style="fill:none;stroke:#000000;stroke-width:0.454;stroke-linecap:round;stroke-linejoin:round;stroke-miterlimit:10;stroke-dasharray:none;stroke-opacity:1"
   id="path158"
   inkscape:connector-curvature="0" /><path
   d="m 397.134,388.857 h -17.121 l -4.366,4.365 4.366,4.309 h 17.121"
   style="fill:#ffffff;fill-opacity:1;fill-rule:evenodd;stroke:none"
   id="path160"
   inkscape:connector-curvature="0" /><path
   d="m 397.134,388.857 h -17.121 l -4.366,4.365 4.366,4.309 h 17.121 z"
   style="fill:none;stroke:#000000;stroke-width:0.454;stroke-linecap:round;stroke-linejoin:round;stroke-miterlimit:10;stroke-dasharray:none;stroke-opacity:1"
   id="path162"
   inkscape:connector-curvature="0" /><path
   d="M 144.227,371.679 H 90.935"
   style="fill:none;stroke:#000000;stroke-width:0.454;stroke-linecap:round;stroke-linejoin:round;stroke-miterlimit:10;stroke-dasharray:8.164, 3.061;stroke-dashoffset:0;stroke-opacity:1"
   id="path164"
   inkscape:connector-curvature="0" /><path
   d="m 224.504,371.679 h 29.367"
   style="fill:none;stroke:#000000;stroke-width:0.454;stroke-linecap:round;stroke-linejoin:round;stroke-miterlimit:10;stroke-dasharray:7.824, 2.891;stroke-dashoffset:0;stroke-opacity:1"
   id="path166"
   inkscape:connector-curvature="0" /><path
   d="M 253.871,371.679 V 322.186"
   style="fill:none;stroke:#000000;stroke-width:0.454;stroke-linecap:round;stroke-linejoin:round;stroke-miterlimit:10;stroke-dasharray:7.597, 2.835;stroke-dashoffset:0;stroke-opacity:1"
   id="path168"
   inkscape:connector-curvature="0" /><path
   d="m 343.502,451.106 v 33.165"
   style="fill:none;stroke:#000000;stroke-width:0.454;stroke-linecap:round;stroke-linejoin:round;stroke-miterlimit:10;stroke-dasharray:none;stroke-opacity:1"
   id="path170"
   inkscape:connector-curvature="0" /><text
   transform="matrix(1,0,0,-1,372.4724,403.2)"
   style="font-variant:normal;font-weight:bold;font-size:8px;font-family:Helvetica;-inkscape-font-specification:Helvetica-Bold;writing-mode:lr-tb;fill:#000000;fill-opacity:1;fill-rule:nonzero;stroke:none"
   id="text184"><tspan
     x="0 6.2184 11.1008 13.7592 18.6416 23.524 26.1824 28.388"
     y="0"
     sodipodi:role="line"
     id="tspan172">Output +</tspan><tspan
     x="0 6.2160001 11.096 13.752 18.632 23.511999 26.167999 28.384001"
     y="25.681601"
     sodipodi:role="line"
     id="tspan174">Output –</tspan><tspan
     x="-180.05679 -173.83279 -168.05679"
     y="139.4072"
     sodipodi:role="line"
     id="tspan176">GND</tspan><tspan
     x="-261.9216 -256.15439 -251.27521 -248.172 -245.0688 -240.62959 -235.7504 -233.0952 -230.88 -225.5528 -220.6736 -215.7944 -212.69119 -208.252"
     y="105.3344"
     sodipodi:role="line"
     id="tspan178">Current Source</tspan><tspan
     x="-126.936"
     y="-86.003998"
     id="tspan180">V</tspan><tspan
     x="-121.6072 -115.8248"
     y="-84.019997"
     sodipodi:role="line"
     id="tspan182">CC</tspan></text>

<path
   d="m 343.502,451.106 -14.683,-7.994 m 0,-4.762 h -8.788 m 8.675,-4.819 14.796,-8.618 m -14.683,2.382 v 22.11"
   style="fill:none;stroke:#000000;stroke-width:0.454;stroke-linecap:round;stroke-linejoin:round;stroke-miterlimit:10;stroke-dasharray:none;stroke-opacity:1"
   id="path186"
   inkscape:connector-curvature="0" /><path
   d="m 332.277,428.032 2.891,5.045 -2.891,-5.045 h 5.783 -5.783 l 2.891,5.045 2.892,-5.045 z"
   style="fill:#000000;fill-opacity:1;fill-rule:evenodd;stroke:#000000;stroke-width:0.454;stroke-linecap:round;stroke-linejoin:round;stroke-miterlimit:10;stroke-dasharray:none;stroke-opacity:1"
   id="path188"
   inkscape:connector-curvature="0" /><path
   d="m 335.52,453.594 c 8.575,0 15.534,-6.959 15.534,-15.534 0,-8.575 -6.959,-15.534 -15.534,-15.534 -8.575,0 -15.534,6.959 -15.534,15.534 0,8.575 6.959,15.534 15.534,15.534"
   style="fill:none;stroke:#000000;stroke-width:0.454;stroke-linecap:round;stroke-linejoin:round;stroke-miterlimit:10;stroke-dasharray:none;stroke-opacity:1"
   id="path190"
   inkscape:connector-curvature="0" /><path
   d="m 165.033,469.021 h 5.499 v -16.554 h -5.499 z"
   style="fill:#ffffff;fill-opacity:1;fill-rule:evenodd;stroke:none"
   id="path192"
   inkscape:connector-curvature="0" /><path
   d="m 167.641,474.463 v -5.556 l 2.778,-1.361 -5.499,-2.721 5.499,-2.721 -5.499,-2.835 5.499,-2.721 -5.499,-2.721 2.721,-1.361 v -5.556"
   style="fill:none;stroke:#000000;stroke-width:0.454;stroke-linecap:round;stroke-linejoin:round;stroke-miterlimit:10;stroke-dasharray:none;stroke-opacity:1"
   id="path194"
   inkscape:connector-curvature="0" /><path
   d="m 343.5,486.358 c 1.158,0 2.098,-0.94 2.098,-2.098 0,-1.158 -0.94,-2.098 -2.098,-2.098 -1.158,0 -2.098,0.94 -2.098,2.098 0,1.158 0.94,2.098 2.098,2.098"
   style="fill:#000000;fill-opacity:1;fill-rule:evenodd;stroke:#000000;stroke-width:0.96399999;stroke-linecap:round;stroke-linejoin:round;stroke-miterlimit:10;stroke-dasharray:none;stroke-opacity:1"
   id="path196"
   inkscape:connector-curvature="0" /><path
   d="M 343.502,484.271 Z"
   style="fill:none;stroke:#000000;stroke-width:0.96399999;stroke-linecap:round;stroke-linejoin:round;stroke-miterlimit:10;stroke-dasharray:none;stroke-opacity:1"
   id="path198"
   inkscape:connector-curvature="0" /><path
   d="m 278.929,438.35 c 0,2.133 1.722,3.866 3.855,3.881 m 0,0.03 c 2.142,0 3.881,-1.738 3.881,-3.88 0,-0.011 0,-0.021 0,-0.031"
   style="fill:none;stroke:#000000;stroke-width:0.454;stroke-linecap:round;stroke-linejoin:round;stroke-miterlimit:10;stroke-dasharray:none;stroke-opacity:1"
   id="path200"
   inkscape:connector-curvature="0" /><path
   d="m 397.134,363.118 h -17.121 l -4.366,4.365 4.366,4.366 h 17.121"
   style="fill:#ffffff;fill-opacity:1;fill-rule:evenodd;stroke:none"
   id="path202"
   inkscape:connector-curvature="0" /><path
   d="m 397.134,363.118 h -17.121 l -4.366,4.365 4.366,4.366 h 17.121 z M 153.638,484.271 h 203.867 m -74.721,-61.002 -14.683,-7.993 m 0,-4.763 h -8.788 m 8.731,-4.818 14.74,-8.618 m -14.683,2.381 v 22.111"
   style="fill:none;stroke:#000000;stroke-width:0.454;stroke-linecap:round;stroke-linejoin:round;stroke-miterlimit:10;stroke-dasharray:none;stroke-opacity:1"
   id="path204"
   inkscape:connector-curvature="0" /><path
   d="m 271.616,400.195 2.891,5.046 -2.891,-5.046 h 5.782 -5.782 l 2.891,5.046 2.891,-5.046 z"
   style="fill:#000000;fill-opacity:1;fill-rule:evenodd;stroke:#000000;stroke-width:0.454;stroke-linecap:round;stroke-linejoin:round;stroke-miterlimit:10;stroke-dasharray:none;stroke-opacity:1"
   id="path206"
   inkscape:connector-curvature="0" /><path
   d="m 274.827,425.634 c 8.569,-0.015 15.507,-6.965 15.507,-15.534 0,-8.575 -6.959,-15.534 -15.534,-15.534 -8.575,0 -15.534,6.959 -15.534,15.534 0,8.575 6.959,15.534 15.534,15.534 0.009,0 0.018,0 0.027,0"
   style="fill:none;stroke:#000000;stroke-width:0.454;stroke-linecap:round;stroke-linejoin:round;stroke-miterlimit:10;stroke-dasharray:none;stroke-opacity:1"
   id="path208"
   inkscape:connector-curvature="0" /><path
   d="m 282.84,486.358 c 1.158,0 2.098,-0.94 2.098,-2.098 0,-1.158 -0.94,-2.098 -2.098,-2.098 -1.158,0 -2.098,0.94 -2.098,2.098 0,1.158 0.94,2.098 2.098,2.098"
   style="fill:#000000;fill-opacity:1;fill-rule:evenodd;stroke:#000000;stroke-width:0.96399999;stroke-linecap:round;stroke-linejoin:round;stroke-miterlimit:10;stroke-dasharray:none;stroke-opacity:1"
   id="path210"
   inkscape:connector-curvature="0" /><path
   d="M 282.784,484.271 Z"
   style="fill:none;stroke:#000000;stroke-width:0.96399999;stroke-linecap:round;stroke-linejoin:round;stroke-miterlimit:10;stroke-dasharray:none;stroke-opacity:1"
   id="path212"
   inkscape:connector-curvature="0" /><path
   d="m 167.727,486.357 c 1.117,-0.015 2.014,-0.949 2.014,-2.097 0,-1.158 -0.914,-2.098 -2.041,-2.098 -1.127,0 -2.041,0.94 -2.041,2.098 0,1.158 0.914,2.098 2.041,2.098 0.009,0 0.018,0 0.027,-10e-4"
   style="fill:#000000;fill-opacity:1;fill-rule:evenodd;stroke:#000000;stroke-width:0.96399999;stroke-linecap:round;stroke-linejoin:round;stroke-miterlimit:10;stroke-dasharray:none;stroke-opacity:1"
   id="path214"
   inkscape:connector-curvature="0" /><path
   d="M 167.641,484.271 Z"
   style="fill:none;stroke:#000000;stroke-width:0.96399999;stroke-linecap:round;stroke-linejoin:round;stroke-miterlimit:10;stroke-dasharray:none;stroke-opacity:1"
   id="path216"
   inkscape:connector-curvature="0" /><path
   d="m 201.12,486.358 c 1.158,0 2.098,-0.94 2.098,-2.098 0,-1.158 -0.94,-2.098 -2.098,-2.098 -1.158,0 -2.098,0.94 -2.098,2.098 0,1.158 0.94,2.098 2.098,2.098"
   style="fill:#000000;fill-opacity:1;fill-rule:evenodd;stroke:#000000;stroke-width:0.96399999;stroke-linecap:round;stroke-linejoin:round;stroke-miterlimit:10;stroke-dasharray:none;stroke-opacity:1"
   id="path218"
   inkscape:connector-curvature="0" /><path
   d="M 201.09,484.271 Z"
   style="fill:none;stroke:#000000;stroke-width:0.96399999;stroke-linecap:round;stroke-linejoin:round;stroke-miterlimit:10;stroke-dasharray:none;stroke-opacity:1"
   id="path220"
   inkscape:connector-curvature="0" /><path
   d="m 198.425,469.021 h 5.499 v -16.554 h -5.499 z"
   style="fill:#ffffff;fill-opacity:1;fill-rule:evenodd;stroke:none"
   id="path222"
   inkscape:connector-curvature="0" /><path
   d="m 201.09,474.463 v -5.556 l 2.721,-1.361 -5.499,-2.721 5.499,-2.721 -5.499,-2.835 5.499,-2.721 -5.499,-2.721 2.778,-1.361 v -5.556 m -3.912,-8.56 c 0,2.142 1.739,3.881 3.881,3.881 0.01,0 0.02,0 0.031,0 m 0,0.03 c 2.142,0 3.88,-1.738 3.88,-3.88 0,-0.011 0,-0.021 0,-0.032"
   style="fill:none;stroke:#000000;stroke-width:0.454;stroke-linecap:round;stroke-linejoin:round;stroke-miterlimit:10;stroke-dasharray:none;stroke-opacity:1"
   id="path224"
   inkscape:connector-curvature="0" /><path
   d="m 167.728,440.401 c 1.116,-0.015 2.013,-0.925 2.013,-2.041 0,-1.127 -0.914,-2.041 -2.041,-2.041 -1.127,0 -2.041,0.914 -2.041,2.041 0,1.127 0.914,2.041 2.041,2.041 0.009,0 0.019,0 0.028,0"
   style="fill:#000000;fill-opacity:1;fill-rule:evenodd;stroke:#000000;stroke-width:0.96399999;stroke-linecap:round;stroke-linejoin:round;stroke-miterlimit:10;stroke-dasharray:none;stroke-opacity:1"
   id="path226"
   inkscape:connector-curvature="0" /><path
   d="M 167.641,438.35 Z"
   style="fill:none;stroke:#000000;stroke-width:0.96399999;stroke-linecap:round;stroke-linejoin:round;stroke-miterlimit:10;stroke-dasharray:none;stroke-opacity:1"
   id="path228"
   inkscape:connector-curvature="0" /><path
   d="m 201.12,412.561 c 1.158,0 2.098,-0.914 2.098,-2.041 0,-1.127 -0.94,-2.041 -2.098,-2.041 -1.158,0 -2.098,0.914 -2.098,2.041 0,1.127 0.94,2.041 2.098,2.041"
   style="fill:#000000;fill-opacity:1;fill-rule:evenodd;stroke:#000000;stroke-width:0.96399999;stroke-linecap:round;stroke-linejoin:round;stroke-miterlimit:10;stroke-dasharray:none;stroke-opacity:1"
   id="path230"
   inkscape:connector-curvature="0" /><path
   d="M 201.09,410.513 Z"
   style="fill:none;stroke:#000000;stroke-width:0.96399999;stroke-linecap:round;stroke-linejoin:round;stroke-miterlimit:10;stroke-dasharray:none;stroke-opacity:1"
   id="path232"
   inkscape:connector-curvature="0" /><path
   d="m 167.641,384.435 -14.627,-7.994 m 0,-4.762 h -8.787 m 8.674,-4.819 14.74,-8.617 m -14.627,2.381 v 22.11"
   style="fill:none;stroke:#000000;stroke-width:0.454;stroke-linecap:round;stroke-linejoin:round;stroke-miterlimit:10;stroke-dasharray:none;stroke-opacity:1"
   id="path234"
   inkscape:connector-curvature="0" /><path
   d="m 156.472,361.361 2.892,5.045 -2.892,-5.045 h 5.783 -5.783 l 2.892,5.045 2.891,-5.045 z"
   style="fill:#000000;fill-opacity:1;fill-rule:evenodd;stroke:#000000;stroke-width:0.454;stroke-linecap:round;stroke-linejoin:round;stroke-miterlimit:10;stroke-dasharray:none;stroke-opacity:1"
   id="path236"
   inkscape:connector-curvature="0" /><path
   d="m 159.747,386.874 c 8.569,-0.015 15.507,-6.965 15.507,-15.534 0,-8.575 -6.959,-15.534 -15.534,-15.534 -8.575,0 -15.534,6.959 -15.534,15.534 0,8.575 6.959,15.534 15.534,15.534 0.009,0 0.018,0 0.027,0 m 24.335,-86.742 z"
   style="fill:none;stroke:#000000;stroke-width:0.454;stroke-linecap:round;stroke-linejoin:round;stroke-miterlimit:10;stroke-dasharray:none;stroke-opacity:1"
   id="path238"
   inkscape:connector-curvature="0" /><path
   d="m 194.745,300.512 c -0.015,-5.813 -4.732,-10.517 -10.545,-10.517 -5.821,0 -10.545,4.724 -10.545,10.545 0,5.821 4.724,10.545 10.545,10.545 5.821,0 10.545,-4.724 10.545,-10.545 0,-0.009 0,-0.018 0,-0.028"
   style="fill:#ffffff;fill-opacity:1;fill-rule:evenodd;stroke:none"
   id="path240"
   inkscape:connector-curvature="0" /><path
   d="m 194.745,300.512 c -0.015,-5.813 -4.732,-10.517 -10.545,-10.517 -5.821,0 -10.545,4.724 -10.545,10.545 0,5.821 4.724,10.545 10.545,10.545 5.821,0 10.545,-4.724 10.545,-10.545 0,-0.009 0,-0.018 0,-0.028 m -10.55,7.954 v -15.987 m -2.664,3.288 h 4.989 m -4.819,-0.34 h 4.649 m -4.422,-0.284 h 4.252 m -4.082,-0.34 h 3.911 m -3.741,-0.34 h 3.515 m -3.289,-0.34 h 3.119 m -2.948,-0.284 h 2.778 m -1.475,-2.267 h 0.171 m -0.341,0.283 h 0.511 m -0.737,0.34 h 0.907 m -1.077,0.34 h 1.247 m -1.418,0.341 h 1.645 m -1.871,0.283 h 2.041 m -2.211,0.34 h 2.381 m -1.191,-2.097 2.608,4.535 h -5.159 z m 0.17,-20.523 v 19.049"
   style="fill:none;stroke:#000000;stroke-width:0.454;stroke-linecap:round;stroke-linejoin:round;stroke-miterlimit:10;stroke-dasharray:none;stroke-opacity:1"
   id="path242"
   inkscape:connector-curvature="0" /><path
   d="m 184.32,335.158 c 1.158,0 2.098,-0.94 2.098,-2.098 0,-1.158 -0.94,-2.098 -2.098,-2.098 -1.158,0 -2.098,0.94 -2.098,2.098 0,1.158 0.94,2.098 2.098,2.098"
   style="fill:#000000;fill-opacity:1;fill-rule:evenodd;stroke:#000000;stroke-width:0.96399999;stroke-linecap:round;stroke-linejoin:round;stroke-miterlimit:10;stroke-dasharray:none;stroke-opacity:1"
   id="path244"
   inkscape:connector-curvature="0" /><path
   d="M 184.365,333.071 Z"
   style="fill:none;stroke:#000000;stroke-width:0.96399999;stroke-linecap:round;stroke-linejoin:round;stroke-miterlimit:10;stroke-dasharray:none;stroke-opacity:1"
   id="path246"
   inkscape:connector-curvature="0" /><path
   d="m 183.005,265.38 h 2.438 m 1.7,2.778 h -5.839 m -1.587,2.721 h 9.014 m -4.536,0 z"
   style="fill:none;stroke:#000000;stroke-width:0.454;stroke-linecap:round;stroke-linejoin:round;stroke-miterlimit:10;stroke-dasharray:none;stroke-opacity:1"
   id="path248"
   inkscape:connector-curvature="0" /><path
   d="M 180.51,322.186 H 90.935"
   style="fill:none;stroke:#000000;stroke-width:0.454;stroke-linecap:round;stroke-linejoin:round;stroke-miterlimit:10;stroke-dasharray:7.427, 2.778;stroke-dashoffset:0;stroke-opacity:1"
   id="path250"
   inkscape:connector-curvature="0" /><path
   d="m 201.09,384.435 14.683,-7.994 m 0,-4.762 h 8.731 m -8.674,-4.819 -14.74,-8.617 m 14.683,2.381 v 22.11"
   style="fill:none;stroke:#000000;stroke-width:0.454;stroke-linecap:round;stroke-linejoin:round;stroke-miterlimit:10;stroke-dasharray:none;stroke-opacity:1"
   id="path252"
   inkscape:connector-curvature="0" /><path
   d="m 212.258,361.361 -2.891,5.045 2.891,-5.045 h -5.782 5.782 l -2.891,5.045 -2.891,-5.045 z"
   style="fill:#000000;fill-opacity:1;fill-rule:evenodd;stroke:#000000;stroke-width:0.454;stroke-linecap:round;stroke-linejoin:round;stroke-miterlimit:10;stroke-dasharray:none;stroke-opacity:1"
   id="path254"
   inkscape:connector-curvature="0" /><path
   d="m 208.893,386.874 c 0.009,0 0.018,0 0.027,0 8.575,0 15.534,-6.959 15.534,-15.534 0,-8.575 -6.959,-15.534 -15.534,-15.534 -8.575,0 -15.534,6.959 -15.534,15.534 0,8.569 6.938,15.519 15.507,15.534 M 180.51,322.186 c 0,2.133 1.722,3.867 3.856,3.881 m -0.001,0.031 c 2.143,0 3.881,-1.739 3.881,-3.881 0,-0.01 0,-0.021 0,-0.031"
   style="fill:none;stroke:#000000;stroke-width:0.454;stroke-linecap:round;stroke-linejoin:round;stroke-miterlimit:10;stroke-dasharray:none;stroke-opacity:1"
   id="path256"
   inkscape:connector-curvature="0" /><path
   d="M 253.871,322.186 H 188.277"
   style="fill:none;stroke:#000000;stroke-width:0.454;stroke-linecap:round;stroke-linejoin:round;stroke-miterlimit:10;stroke-dasharray:7.087, 2.608;stroke-dashoffset:0;stroke-opacity:1"
   id="path258"
   inkscape:connector-curvature="0" /><path
   d="m 431.263,309.713 v 57.77"
   style="fill:none;stroke:#000000;stroke-width:0.454;stroke-linecap:round;stroke-linejoin:round;stroke-miterlimit:10;stroke-dasharray:none;stroke-opacity:1"
   id="path260"
   inkscape:connector-curvature="0" /><path
   d="m 428.655,348.208 h 5.499 v -16.554 h -5.499 z"
   style="fill:#ffffff;fill-opacity:1;fill-rule:evenodd;stroke:none"
   id="path262"
   inkscape:connector-curvature="0" /><path
   d="m 431.263,353.65 v -5.499 l 2.778,-1.36 -5.499,-2.778 5.499,-2.722 -5.499,-2.778 5.499,-2.778 -5.499,-2.721 2.721,-1.36 v -5.556"
   style="fill:none;stroke:#000000;stroke-width:0.454;stroke-linecap:round;stroke-linejoin:round;stroke-miterlimit:10;stroke-dasharray:none;stroke-opacity:1"
   id="path264"
   inkscape:connector-curvature="0" /><path
   d="M 397.134,367.483 H 508.025 M 397.134,393.222 H 508.025"
   style="fill:none;stroke:#000000;stroke-width:0.454;stroke-linecap:round;stroke-linejoin:round;stroke-miterlimit:10;stroke-dasharray:7.483, 2.778;stroke-dashoffset:0;stroke-opacity:1"
   id="path266"
   inkscape:connector-curvature="0" /><path
   d="m 431.193,369.597 c 0.009,0.001 0.018,0.001 0.027,0.001 1.127,0 2.041,-0.94 2.041,-2.098 0,-1.158 -0.914,-2.098 -2.041,-2.098 -1.127,0 -2.041,0.94 -2.041,2.098 0,1.148 0.897,2.082 2.014,2.097"
   style="fill:#000000;fill-opacity:1;fill-rule:evenodd;stroke:#000000;stroke-width:0.96399999;stroke-linecap:round;stroke-linejoin:round;stroke-miterlimit:10;stroke-dasharray:none;stroke-opacity:1"
   id="path268"
   inkscape:connector-curvature="0" /><path
   d="M 431.263,367.483 Z"
   style="fill:none;stroke:#000000;stroke-width:0.96399999;stroke-linecap:round;stroke-linejoin:round;stroke-miterlimit:10;stroke-dasharray:none;stroke-opacity:1"
   id="path270"
   inkscape:connector-curvature="0" /><path
   d="m 431.263,309.713 h 76.762"
   style="fill:none;stroke:#000000;stroke-width:0.454;stroke-linecap:round;stroke-linejoin:round;stroke-miterlimit:10;stroke-dasharray:none;stroke-opacity:1"
   id="path272"
   inkscape:connector-curvature="0" /><text
   transform="matrix(1,0,0,-1,407.3953,336.8126)"
   style="font-variant:normal;font-weight:bold;font-size:8px;font-family:Helvetica;-inkscape-font-specification:Helvetica-Bold;writing-mode:lr-tb;fill:#000000;fill-opacity:1;fill-rule:nonzero;stroke:none"
   id="text276"><tspan
     x="0 4.4264002 8.8528004"
     y="0"
     sodipodi:role="line"
     id="tspan274">50 </tspan></text>

<text
   transform="matrix(1,0,0,-1,418.4505,336.8126)"
   style="font-variant:normal;font-weight:normal;font-size:8px;font-family:Symbol;-inkscape-font-specification:Symbol;writing-mode:lr-tb;fill:#000000;fill-opacity:1;fill-rule:nonzero;stroke:none"
   id="text280"><tspan
     x="0"
     y="0"
     id="tspan278">Ω</tspan></text>

<path
   d="m 465.052,309.713 v 83.509"
   style="fill:none;stroke:#000000;stroke-width:0.454;stroke-linecap:round;stroke-linejoin:round;stroke-miterlimit:10;stroke-dasharray:none;stroke-opacity:1"
   id="path282"
   inkscape:connector-curvature="0" /><path
   d="m 462.387,348.208 h 5.556 v -16.554 h -5.556 z"
   style="fill:#ffffff;fill-opacity:1;fill-rule:evenodd;stroke:none"
   id="path284"
   inkscape:connector-curvature="0" /><path
   d="m 465.052,353.65 v -5.499 l 2.721,-1.36 -5.442,-2.778 5.442,-2.722 -5.442,-2.778 5.442,-2.778 -5.442,-2.721 2.721,-1.36 v -5.556"
   style="fill:none;stroke:#000000;stroke-width:0.454;stroke-linecap:round;stroke-linejoin:round;stroke-miterlimit:10;stroke-dasharray:none;stroke-opacity:1"
   id="path286"
   inkscape:connector-curvature="0" /><path
   d="m 465,395.278 c 1.158,0 2.098,-0.94 2.098,-2.098 0,-1.158 -0.94,-2.098 -2.098,-2.098 -1.158,0 -2.098,0.94 -2.098,2.098 0,1.158 0.94,2.098 2.098,2.098"
   style="fill:#000000;fill-opacity:1;fill-rule:evenodd;stroke:#000000;stroke-width:0.96399999;stroke-linecap:round;stroke-linejoin:round;stroke-miterlimit:10;stroke-dasharray:none;stroke-opacity:1"
   id="path288"
   inkscape:connector-curvature="0" /><path
   d="M 465.052,393.222 Z"
   style="fill:none;stroke:#000000;stroke-width:0.96399999;stroke-linecap:round;stroke-linejoin:round;stroke-miterlimit:10;stroke-dasharray:none;stroke-opacity:1"
   id="path290"
   inkscape:connector-curvature="0" /><text
   transform="matrix(1,0,0,-1,472.1953,336.8126)"
   style="font-variant:normal;font-weight:bold;font-size:8px;font-family:Helvetica;-inkscape-font-specification:Helvetica-Bold;writing-mode:lr-tb;fill:#000000;fill-opacity:1;fill-rule:nonzero;stroke:none"
   id="text294"><tspan
     x="0 4.4264002 8.8528004"
     y="0"
     sodipodi:role="line"
     id="tspan292">50 </tspan></text>

<text
   transform="matrix(1,0,0,-1,483.2505,336.8126)"
   style="font-variant:normal;font-weight:normal;font-size:8px;font-family:Symbol;-inkscape-font-specification:Symbol;writing-mode:lr-tb;fill:#000000;fill-opacity:1;fill-rule:nonzero;stroke:none"
   id="text298"><tspan
     x="0"
     y="0"
     id="tspan296">Ω</tspan></text>

<path
   d="m 465,311.758 c 1.158,0 2.098,-0.94 2.098,-2.098 0,-1.158 -0.94,-2.098 -2.098,-2.098 -1.158,0 -2.098,0.94 -2.098,2.098 0,1.158 0.94,2.098 2.098,2.098"
   style="fill:#000000;fill-opacity:1;fill-rule:evenodd;stroke:#000000;stroke-width:0.96399999;stroke-linecap:round;stroke-linejoin:round;stroke-miterlimit:10;stroke-dasharray:none;stroke-opacity:1"
   id="path300"
   inkscape:connector-curvature="0" /><path
   d="M 465.052,309.713 Z"
   style="fill:none;stroke:#000000;stroke-width:0.96399999;stroke-linecap:round;stroke-linejoin:round;stroke-miterlimit:10;stroke-dasharray:none;stroke-opacity:1"
   id="path302"
   inkscape:connector-curvature="0" /><text
   transform="matrix(1,0,0,-1,510.5764,306.8788)"
   style="font-variant:normal;font-weight:bold;font-size:8px;font-family:Helvetica;-inkscape-font-specification:Helvetica-Bold;writing-mode:lr-tb;fill:#000000;fill-opacity:1;fill-rule:nonzero;stroke:none"
   id="text308"><tspan
     x="0"
     y="0"
     id="tspan304">V</tspan><tspan
     x="5.3288002 11.1112"
     y="1.984"
     sodipodi:role="line"
     id="tspan306">CC</tspan></text>

<text
   transform="matrix(1,0,0,-1,527.4708,306.8788)"
   style="font-variant:normal;font-weight:normal;font-size:8px;font-family:PSOeqmbsmth;-inkscape-font-specification:PSOeqmbsmth;writing-mode:lr-tb;fill:#000000;fill-opacity:1;fill-rule:nonzero;stroke:none"
   id="text312"><tspan
     x="0"
     y="0"
     id="tspan310">*</tspan></text>

<text
   transform="matrix(1,0,0,-1,535.4644,306.8788)"
   style="font-variant:normal;font-weight:bold;font-size:8px;font-family:Helvetica;-inkscape-font-specification:Helvetica-Bold;writing-mode:lr-tb;fill:#000000;fill-opacity:1;fill-rule:nonzero;stroke:none"
   id="text316"><tspan
     x="0 4.4327998 6.6416001"
     y="0"
     sodipodi:role="line"
     id="tspan314">2 V</tspan></text>


</g></svg>