<?xml version="1.0" encoding="UTF-8" standalone="no"?>
<!-- Created with Inkscape (http://www.inkscape.org/) -->

<svg
   xmlns:dc="http://purl.org/dc/elements/1.1/"
   xmlns:cc="http://creativecommons.org/ns#"
   xmlns:rdf="http://www.w3.org/1999/02/22-rdf-syntax-ns#"
   xmlns:svg="http://www.w3.org/2000/svg"
   xmlns="http://www.w3.org/2000/svg"
   xmlns:sodipodi="http://sodipodi.sourceforge.net/DTD/sodipodi-0.dtd"
   xmlns:inkscape="http://www.inkscape.org/namespaces/inkscape"
   version="1.1"
   id="svg2"
   xml:space="preserve"
   width="376.96399"
   height="209.01457"
   viewBox="0 0 376.96399 209.01457"
   sodipodi:docname="redriver.svg"
   inkscape:version="0.92.4 (5da689c313, 2019-01-14)"><metadata
     id="metadata8"><rdf:RDF><cc:Work
         rdf:about=""><dc:format>image/svg+xml</dc:format><dc:type
           rdf:resource="http://purl.org/dc/dcmitype/StillImage" /><dc:title></dc:title></cc:Work></rdf:RDF></metadata><defs
     id="defs6"><clipPath
       clipPathUnits="userSpaceOnUse"
       id="clipPath40"><path
         d="M 0,0 H 309 V 145.1 H 0 Z"
         id="path38"
         inkscape:connector-curvature="0" /></clipPath><clipPath
       clipPathUnits="userSpaceOnUse"
       id="clipPath266"><path
         d="M 0,0 H 309.4 V 145.1 H 0 Z"
         id="path264"
         inkscape:connector-curvature="0" /></clipPath><clipPath
       clipPathUnits="userSpaceOnUse"
       id="clipPath506"><path
         d="M 0,0 H 286 V 159 H 0 Z"
         id="path504"
         inkscape:connector-curvature="0" /></clipPath><clipPath
       clipPathUnits="userSpaceOnUse"
       id="clipPath666"><path
         d="M 0,0 H 93 V 23 H 0 Z"
         id="path664"
         inkscape:connector-curvature="0" /></clipPath></defs><sodipodi:namedview
     pagecolor="#ffffff"
     bordercolor="#666666"
     borderopacity="1"
     objecttolerance="10"
     gridtolerance="10"
     guidetolerance="10"
     inkscape:pageopacity="0"
     inkscape:pageshadow="2"
     inkscape:window-width="1920"
     inkscape:window-height="1054"
     id="namedview4"
     showgrid="false"
     inkscape:zoom="0.4469697"
     inkscape:cx="629.02701"
     inkscape:cy="-190.68025"
     inkscape:window-x="1050"
     inkscape:window-y="0"
     inkscape:window-maximized="1"
     inkscape:current-layer="g10" /><g
     id="g10"
     inkscape:groupmode="layer"
     inkscape:label="sn75lvcp601"
     transform="matrix(1.3333333,0,0,-1.3333333,-219.46666,943.85805)"><path
       d="M 164.6,620.5363 H 447.323"
       style="fill:none;stroke:#0b0c0b;stroke-width:0.69986999;stroke-linecap:butt;stroke-linejoin:miter;stroke-miterlimit:2.61310005;stroke-dasharray:none;stroke-opacity:1"
       id="path510"
       inkscape:connector-curvature="0" /><path
       d="M 171.93008,620.5363 185.5426,688.599"
       style="fill:none;stroke:#0b0c0b;stroke-width:1.57061994;stroke-linecap:butt;stroke-linejoin:miter;stroke-miterlimit:2.61310005;stroke-dasharray:none;stroke-opacity:1"
       id="path512"
       inkscape:connector-curvature="0" /><path
       d="M 206.4855,688.642 H 185.5426"
       style="fill:none;stroke:#0b0c0b;stroke-width:1.57061994;stroke-linecap:butt;stroke-linejoin:miter;stroke-miterlimit:2.61310005;stroke-dasharray:none;stroke-opacity:1"
       id="path514"
       inkscape:connector-curvature="0" /><path
       d="M 237.8988,704.348 V 651.47"
       style="fill:none;stroke:#0b0c0b;stroke-width:0.69986999;stroke-linecap:butt;stroke-linejoin:miter;stroke-miterlimit:2.61310005;stroke-dasharray:none;stroke-opacity:1"
       id="path516"
       inkscape:connector-curvature="0" /><path
       d="M 172.45352,704.305 V 614.7766"
       style="fill:none;stroke:#0b0c0b;stroke-width:0.69986999;stroke-linecap:butt;stroke-linejoin:miter;stroke-miterlimit:2.61310005;stroke-dasharray:none;stroke-opacity:1"
       id="path518"
       inkscape:connector-curvature="0" /><path
       d="M 298.108,620.5363 V 699.07"
       style="fill:none;stroke:#0b0c0b;stroke-width:0.69986999;stroke-linecap:butt;stroke-linejoin:miter;stroke-miterlimit:2.61310005;stroke-dasharray:none;stroke-opacity:1"
       id="path520"
       inkscape:connector-curvature="0" /><path
       d="m 178.4305,699.113 h 53.4472"
       style="fill:none;stroke:#0b0c0b;stroke-width:0.69986999;stroke-linecap:butt;stroke-linejoin:miter;stroke-miterlimit:2.61310005;stroke-dasharray:none;stroke-opacity:1"
       id="path522"
       inkscape:connector-curvature="0" /><path
       d="m 178.9977,696.932 -6.54418,2.181 6.54418,2.182 v -4.363"
       style="fill:#0b0c0b;fill-opacity:1;fill-rule:evenodd;stroke:none;stroke-width:0.1"
       id="path524"
       inkscape:connector-curvature="0" /><path
       d="m 231.3535,701.295 6.5453,-2.182 -6.5453,-2.181 v 4.363"
       style="fill:#0b0c0b;fill-opacity:1;fill-rule:evenodd;stroke:none;stroke-width:0.1"
       id="path526"
       inkscape:connector-curvature="0" /><path
       d="M 243.8754,699.07 H 294.705"
       style="fill:none;stroke:#0b0c0b;stroke-width:0.69986999;stroke-linecap:butt;stroke-linejoin:miter;stroke-miterlimit:2.61310005;stroke-dasharray:none;stroke-opacity:1"
       id="path528"
       inkscape:connector-curvature="0" /><path
       d="m 244.4434,696.932 -6.5446,2.181 6.5446,2.182 v -4.363"
       style="fill:#0b0c0b;fill-opacity:1;fill-rule:evenodd;stroke:none;stroke-width:0.1"
       id="path530"
       inkscape:connector-curvature="0" /><path
       d="m 294.181,701.252 6.544,-2.182 -6.544,-2.182 v 4.364"
       style="fill:#0b0c0b;fill-opacity:1;fill-rule:evenodd;stroke:none;stroke-width:0.1"
       id="path532"
       inkscape:connector-curvature="0" /><path
       d="M 164.6,552.47266 H 305.961"
       style="fill:none;stroke:#0b0c0b;stroke-width:0.69986999;stroke-linecap:butt;stroke-linejoin:miter;stroke-miterlimit:2.61310005;stroke-dasharray:none;stroke-opacity:1"
       id="path540"
       inkscape:connector-curvature="0" /><path
       d="m 329.391,551.6 1.745,2.35625 1.833,2.26875 1.963,2.09414 2.007,2.00706 2.093,1.8324 2.139,1.6582 1.09,0.7414 1.091,0.7418 1.091,0.6551 1.091,0.6535 1.091,0.568 1.09,0.5664 1.091,0.4804 1.091,0.4364 1.047,0.3922 1.09,0.3492 1.048,0.2617 1.047,0.218 1.003,0.175 1.004,0.1304 1.003,0.0438 h 0.961 l 0.915,-0.0871 0.916,-0.1313 0.874,-0.1738 0.872,-0.2617 v 0"
       style="fill:none;stroke:#0b0c0b;stroke-width:1.57061994;stroke-linecap:butt;stroke-linejoin:miter;stroke-miterlimit:2.61310005;stroke-dasharray:none;stroke-opacity:1"
       id="path542"
       inkscape:connector-curvature="0" /><g
       id="g544"
       transform="matrix(0.101132,0,0,0.0988685,163,550)"><path
         d="m 1952.46,198.002 h 556.03"
         style="fill:none;stroke:#0b0c0b;stroke-width:15.88589954;stroke-linecap:butt;stroke-linejoin:miter;stroke-miterlimit:2.61310005;stroke-dasharray:none;stroke-opacity:1"
         id="path546"
         inkscape:connector-curvature="0" /></g><path
       d="m 329.521,552.47266 -30.628,-0.34922"
       style="fill:none;stroke:#0b0c0b;stroke-width:1.57061994;stroke-linecap:butt;stroke-linejoin:miter;stroke-miterlimit:2.61310005;stroke-dasharray:none;stroke-opacity:1"
       id="path548"
       inkscape:connector-curvature="0" /><path
       d="m 301.468,699.07 h 61.3"
       style="fill:none;stroke:#0b0c0b;stroke-width:0.69986999;stroke-linecap:butt;stroke-linejoin:miter;stroke-miterlimit:2.61310005;stroke-dasharray:none;stroke-opacity:1"
       id="path550"
       inkscape:connector-curvature="0" /><path
       d="m 302.034,696.888 -6.544,2.182 6.544,2.182 v -4.364"
       style="fill:#0b0c0b;fill-opacity:1;fill-rule:evenodd;stroke:none;stroke-width:0.1"
       id="path552"
       inkscape:connector-curvature="0" /><path
       d="m 362.244,701.252 6.544,-2.182 -6.544,-2.182 v 4.364"
       style="fill:#0b0c0b;fill-opacity:1;fill-rule:evenodd;stroke:none;stroke-width:0.1"
       id="path554"
       inkscape:connector-curvature="0" /><path
       d="M 368.788,699.07 V 588.5984"
       style="fill:none;stroke:#0b0c0b;stroke-width:0.69986999;stroke-linecap:butt;stroke-linejoin:miter;stroke-miterlimit:2.61310005;stroke-dasharray:none;stroke-opacity:1"
       id="path556"
       inkscape:connector-curvature="0" /><path
       d="M 431.615,699.07 V 622.6305"
       style="fill:none;stroke:#0b0c0b;stroke-width:0.69986999;stroke-linecap:butt;stroke-linejoin:miter;stroke-miterlimit:2.61310005;stroke-dasharray:none;stroke-opacity:1"
       id="path558"
       inkscape:connector-curvature="0" /><path
       d="m 374.765,699.07 h 50.83"
       style="fill:none;stroke:#0b0c0b;stroke-width:0.69986999;stroke-linecap:butt;stroke-linejoin:miter;stroke-miterlimit:2.61310005;stroke-dasharray:none;stroke-opacity:1"
       id="path560"
       inkscape:connector-curvature="0" /><path
       d="m 375.333,696.888 -6.545,2.182 6.545,2.182 v -4.364"
       style="fill:#0b0c0b;fill-opacity:1;fill-rule:evenodd;stroke:none;stroke-width:0.1"
       id="path562"
       inkscape:connector-curvature="0" /><path
       d="m 425.071,701.252 6.544,-2.182 -6.544,-2.182 v 4.364"
       style="fill:#0b0c0b;fill-opacity:1;fill-rule:evenodd;stroke:none;stroke-width:0.1"
       id="path564"
       inkscape:connector-curvature="0" /><path
       d="M 196.0137,682.621 V 558.49336"
       style="fill:none;stroke:#0b0c0b;stroke-width:0.69986999;stroke-linecap:butt;stroke-linejoin:miter;stroke-miterlimit:2.61310005;stroke-dasharray:none;stroke-opacity:1"
       id="path574"
       inkscape:connector-curvature="0" /><path
       d="m 193.8324,682.098 2.1813,6.544 2.1816,-6.544 h -4.3629"
       style="fill:#0b0c0b;fill-opacity:1;fill-rule:evenodd;stroke:none;stroke-width:0.1"
       id="path576"
       inkscape:connector-curvature="0" /><path
       d="m 198.1953,559.01797 -2.1816,-6.54531 -2.1813,6.54531 h 4.3629"
       style="fill:#0b0c0b;fill-opacity:1;fill-rule:evenodd;stroke:none;stroke-width:0.1"
       id="path578"
       inkscape:connector-curvature="0" /><g
       id="g580"
       transform="translate(163,550)"><text
         transform="matrix(1,0,0,-1,35.0238,43.4438)"
         style="font-variant:normal;font-weight:normal;font-size:8.72348022px;font-family:Arial;-inkscape-font-specification:ArialMT;writing-mode:lr-tb;fill:#0b0c0b;fill-opacity:1;fill-rule:nonzero;stroke:none"
         id="text584"><tspan
           x="0 6.2983527 8.2349653 10.504684"
           y="0"
           sodipodi:role="line"
           id="tspan582">Diff</tspan></text>
<text
         transform="matrix(1,0,0,-1,48.1129,42.2231)"
         style="font-variant:normal;font-weight:normal;font-size:5.66976976px;font-family:Arial;-inkscape-font-specification:ArialMT;writing-mode:lr-tb;fill:#0b0c0b;fill-opacity:1;fill-rule:nonzero;stroke:none"
         id="text588"><tspan
           x="0 3.7817366 6.9341288 10.086521 13.550751"
           y="0"
           sodipodi:role="line"
           id="tspan586">VppTX</tspan></text>
<text
         transform="matrix(1,0,0,-1,73.9418,79.2645)"
         style="font-variant:normal;font-weight:normal;font-size:8.72348022px;font-family:Arial;-inkscape-font-specification:ArialMT;writing-mode:lr-tb;fill:#0b0c0b;fill-opacity:1;fill-rule:nonzero;stroke:none"
         id="text592"><tspan
           x="0 6.2983527 8.2349653 10.504684"
           y="0"
           sodipodi:role="line"
           id="tspan590">Diff</tspan></text>
<text
         transform="matrix(1,0,0,-1,87.0301,78.08637)"
         style="font-variant:normal;font-weight:normal;font-size:5.66976976px;font-family:Arial;-inkscape-font-specification:ArialMT;writing-mode:lr-tb;fill:#0b0c0b;fill-opacity:1;fill-rule:nonzero;stroke:none"
         id="text596"><tspan
           x="0 3.7817366 6.9341288 10.086521 13.550751 17.321501 20.462906 24.55648"
           y="0"
           sodipodi:role="line"
           id="tspan594">VppTX_DE</tspan></text>
</g><path
       d="m 273.282,582.6648 h 94.242"
       style="fill:none;stroke:#0b0c0b;stroke-width:0.69986999;stroke-linecap:butt;stroke-linejoin:miter;stroke-miterlimit:2.61310005;stroke-dasharray:none;stroke-opacity:1"
       id="path598"
       inkscape:connector-curvature="0" /><g
       id="g600"
       transform="translate(163,550)"><text
         transform="matrix(1,0,0,-1,149.721,5.26758)"
         style="font-variant:normal;font-weight:normal;font-size:8.72348022px;font-family:Arial;-inkscape-font-specification:ArialMT;writing-mode:lr-tb;fill:#0b0c0b;fill-opacity:1;fill-rule:nonzero;stroke:none"
         id="text604"><tspan
           x="0"
           y="0"
           id="tspan602">t</tspan></text>
<text
         transform="matrix(1,0,0,-1,152.16358,4.04688)"
         style="font-variant:normal;font-weight:normal;font-size:5.66976976px;font-family:Arial;-inkscape-font-specification:ArialMT;writing-mode:lr-tb;fill:#0b0c0b;fill-opacity:1;fill-rule:nonzero;stroke:none"
         id="text608"><tspan
           x="0 4.093574"
           y="0"
           sodipodi:role="line"
           id="tspan606">DE</tspan></text>
<text
         transform="matrix(1,0,0,-1,30.13658,141.38788)"
         style="font-variant:normal;font-weight:normal;font-size:8.72348022px;font-family:Arial;-inkscape-font-specification:ArialMT;writing-mode:lr-tb;fill:#0b0c0b;fill-opacity:1;fill-rule:nonzero;stroke:none"
         id="text612"><tspan
           x="0"
           y="0"
           id="tspan610">t</tspan></text>
<text
         transform="matrix(1,0,0,-1,32.57955,140.16561)"
         style="font-variant:normal;font-weight:normal;font-size:5.66976976px;font-family:Arial;-inkscape-font-specification:ArialMT;writing-mode:lr-tb;fill:#0b0c0b;fill-opacity:1;fill-rule:nonzero;stroke:none"
         id="text616"><tspan
           x="0 4.093574"
           y="0"
           sodipodi:role="line"
           id="tspan614">DE</tspan></text>
</g><path
       d="M 235.4992,664.253 H 293.091"
       style="fill:none;stroke:#0b0c0b;stroke-width:1.57061994;stroke-linecap:butt;stroke-linejoin:miter;stroke-miterlimit:2.61310005;stroke-dasharray:none;stroke-opacity:1"
       id="path618"
       inkscape:connector-curvature="0" /><g
       id="g620"
       transform="translate(163,550)"><text
         transform="matrix(1,0,0,-1,84.107,131.266)"
         style="font-variant:normal;font-weight:bold;font-size:7.99981022px;font-family:Arial;-inkscape-font-specification:ArialMT-Bold;writing-mode:lr-tb;fill:#0b0c0b;fill-opacity:1;fill-rule:nonzero;stroke:none"
         id="text628"><tspan
           x="0 7.2863312 12.174215"
           y="0"
           sodipodi:role="line"
           id="tspan622">0dB</tspan><tspan
           x="-2.00703 0.91601896 8.2027416 13.090626"
           y="13.6566"
           sodipodi:role="line"
           id="tspan624">-2dB</tspan><tspan
           x="-3.09726 -0.17460141 7.1121216 12.000006"
           y="26.7019"
           sodipodi:role="line"
           id="tspan626">-4dB</tspan></text>
</g><path
       d="m 207.2266,688.336 0.2617,-0.872 0.3496,-0.873 0.3488,-0.872 0.4363,-0.872 0.5235,-0.917 0.5234,-0.873 0.611,-0.916 0.6101,-0.873 0.6981,-0.916 0.7414,-0.872 1.5715,-1.789 1.7449,-1.746 1.9203,-1.657 2.0066,-1.658 2.1383,-1.571 2.2238,-1.483 2.3137,-1.396 2.3555,-1.309 2.4433,-1.178 2.4864,-1.047 2.4879,-0.916"
       style="fill:none;stroke:#0b0c0b;stroke-width:1.57061994;stroke-linecap:butt;stroke-linejoin:miter;stroke-miterlimit:2.61310005;stroke-dasharray:none;stroke-opacity:1"
       id="path630"
       inkscape:connector-curvature="0" /><path
       d="m 207.2266,688.336 0.3929,-0.697 0.4801,-0.655 0.5234,-0.654 0.5235,-0.654 0.6101,-0.655 0.6543,-0.611 1.3965,-1.178 1.5715,-1.134 1.7016,-1.047 1.832,-0.96 1.9633,-0.829 2.0074,-0.785 2.1367,-0.656 2.1824,-0.567 2.2247,-0.436 2.2691,-0.349 2.2687,-0.174 2.3118,-0.088 2.2703,0.088"
       style="fill:none;stroke:#0b0c0b;stroke-width:1.57061994;stroke-linecap:butt;stroke-linejoin:miter;stroke-miterlimit:2.61310005;stroke-dasharray:none;stroke-opacity:1"
       id="path632"
       inkscape:connector-curvature="0" /><path
       d="m 293.614,664.776 2.617,-16.753"
       style="fill:none;stroke:#0b0c0b;stroke-width:1.57096994;stroke-linecap:butt;stroke-linejoin:miter;stroke-miterlimit:2.61310005;stroke-dasharray:none;stroke-opacity:1"
       id="path634"
       inkscape:connector-curvature="0" /><g
       id="g636"
       transform="matrix(0.102487,0,0,0.0975131,163,550)"><path
         d="m 1924.8,334.979 h 590.6"
         style="fill:none;stroke:#0b0c0b;stroke-width:16.1067009;stroke-linecap:butt;stroke-linejoin:miter;stroke-miterlimit:2.61310005;stroke-dasharray:none;stroke-opacity:1"
         id="path638"
         inkscape:connector-curvature="0" /></g><path
       d="m 361.355,582.7895 -1.426,-0.1727 -1.425,-0.2156 -1.425,-0.3024 -1.383,-0.3457 -1.382,-0.4312 -1.382,-0.4758 -1.338,-0.5613 -1.296,-0.6047 -1.339,-0.6477 -1.252,-0.7344 -1.253,-0.7773 -1.209,-0.8211 -1.21,-0.8633 -1.165,-0.9504 -1.124,-0.9507 -1.079,-1.0364 -2.073,-2.159 -0.994,-1.123 -0.907,-1.1664 -0.864,-1.209 -0.864,-1.2519 -0.777,-1.2961 -0.734,-1.2969 -0.647,-1.2945 -0.649,-1.3825 -0.518,-1.33903 -0.518,-1.425 -0.432,-1.425 -0.389,-1.42617 -0.302,-1.42461 -0.26,-1.46836"
       style="fill:none;stroke:#0b0c0b;stroke-width:1.55478001;stroke-linecap:butt;stroke-linejoin:miter;stroke-miterlimit:2.61310005;stroke-dasharray:none;stroke-opacity:1"
       id="path640"
       inkscape:connector-curvature="0" /><path
       d="M 281.005,657.752 V 588.2055"
       style="fill:none;stroke:#0b0c0b;stroke-width:0.69986999;stroke-linecap:butt;stroke-linejoin:miter;stroke-miterlimit:2.61310005;stroke-dasharray:none;stroke-opacity:1"
       id="path642"
       inkscape:connector-curvature="0" /><path
       d="m 278.823,657.186 2.182,6.544 2.182,-6.544 h -4.364"
       style="fill:#0b0c0b;fill-opacity:1;fill-rule:evenodd;stroke:none;stroke-width:0.1"
       id="path644"
       inkscape:connector-curvature="0" /><path
       d="m 283.187,588.7727 -2.182,-6.5446 -2.182,6.5446 h 4.364"
       style="fill:#0b0c0b;fill-opacity:1;fill-rule:evenodd;stroke:none;stroke-width:0.1"
       id="path646"
       inkscape:connector-curvature="0" /><path
       d="m 206.659,689.471 h 88.526 l 4.537,-136.03819"
       style="fill:none;stroke:#0b0c0b;stroke-width:1.57061994;stroke-linecap:butt;stroke-linejoin:miter;stroke-miterlimit:2.61310005;stroke-dasharray:none;stroke-opacity:1"
       id="path648"
       inkscape:connector-curvature="0" /><path
       d="M 238.7277,676.382 H 294.53"
       style="fill:none;stroke:#0b0c0b;stroke-width:1.57061994;stroke-linecap:butt;stroke-linejoin:miter;stroke-miterlimit:2.61310005;stroke-dasharray:none;stroke-opacity:1"
       id="path650"
       inkscape:connector-curvature="0" /><path
       d="m 431.834,619.7066 -19.59,-66.27379 h -83.727"
       style="fill:none;stroke:#0b0c0b;stroke-width:1.57061994;stroke-linecap:butt;stroke-linejoin:miter;stroke-miterlimit:2.61310005;stroke-dasharray:none;stroke-opacity:1"
       id="path652"
       inkscape:connector-curvature="0" /><g
       id="g674" /><text
       xml:space="preserve"
       style="font-style:normal;font-weight:normal;font-size:30px;line-height:1.25;font-family:sans-serif;letter-spacing:0px;word-spacing:0px;fill:#000000;fill-opacity:1;stroke:none;stroke-width:0.75"
       x="196.66258"
       y="-701.81543"
       id="text2236"
       transform="scale(1,-1)"><tspan
         sodipodi:role="line"
         id="tspan2234"
         x="196.66258"
         y="-701.81543"
         style="font-size:8px;stroke-width:0.75">1-bit</tspan></text>
<text
       xml:space="preserve"
       style="font-style:normal;font-weight:normal;font-size:30px;line-height:1.25;font-family:sans-serif;letter-spacing:0px;word-spacing:0px;fill:#000000;fill-opacity:1;stroke:none;stroke-width:0.75"
       x="248.80792"
       y="-701.79932"
       id="text2236-3"
       transform="scale(1,-1)"><tspan
         sodipodi:role="line"
         id="tspan2234-6"
         x="248.80792"
         y="-701.79932"
         style="font-size:7.99999952px;stroke-width:0.75">1 to N bits</tspan></text>
<text
       xml:space="preserve"
       style="font-style:normal;font-weight:normal;font-size:30px;line-height:1.25;font-family:sans-serif;letter-spacing:0px;word-spacing:0px;fill:#000000;fill-opacity:1;stroke:none;stroke-width:0.75"
       x="322.96423"
       y="-701.20605"
       id="text2236-7"
       transform="scale(1,-1)"><tspan
         sodipodi:role="line"
         id="tspan2234-5"
         x="322.96423"
         y="-701.20605"
         style="font-size:7.99999952px;stroke-width:0.75">1-bit</tspan></text>
<text
       xml:space="preserve"
       style="font-style:normal;font-weight:normal;font-size:30px;line-height:1.25;font-family:sans-serif;letter-spacing:0px;word-spacing:0px;fill:#000000;fill-opacity:1;stroke:none;stroke-width:0.75"
       x="381.30203"
       y="-701.79932"
       id="text2236-3-3"
       transform="scale(1,-1)"><tspan
         sodipodi:role="line"
         id="tspan2234-6-5"
         x="381.30203"
         y="-701.79932"
         style="font-size:7.99999952px;stroke-width:0.75">1 to N bits</tspan></text>
</g></svg>